<?xml version="1.0" encoding="UTF-8"?>
<svg width="155px" height="155px" viewBox="0 0 155 155" version="1.1" xmlns="http://www.w3.org/2000/svg" xmlns:xlink="http://www.w3.org/1999/xlink">
    <!-- Generator: Sketch 64 (93537) - https://sketch.com -->
    <title>mark</title>
    <desc>Created with Sketch.</desc>
    <defs>
        <radialGradient cx="16%" cy="16%" fx="16%" fy="16%" r="100%" id="radialGradient-1">
            <stop stop-color="#FF3344" offset="0%"></stop>
            <stop stop-color="#660000" offset="100%"></stop>
        </radialGradient>
    </defs>
    <g id="Cover" stroke="none" stroke-width="1" fill="none" fill-rule="evenodd">
        <g id="Artboard" transform="translate(-301.000000, -139.000000)" fill-rule="nonzero">
            <g id="mark" transform="translate(301.000000, 139.000000)">
                <circle id="Oval" fill="url(#radialGradient-1)" cx="77.5" cy="77.5" r="77.5"></circle>
                <path d="M44.4328893,34 L50.5194671,34 L50.5194671,123 L44.4328893,123 L44.4328893,34 Z M21.6812612,66.6503552 C21.7762119,61.00153 31.5293443,60.906694 31.5293443,66.460683 L31.5293443,71.204918 L38.9622731,71.204918 L38.9622731,66.7476229 C39.9215178,51.8097267 14,51.8097267 14,66.3634153 L14,92.1223498 C14,106.676038 39.9215178,107.057814 38.9622731,92.1223498 L38.9622731,86.5294536 L31.5293443,86.5294536 L31.5293443,92.4117213 C31.5293443,98.1578142 21.6812612,98.1578142 21.6812612,92.4117213 L21.6812612,66.6503552 Z M69.107876,57.0743442 C71.5768375,55.7535257 74.5186429,55.6475941 77.0764237,56.7874043 C80.5335999,58.3193716 81.9237743,61.9596175 81.9237743,65.9816393 L81.9237743,96.2392076 L86.7930365,96.2392076 L86.7930365,102.075273 L74.3764178,102.075273 L74.3764178,65.5998634 C74.3764178,60.3303825 65.7602582,60.4276502 65.8552087,65.5998634 L65.8552087,102.075273 L54.3247957,102.075273 L54.3247957,96.2392076 L58.1642089,96.2392076 L58.1642089,61.9523224 L53.1975615,61.9523224 L53.1975615,57.0889345 L64.3968647,57.0889345 L64.3968647,60.8969672 C65.6622265,59.2878938 67.2718416,57.9818152 69.107876,57.0743442 L69.107876,57.0743442 Z M125.467152,101.122049 C126.794124,101.602573 128.194532,101.849406 129.606025,101.851557 L137,101.851557 L137,96.2586612 L132.286554,96.2586612 C131.265046,96.3907832 130.238198,96.0571153 129.490068,95.349959 C128.741937,94.6428028 128.351831,93.6371239 128.427664,92.6111202 L128.427664,61.971776 L135.171592,61.971776 L135.171592,57.1083879 L128.427664,57.1083879 L128.427664,44.4635792 L120.636844,44.4635792 L120.636844,91.7503005 C120.92413,95.8695901 122.007541,99.6022404 125.464718,101.131776 L125.467152,101.122049 Z M107.129511,92.4068579 C107.129511,98.1529509 96.5339958,98.1529509 96.5339958,92.4068579 L96.5339958,80.2021858 L112.797332,80.2021858 C113.566675,80.2021858 113.819877,79.8666121 113.819877,79.0981967 L113.819877,66.7476229 C114.306803,51.8097267 88.7431761,51.8097267 88.7431761,66.3634153 L88.7431761,92.1223498 C88.7431761,106.676038 114.779122,107.057814 113.819877,92.1223498 L113.819877,86.5294536 L107.13438,86.5294536 L107.129511,92.4068579 Z M96.5339958,66.3634153 C96.5339958,60.8069946 106.515983,60.5273498 106.515983,66.0764754 L106.515983,74.1229509 L96.5339958,74.1229509 L96.5339958,66.3634153 Z" id="shadow" fill="#112233"></path>
                <path d="M44.4455446,36 L50.5346535,36 L50.5346535,125 L44.4455446,125 L44.4455446,36 Z M21.6844554,68.6503552 C21.7794455,63.00153 31.5366337,62.906694 31.5366337,68.460683 L31.5366337,73.204918 L38.9726535,73.204918 L38.9726535,68.7476229 C39.932297,53.8097267 14,53.8097267 14,68.3634153 L14,94.1223498 C14,108.676038 39.932297,109.057814 38.9726535,94.1223498 L38.9726535,88.5294536 L31.5366337,88.5294536 L31.5366337,94.4117213 C31.5366337,100.157814 21.6844554,100.157814 21.6844554,94.4117213 L21.6844554,68.6503552 Z M69.1307921,59.0743442 C71.6007804,57.7535257 74.5438091,57.6475941 77.1026535,58.7874043 C80.5612673,60.3193716 81.9520198,63.9596175 81.9520198,67.9816393 L81.9520198,98.2392076 L86.8233069,98.2392076 L86.8233069,104.075273 L74.4015248,104.075273 L74.4015248,67.5998634 C74.4015248,62.3303825 65.7817822,62.4276502 65.8767723,67.5998634 L65.8767723,104.075273 L54.3415644,104.075273 L54.3415644,98.2392076 L58.1825743,98.2392076 L58.1825743,63.9523224 L53.2138614,63.9523224 L53.2138614,59.0889345 L64.4178218,59.0889345 L64.4178218,62.8969672 C65.6837099,61.2878938 67.2939942,59.9818152 69.1307921,59.0743442 L69.1307921,59.0743442 Z M125.513505,103.122049 C126.76241,103.629075 128.101538,103.877272 129.449505,103.851557 L137,103.851557 L137,98.2586612 L132.335743,98.2586612 C131.313809,98.3907832 130.286536,98.0571153 129.538093,97.349959 C128.789651,96.6428028 128.399383,95.6371239 128.475248,94.6111202 L128.475248,63.971776 L135.051485,63.971776 L135.051485,59.1083879 L128.475248,59.1083879 L128.475248,46.4635792 L120.681188,46.4635792 L120.681188,93.6384426 C120.968594,97.7577323 121.850297,101.599809 125.308911,103.122049 L125.513505,103.122049 Z M107.168238,94.4068579 C107.168238,100.152951 96.5683168,100.152951 96.5683168,94.4068579 L96.5683168,82.2021858 L112.838416,82.2021858 C113.608079,82.2021858 113.861386,81.8666121 113.861386,81.0981967 L113.861386,68.7476229 C114.348515,53.8097267 88.7742574,53.8097267 88.7742574,68.3634153 L88.7742574,94.1223498 C88.7742574,108.676038 114.82103,109.057814 113.861386,94.1223498 L113.861386,88.5294536 L107.173109,88.5294536 L107.168238,94.4068579 Z M96.5683168,68.3634153 C96.5683168,62.8069946 106.554455,62.5273498 106.554455,68.0764754 L106.554455,76.1229509 L96.5683168,76.1229509 L96.5683168,68.3634153 Z" id="characters" fill="#FFFFFF"></path>
            </g>
        </g>
    </g>
</svg>