<svg width="225" height="40" viewBox="0 0 225 40" xmlns="http://www.w3.org/2000/svg"><title>Artboard Copy</title><defs><radialGradient cx="10.003%" cy="10.003%" fx="10.003%" fy="10.003%" r="100%" id="a"><stop stop-color="#F34" offset="0%"/><stop stop-color="#601" offset="100%"/></radialGradient></defs><g fill="none" fill-rule="evenodd"><g fill-rule="nonzero"><circle fill="url(#a)" cx="20" cy="20" r="20"/><path d="M11.828 8.356h1.6V31.2h-1.6V8.356zm-5.87 8.355c0-1.422 2.49-1.511 2.49-.089v1.245h1.868V16.71c.267-3.822-6.403-3.822-6.403-.089V23.2c0 3.733 6.67 3.822 6.403 0v-1.422H8.538v1.51c0 1.512-2.49 1.512-2.49 0v-6.577h-.09zm12.184-2.489c.623-.355 1.423-.355 2.046-.089.89.445 1.334 1.423 1.245 2.4v7.734h1.245v1.51h-3.113v-9.333c-.089-.622-.622-1.066-1.156-.977-.534.089-.978.444-.978.977v9.334h-2.935v-1.511h.978v-8.8H14.23v-1.245h2.846v.978a3.79 3.79 0 011.067-.978zM32.638 25.6c.356.089.712.178 1.068.178h1.867v-1.422h-1.245c-.445.088-.89-.267-.978-.8v-8.089h1.69v-1.245h-1.69v-3.289h-1.957v12.178c.09 1.067.356 2.045 1.245 2.489zm-4.713-2.311c0 1.511-2.757 1.511-2.757 0v-3.111h4.18c.178 0 .267-.09.267-.267v-3.2c.089-3.822-6.404-3.822-6.404-.089V23.2c0 3.733 6.67 3.822 6.404 0v-1.422h-1.69v1.51zm-2.668-6.667c0-1.422 2.579-1.51 2.579-.089v2.134h-2.58v-2.045z" fill="#123"/><path d="M11.828 8.8h1.6v22.844h-1.6V8.8zm-5.87 8.356c0-1.423 2.49-1.512 2.49-.09v1.245h1.868v-1.155c.356-3.823-6.314-3.823-6.314-.09v6.578c0 3.734 6.67 3.823 6.403 0v-1.422H8.538v1.511c0 1.511-2.49 1.511-2.49 0v-6.577h-.09zm12.184-2.49c.623-.355 1.423-.355 2.046-.088.89.444 1.334 1.422 1.245 2.4v7.733h1.245v1.511h-3.113V16.89c-.089-.622-.622-1.067-1.156-.978-.534.089-.978.445-.978.978v9.333h-2.935v-1.51h.978v-8.8H14.23v-1.245h2.846v.977a3.79 3.79 0 011.067-.977zm14.496 11.378c.356.09.623.178.979.178h1.956V24.8h-1.156c-.445.089-.89-.267-.978-.8V15.912h1.69v-1.245h-1.69v-3.29h-1.957v12.09c0 1.155.267 2.133 1.156 2.577zm-4.713-2.31c0 1.51-2.757 1.51-2.757 0v-3.112h4.18c.178 0 .267-.089.267-.266v-3.2c.089-3.823-6.404-3.823-6.404-.09v6.578c0 3.734 6.67 3.823 6.404 0v-1.422h-1.69v1.511zm-2.668-6.667c0-1.423 2.579-1.511 2.579-.09v2.045h-2.58v-1.955z" fill="#FFF"/></g><path d="M55.19 7.759c4.07 0 6.124 2.232 6.479 4.391h-3.51c-.206-.604-.84-1.775-3.007-1.775-2.335 0-3.492 1.757-3.492 3.97 0 2.251 1.027 4.228 3.51 4.228 1.738 0 2.522-.64 2.989-1.83h3.491c-.579 2.268-2.446 4.427-6.647 4.427-4.762 0-7.003-3.22-7.003-6.696 0-3.477 2.465-6.715 7.19-6.715zm137.9 3.232c3.76 0 5.51 2.683 5.51 5.075 0 2.969-2.051 5.091-5.634 5.091-3.594 0-5.43-2.415-5.43-5.089 0-2.645 1.901-5.077 5.554-5.077zm-124.595 0c3.76 0 5.51 2.683 5.51 5.075 0 2.969-2.05 5.091-5.634 5.091-3.594 0-5.43-2.415-5.43-5.089 0-2.645 1.901-5.077 5.554-5.077zm31.28 0c3.754 0 5.27 2.585 5.27 5.097 0 .243 0 .418-.017.728H97.46c.08 1.165.925 2.075 2.37 2.075 1.152 0 1.695-.352 2.046-.944h3.052c-.583 1.708-2.033 3.21-5.13 3.21-3.95 0-5.375-2.619-5.375-5.07 0-2.717 1.827-5.096 5.352-5.096zm51.25 0c3.76 0 5.51 2.683 5.51 5.075 0 2.969-2.051 5.091-5.634 5.091-3.594 0-5.43-2.415-5.43-5.089 0-2.645 1.9-5.077 5.554-5.077zm15.372.262v5.387c0 1.282.468 2.146 1.736 2.146 1.482 0 2.034-.87 2.034-3.076v-4.457h3.051v6.836c0 .93-.017 1.876.003 2.807h-2.98c-.037-.261-.041-.702-.057-1.127-.484.758-1.218 1.389-3.243 1.389-2.015 0-3.595-1.177-3.595-4.015v-5.89h3.051zm50.034-.262c3.406 0 4.6 1.604 4.74 2.987h-3.007c-.132-.453-.478-.97-1.843-.97-1.155 0-1.358.441-1.358.782 0 .4.309.643 2.105.91 3.918.591 4.435 1.907 4.435 3.245 0 1.76-1.336 3.212-4.858 3.212-2.639 0-4.706-1.112-5.009-3.225h3.022c.244.689.89 1.142 2.192 1.142 1.304 0 1.663-.403 1.663-.86 0-.539-.423-.802-2.354-1.068-3.676-.519-4.186-1.876-4.186-3.051 0-1.46 1.11-3.104 4.458-3.104zm-78.846-3.214c4.556 0 5.826 2.287 5.975 3.824h-3.473c-.168-.586-.579-1.372-2.613-1.372-1.439 0-2.11.439-2.11 1.171 0 .677.54.988 2.893 1.41 5.042.895 5.826 2.378 5.826 4.262 0 2.269-1.812 4.08-6.31 4.08-4.203 0-6.05-1.83-6.443-4.135h3.473c.354 1.025 1.213 1.684 3.305 1.684 1.923 0 2.427-.531 2.427-1.281 0-.806-.578-1.245-3.21-1.684-4.689-.786-5.49-2.287-5.49-4.007 0-2.635 2.594-3.952 5.75-3.952zm41.765.634v2.841h2.233v2.215h-2.233v4.063c0 .821.17 1.198 1.107 1.198.263 0 .56-.003.824-.06v2.09c-.521.15-1.224.215-1.934.215-2.376 0-3.065-1.03-3.065-2.91v-4.596h-1.73v-2.215h1.73V8.411h3.068zm-56.917 0v2.841h2.233v2.215h-2.233v4.063c0 .821.171 1.198 1.107 1.198.264 0 .56-.003.824-.06v2.09c-.521.15-1.224.215-1.934.215-2.376 0-3.065-1.03-3.065-2.91v-4.596h-1.73v-2.215h1.73V8.411h3.068zm-30.948 0v2.841h2.233v2.215h-2.233v4.063c0 .821.171 1.198 1.106 1.198.264 0 .561-.003.824-.06v2.09c-.52.15-1.223.215-1.933.215-2.375 0-3.066-1.03-3.066-2.91v-4.596h-1.73v-2.215h1.73V8.411h3.069zm94.477 2.841v9.644h-3.05v-9.644h3.05zm-104.121-.261c2.375 0 3.783 1.471 3.783 3.956v5.949H82.54v-5.462c0-1.104-.428-2.073-1.8-2.073-1.423 0-2.085.986-2.085 2.724v4.81h-3.067v-7.927a72.796 72.796 0 00-.019-1.716h2.981c.038.272.072.856.09 1.246.44-.667 1.322-1.507 3.2-1.507zm30.95 0c2.375 0 3.782 1.471 3.782 3.956v5.949h-3.085v-5.462c0-1.104-.427-2.073-1.798-2.073-1.424 0-2.086.986-2.086 2.724v4.81h-3.068v-7.927a72.8 72.8 0 00-.018-1.716h2.98c.038.272.074.856.09 1.246.442-.667 1.322-1.507 3.202-1.507zm48.72-3.962v13.867h-3.323V7.029h3.323zm45.014 3.962c2.375 0 3.782 1.471 3.782 3.956v5.949h-3.084v-5.462c0-1.104-.427-2.073-1.799-2.073-1.423 0-2.085.986-2.085 2.724v4.81h-3.067v-7.927a72.795 72.795 0 00-.019-1.716h2.98c.037.272.073.856.09 1.246.441-.667 1.322-1.507 3.202-1.507zm-55.544 2.301c-1.655 0-2.406 1.29-2.406 2.776 0 1.5.832 2.788 2.429 2.788 1.642 0 2.394-1.268 2.394-2.739 0-1.456-.725-2.825-2.417-2.825zm42.065 0c-1.654 0-2.406 1.29-2.406 2.776 0 1.5.833 2.788 2.429 2.788 1.643 0 2.394-1.268 2.394-2.739 0-1.456-.725-2.825-2.417-2.825zm-124.595 0c-1.654 0-2.406 1.29-2.406 2.776 0 1.5.834 2.788 2.43 2.788 1.643 0 2.394-1.268 2.394-2.739 0-1.456-.725-2.825-2.418-2.825zm31.321-.166c-1.602 0-2.184.874-2.275 1.822h4.452c-.06-.736-.458-1.822-2.177-1.822zM185.962 7v2.436h-3.05V7h3.05z" fill="#FFF"/><path d="M39.61 34.11c.076 0 .16.022.248.065a.561.561 0 01.323.532.6.6 0 01-.098.347.68.68 0 01-.208.198l.381.722h-.448l-.328-.632h-.406v.632h-.409V34.11h.946zm-.146.303h-.39v.627h.38c.055 0 .116-.028.18-.083.066-.056.098-.139.098-.25 0-.115-.032-.192-.098-.233a.336.336 0 00-.17-.061zm-.092 2.187c.284 0 .542-.069.773-.207.233-.138.418-.322.556-.555.139-.232.208-.49.208-.773 0-.283-.07-.541-.208-.772a1.555 1.555 0 00-.556-.556 1.475 1.475 0 00-.773-.208c-.282 0-.54.07-.772.208a1.555 1.555 0 00-.556.556 1.48 1.48 0 00-.207.772c0 .283.069.54.207.773.138.233.323.417.556.555.233.138.49.207.772.207zm0 .485a1.984 1.984 0 01-1.429-.59c-.186-.186-.33-.4-.435-.644a1.971 1.971 0 01-.156-.786c0-.28.051-.542.156-.786a2.046 2.046 0 011.08-1.078c.244-.104.505-.156.784-.156.28 0 .543.052.787.156a2.034 2.034 0 011.078 1.078c.104.244.157.506.157.786a1.986 1.986 0 01-.59 1.43c-.187.184-.4.33-.645.434a1.982 1.982 0 01-.787.156z" fill="#FFF" opacity=".25"/><path d="M51.366 25.993c.213 0 .439.025.68.075.238.049.463.14.672.272.21.132.383.32.516.564.134.244.202.561.202.95v3.542h-1.015v-.73h-.04a1.479 1.479 0 01-.303.397 1.638 1.638 0 01-.518.322 2 2 0 01-.757.128c-.338 0-.644-.063-.917-.188a1.528 1.528 0 01-.649-.551c-.158-.24-.237-.535-.237-.886 0-.3.058-.548.173-.743.116-.193.273-.347.47-.461.197-.114.416-.2.66-.257.243-.059.49-.101.743-.132l.779-.092c.199-.024.343-.064.433-.12.09-.055.136-.146.136-.271v-.024c0-.303-.086-.538-.256-.705-.17-.166-.423-.25-.758-.25-.35 0-.625.078-.825.231-.2.153-.34.325-.416.512l-.976-.222c.116-.323.285-.586.51-.786.223-.201.48-.347.772-.438.292-.091.599-.137.92-.137zm50.336 0c.213 0 .439.025.679.075.24.049.464.14.673.272.21.132.383.32.516.564.134.244.202.561.202.95v3.542h-1.015v-.73h-.04a1.479 1.479 0 01-.303.397 1.638 1.638 0 01-.518.322 2 2 0 01-.757.128c-.338 0-.644-.063-.917-.188a1.528 1.528 0 01-.649-.551c-.158-.24-.237-.535-.237-.886 0-.3.058-.548.173-.743.116-.193.273-.347.47-.461.196-.114.416-.2.66-.257.243-.059.49-.101.743-.132l.778-.092c.2-.024.344-.064.434-.12.09-.055.136-.146.136-.271v-.024c0-.303-.086-.538-.256-.705-.17-.166-.423-.25-.758-.25-.35 0-.625.078-.825.231-.2.153-.34.325-.416.512l-.976-.222c.116-.323.285-.586.51-.786.223-.201.48-.347.772-.438.292-.091.599-.137.92-.137zm66.906 0c.577 0 1.03.124 1.362.373.33.25.549.582.656.998l-.942.167a1.166 1.166 0 00-.185-.343.955.955 0 00-.342-.268 1.24 1.24 0 00-.539-.104c-.295 0-.54.065-.736.196-.199.131-.295.3-.295.505 0 .178.065.322.198.43.132.109.343.199.638.268l.849.195c.489.114.855.288 1.097.524.24.236.361.542.361.92 0 .32-.091.603-.275.853a1.834 1.834 0 01-.769.585 2.853 2.853 0 01-1.137.211c-.598 0-1.086-.127-1.462-.383-.38-.256-.61-.62-.696-1.092l1.004-.153a.95.95 0 00.386.592c.195.133.449.2.76.2.341 0 .613-.071.817-.214.204-.143.306-.317.306-.522a.548.548 0 00-.186-.42c-.125-.115-.315-.2-.568-.258l-.903-.198c-.499-.114-.867-.294-1.103-.541-.238-.247-.356-.562-.356-.942 0-.314.087-.59.264-.825.175-.237.419-.422.73-.554.309-.133.664-.2 1.066-.2zm-61.46 0c.406 0 .767.075 1.085.224.317.15.573.358.77.627a1.9 1.9 0 01.349.94h-1.012a1.21 1.21 0 00-.38-.645c-.198-.18-.463-.271-.793-.271-.29 0-.543.075-.76.227a1.484 1.484 0 00-.505.647c-.12.278-.18.608-.18.987 0 .389.058.725.176 1.007.119.282.286.5.502.656.217.156.472.233.767.233.196 0 .375-.036.536-.11.16-.072.297-.178.406-.314a1.19 1.19 0 00.231-.493h1.012a1.97 1.97 0 01-.337.924 1.95 1.95 0 01-.753.638c-.314.156-.681.233-1.103.233-.516 0-.96-.117-1.332-.352a2.312 2.312 0 01-.856-.974c-.2-.414-.3-.889-.3-1.424 0-.541.103-1.02.307-1.435.204-.416.49-.74.862-.975.37-.233.806-.35 1.309-.35zm56.39 0c.578 0 1.031.124 1.363.373.33.25.549.582.656.998l-.942.167a1.166 1.166 0 00-.186-.343.955.955 0 00-.341-.268 1.24 1.24 0 00-.539-.104c-.295 0-.54.065-.736.196-.199.131-.296.3-.296.505 0 .178.066.322.199.43.131.109.343.199.638.268l.849.195c.489.114.855.288 1.097.524.24.236.361.542.361.92 0 .32-.091.603-.276.853a1.834 1.834 0 01-.768.585 2.853 2.853 0 01-1.137.211c-.598 0-1.086-.127-1.462-.383-.38-.256-.61-.62-.696-1.092l1.004-.153a.95.95 0 00.386.592c.195.133.448.2.76.2.341 0 .612-.071.817-.214.204-.143.306-.317.306-.522a.548.548 0 00-.186-.42c-.125-.115-.315-.2-.568-.258l-.903-.198c-.499-.114-.867-.294-1.104-.541-.237-.247-.355-.562-.355-.942 0-.314.087-.59.264-.825.175-.237.419-.422.729-.554.31-.133.665-.2 1.066-.2zm-39.414 0c.3 0 .593.049.875.15.282.099.536.255.762.468.224.212.4.489.53.828.13.34.195.75.195 1.234v.368h-3.791l.006.135c.02.269.08.503.18.702.126.25.303.44.53.571.227.132.493.197.797.197.195 0 .375-.029.538-.086.162-.056.302-.141.42-.255.119-.114.209-.253.272-.42l.982.177c-.08.29-.22.543-.422.759a2.042 2.042 0 01-.76.504c-.306.119-.652.178-1.04.178-.527 0-.98-.113-1.357-.338a2.26 2.26 0 01-.876-.955c-.205-.41-.307-.893-.307-1.446 0-.546.102-1.028.307-1.445.205-.417.492-.742.862-.976.368-.233.8-.35 1.297-.35zm34.061 0c.301 0 .593.049.876.15.281.099.535.255.76.468.225.212.402.489.532.828.129.34.195.75.195 1.234v.368h-3.791l.005.135c.02.269.08.503.181.702.125.25.302.44.53.571.226.132.492.197.796.197.196 0 .375-.029.538-.086.162-.056.302-.141.42-.255.119-.114.209-.253.272-.42l.983.177c-.08.29-.22.543-.423.759a2.042 2.042 0 01-.76.504c-.306.119-.652.178-1.04.178-.527 0-.979-.113-1.357-.338a2.26 2.26 0 01-.876-.955c-.204-.41-.307-.893-.307-1.446 0-.546.103-1.028.307-1.445.206-.417.492-.742.862-.976.368-.233.8-.35 1.297-.35zm-65.899 0c.3 0 .593.049.875.15.283.099.537.255.762.468.224.212.4.489.53.828.13.34.195.75.195 1.234v.368h-3.791l.006.135c.02.269.08.503.18.702.128.25.304.44.53.571.229.132.493.197.797.197.196 0 .376-.029.538-.086.162-.056.302-.141.42-.255.119-.114.209-.253.272-.42l.983.177c-.079.29-.22.543-.423.759a2.042 2.042 0 01-.76.504 2.84 2.84 0 01-1.04.178c-.526 0-.98-.113-1.357-.338a2.26 2.26 0 01-.876-.955c-.205-.41-.307-.893-.307-1.446 0-.546.102-1.028.307-1.445.205-.417.492-.742.862-.976.37-.233.802-.35 1.297-.35zm52.22 0c.578 0 1.031.124 1.363.373.33.25.549.582.656.998l-.941.167a1.166 1.166 0 00-.186-.343.955.955 0 00-.342-.268 1.24 1.24 0 00-.539-.104c-.295 0-.54.065-.736.196-.198.131-.295.3-.295.505 0 .178.066.322.198.43.132.109.343.199.639.268l.848.195c.49.114.856.288 1.097.524.24.236.362.542.362.92 0 .32-.092.603-.276.853a1.834 1.834 0 01-.769.585 2.853 2.853 0 01-1.137.211c-.598 0-1.086-.127-1.462-.383-.379-.256-.61-.62-.695-1.092l1.004-.153a.95.95 0 00.386.592c.194.133.448.2.76.2.34 0 .612-.071.816-.214.204-.143.306-.317.306-.522a.548.548 0 00-.186-.42c-.125-.115-.314-.2-.568-.258l-.903-.198c-.498-.114-.867-.294-1.103-.541-.238-.247-.356-.562-.356-.942 0-.314.087-.59.264-.825.175-.237.419-.422.73-.554.309-.133.665-.2 1.066-.2zm-72.448-1.15c.451 0 .85.077 1.193.235.343.156.613.373.808.65.196.277.298.594.304.952h-1.059a.886.886 0 00-.388-.663c-.227-.158-.519-.237-.874-.237-.254 0-.47.038-.651.116a.988.988 0 00-.42.313.752.752 0 00-.146.455.64.64 0 00.099.367c.066.103.156.189.267.26.11.07.232.13.364.178.133.048.265.088.398.12l.612.155c.233.055.46.128.683.222.223.094.426.213.606.357.181.144.326.32.434.528.109.209.163.455.163.739 0 .375-.095.705-.287.992-.193.286-.47.51-.831.672-.362.162-.8.242-1.314.242-.494 0-.924-.077-1.288-.232a1.93 1.93 0 01-.854-.672c-.205-.294-.317-.647-.334-1.062h1.09c.017.23.088.42.214.57.127.151.291.263.494.338.202.074.426.112.672.112.26 0 .493-.04.695-.122.202-.08.36-.194.475-.339a.79.79 0 00.172-.505.648.648 0 00-.151-.44 1.16 1.16 0 00-.419-.287 4.437 4.437 0 00-.614-.204l-.748-.196c-.527-.138-.943-.347-1.25-.624-.306-.276-.46-.644-.46-1.103 0-.376.104-.706.309-.99.205-.283.485-.503.838-.66a2.905 2.905 0 011.198-.237zm60.191-.235v2.529h.056c.059-.113.144-.24.254-.38.109-.14.26-.261.453-.365.191-.102.443-.153.753-.153.404 0 .767.102 1.086.306.322.205.576.503.76.893.186.392.279.866.279 1.422 0 .552-.092 1.025-.276 1.416a2.106 2.106 0 01-.754.903c-.32.208-.683.313-1.09.313-.3 0-.55-.051-.745-.153a1.497 1.497 0 01-.46-.359 2.158 2.158 0 01-.26-.38h-.08v.795h-1.051v-6.787h1.075zm-72.305.235c.354 0 .683.05.989.15.305.1.578.246.82.439.24.192.44.426.594.704.157.276.26.593.313.948h-1.112a1.44 1.44 0 00-.548-.922 1.512 1.512 0 00-.474-.243 1.92 1.92 0 00-.566-.082c-.36 0-.68.09-.959.27a1.83 1.83 0 00-.658.789c-.16.346-.24.769-.24 1.267 0 .505.08.932.241 1.277.162.346.382.608.66.785.28.176.598.264.953.264.198 0 .385-.025.559-.079a1.456 1.456 0 00.83-.618c.097-.151.165-.325.202-.52l1.112.006a2.631 2.631 0 01-.293.87 2.458 2.458 0 01-.576.701c-.235.2-.508.357-.819.468-.31.112-.653.167-1.028.167a2.887 2.887 0 01-1.51-.396 2.755 2.755 0 01-1.048-1.14c-.255-.498-.382-1.092-.382-1.785 0-.694.128-1.289.384-1.785a2.764 2.764 0 011.05-1.14 2.893 2.893 0 011.506-.395zm28.05-.058v1.278h1.094v.833h-1.094v2.934c0 .2.03.352.091.453.06.1.138.17.234.205a.9.9 0 00.315.054c.083 0 .156-.006.219-.018l.145-.027.188.857a1.972 1.972 0 01-.674.112 1.838 1.838 0 01-.764-.146 1.311 1.311 0 01-.574-.473c-.145-.213-.218-.48-.218-.802l-.001-3.15h-.781v-.832h.78l.002-1.278h1.038zm23.656 0v1.278h1.094v.833h-1.094v2.934c0 .2.03.352.091.453.06.1.138.17.234.205a.9.9 0 00.315.054c.083 0 .156-.006.219-.018l.146-.027.187.857a1.972 1.972 0 01-.674.112 1.838 1.838 0 01-.764-.146 1.311 1.311 0 01-.573-.473c-.146-.213-.22-.48-.22-.802v-3.15h-.781v-.832h.781v-1.278h1.04zm26.343 1.277v3.268c0 .363.1.652.303.868.202.215.464.323.785.323a1.286 1.286 0 001.064-.587c.13-.197.193-.447.19-.75v-3.122h1.042v5.333h-1.022v-.923h-.055a1.637 1.637 0 01-.589.71c-.269.189-.604.283-1.005.283-.343 0-.645-.076-.91-.227a1.571 1.571 0 01-.617-.675c-.15-.3-.224-.668-.224-1.108v-3.393h1.038zm14.938-.07c.365 0 .682.076.955.228.275.152.487.377.636.676.152.298.226.667.226 1.107v3.393h-1.039V28.13c0-.387-.1-.69-.302-.909-.202-.218-.477-.328-.83-.328-.24 0-.453.053-.64.157a1.11 1.11 0 00-.442.457 1.51 1.51 0 00-.162.723v3.167h-1.039v-5.334h.997v.868h.066c.124-.281.317-.509.58-.68.263-.171.595-.257.994-.257zm-69.367 0c.363 0 .682.076.955.228.273.152.485.377.636.676.15.298.226.667.226 1.107v3.393h-1.04V28.13c0-.387-.1-.69-.301-.909-.202-.218-.479-.328-.831-.328a1.29 1.29 0 00-.64.157 1.105 1.105 0 00-.442.457 1.51 1.51 0 00-.161.723v3.167h-1.04v-5.334h.998v.868h.066c.123-.281.315-.509.579-.68.262-.171.594-.257.995-.257zm14.63-.01c.145 0 .276.018.391.053.117.035.218.083.306.142l-.333.868a1.155 1.155 0 00-.212-.075c-.079-.02-.169-.03-.271-.03-.241 0-.455.052-.645.155a1.16 1.16 0 00-.613 1.044v3.257H95.78v-5.334h1.004v.848h.055c.098-.288.27-.513.515-.68.244-.165.525-.248.84-.248zm50.603.08v5.334h-1.039v-5.334h1.039zm-31.627 0l1.351 4.104h.056l1.348-4.104h1.115l-1.935 5.334h-1.112l-1.938-5.334h1.115zm-37.856-1.13v6.464h-1.055v-6.464h1.055zm-12.847 0c.465 0 .851.073 1.158.22.306.148.536.349.689.603.153.254.228.542.228.862 0 .263-.05.487-.15.674-.1.186-.234.336-.402.45a1.738 1.738 0 01-.562.246v.062c.225.013.442.084.65.21.209.128.38.307.515.54.135.233.203.513.203.841 0 .335-.08.635-.239.899-.159.264-.402.473-.726.626-.326.154-.737.23-1.234.23H64.03v-6.463h2.437zm48.538 1.13v5.334h-1.039v-5.334h1.039zm-62.608 2.722a.519.519 0 01-.213.103 2.75 2.75 0 01-.36.08c-.134.022-.265.041-.393.06-.127.016-.233.031-.319.043a2.538 2.538 0 00-.55.128.943.943 0 00-.397.258.651.651 0 00-.148.447c0 .257.096.45.286.581.19.132.431.196.726.196.287 0 .533-.056.738-.17.205-.113.36-.262.468-.446.109-.184.162-.38.162-.592v-.688zm50.336 0a.519.519 0 01-.213.103 2.75 2.75 0 01-.36.08c-.134.022-.265.041-.393.06-.127.016-.234.031-.319.043a2.538 2.538 0 00-.55.128.943.943 0 00-.397.258.651.651 0 00-.148.447c0 .257.096.45.286.581.19.132.431.196.726.196.287 0 .533-.056.738-.17.205-.113.36-.262.468-.446.109-.184.162-.38.162-.592v-.688zm30.773-1.647c-.277 0-.51.07-.701.214a1.308 1.308 0 00-.43.597 2.546 2.546 0 00-.146.903c0 .346.05.65.15.91.098.261.242.465.431.61.19.146.42.22.696.22.283 0 .52-.076.711-.228.191-.152.335-.358.435-.62.097-.264.148-.562.148-.892 0-.33-.05-.624-.146-.88a1.37 1.37 0 00-.433-.611 1.133 1.133 0 00-.715-.223zM66.48 28.51h-1.35v1.961h1.315c.44 0 .757-.086.95-.256a.824.824 0 00.29-.647c0-.197-.048-.376-.146-.537a1.037 1.037 0 00-.42-.38 1.38 1.38 0 00-.64-.14zm57.65-1.66c-.291 0-.547.072-.763.214a1.431 1.431 0 00-.5.556c-.094.183-.15.377-.168.584l-.003.059h2.772a1.54 1.54 0 00-.167-.727 1.269 1.269 0 00-.467-.501 1.326 1.326 0 00-.704-.184zm-31.838 0a1.36 1.36 0 00-.763.214 1.438 1.438 0 00-.5.556c-.093.183-.149.377-.168.584l-.003.059h2.772a1.54 1.54 0 00-.167-.727 1.263 1.263 0 00-.467-.501 1.32 1.32 0 00-.704-.184zm65.9 0c-.292 0-.547.072-.763.214a1.431 1.431 0 00-.5.556c-.095.183-.15.377-.169.584l-.003.059h2.772a1.54 1.54 0 00-.167-.727 1.269 1.269 0 00-.467-.501 1.326 1.326 0 00-.703-.184zm-91.824-1h-1.237v1.846h1.213c.208 0 .395-.039.562-.116a.96.96 0 00.395-.332.874.874 0 00.148-.508c0-.256-.09-.47-.27-.638-.18-.168-.45-.252-.81-.252zM114.491 24c.18 0 .335.06.464.182a.58.58 0 01.192.436.582.582 0 01-.192.439.652.652 0 01-.464.182.648.648 0 01-.463-.182.575.575 0 01-.193-.436c0-.17.064-.317.193-.439a.648.648 0 01.463-.182zm33.792 0c.18 0 .335.06.463.182a.578.578 0 01.193.436.58.58 0 01-.193.439.648.648 0 01-.463.182.648.648 0 01-.464-.182.575.575 0 01-.193-.436c0-.17.065-.317.193-.439a.648.648 0 01.464-.182z" fill="#FFF" opacity=".5"/></g></svg>