<svg width="155" height="155" viewBox="0 0 155 155" xmlns="http://www.w3.org/2000/svg"><title>mark</title><defs><radialGradient cx="16%" cy="16%" fx="16%" fy="16%" r="100%" id="a"><stop stop-color="#F34" offset="0%"/><stop stop-color="#600" offset="100%"/></radialGradient></defs><g fill-rule="nonzero" fill="none"><circle fill="url(#a)" cx="77.5" cy="77.5" r="77.5"/><path d="M44.433 34h6.086v89h-6.086V34zM21.68 66.65c.095-5.648 9.848-5.743 9.848-.19v4.745h7.433v-4.457C39.922 51.81 14 51.81 14 66.363v25.76c0 14.553 25.922 14.935 24.962 0v-5.594H31.53v5.883c0 5.746-9.848 5.746-9.848 0V66.65zm47.427-9.576a9.069 9.069 0 017.968-.287c3.458 1.532 4.848 5.173 4.848 9.195v30.257h4.869v5.836H74.376V65.6c0-5.27-8.616-5.172-8.52 0v36.475H54.324V96.24h3.84V61.952h-4.967V57.09h11.199v3.808a13.735 13.735 0 014.71-3.823zm56.36 44.048a12.21 12.21 0 004.138.73H137v-5.593h-4.713a3.43 3.43 0 01-2.797-.909 3.422 3.422 0 01-1.062-2.739v-30.64h6.744v-4.863h-6.744V44.464h-7.791V91.75c.287 4.12 1.37 7.852 4.828 9.382l.002-.01zm-18.338-8.715c0 5.746-10.596 5.746-10.596 0V80.202h16.263c.77 0 1.023-.335 1.023-1.104v-12.35c.487-14.938-25.077-14.938-25.077-.385v25.76c0 14.553 26.036 14.935 25.077 0v-5.594h-6.686l-.004 5.878zM96.534 66.363c0-5.556 9.982-5.836 9.982-.287v8.047h-9.982v-7.76z" fill="#123"/><path d="M44.446 36h6.089v89h-6.09V36zM21.684 68.65c.095-5.648 9.853-5.743 9.853-.19v4.745h7.436v-4.457C39.933 53.81 14 53.81 14 68.363v25.76c0 14.553 25.932 14.935 24.973 0v-5.594h-7.436v5.883c0 5.746-9.853 5.746-9.853 0V68.65zm47.447-9.576a9.076 9.076 0 017.972-.287c3.458 1.532 4.849 5.173 4.849 9.195v30.257h4.871v5.836H74.402V67.6c0-5.27-8.62-5.172-8.525 0v36.475H54.342V98.24h3.84V63.952h-4.968V59.09h11.204v3.808a13.74 13.74 0 014.713-3.823zm56.383 44.048a9.959 9.959 0 003.936.73H137v-5.593h-4.664a3.433 3.433 0 01-2.798-.909 3.42 3.42 0 01-1.063-2.739v-30.64h6.576v-4.863h-6.576V46.464h-7.794v47.174c.288 4.12 1.17 7.962 4.628 9.484h.205zm-18.346-8.715c0 5.746-10.6 5.746-10.6 0V82.202h16.27c.77 0 1.023-.335 1.023-1.104v-12.35c.488-14.938-25.087-14.938-25.087-.385v25.76c0 14.553 26.047 14.935 25.087 0v-5.594h-6.688l-.005 5.878zm-10.6-26.044c0-5.556 9.986-5.836 9.986-.287v8.047h-9.986v-7.76z" fill="#FFF"/></g></svg>