<svg height="45" viewBox="0 0 270 45" width="270" xmlns="http://www.w3.org/2000/svg" xmlns:xlink="http://www.w3.org/1999/xlink">
  <radialGradient id="a" cx="16%" cy="14%" r="108%"><stop offset="0" stop-color="#f34"/><stop offset="1" stop-color="#600"/></radialGradient>
  <g fill="none" fill-rule="nonzero"><circle cx="23" cy="23" r="21.5" fill="url(#a)"/><path d="m14.2 9.9h1.3v25.1h-1.3zm-6.54825916 9.0617749c.02626209-1.5874543 2.76977546-1.695331 2.76977546-.1341881l.0271375 1.2910125h2.0440663v-1.1568244c.2687487-4.1975449-6.9927201-4.1975449-6.9927201-.1078767v7.2382653c0 4.0896681 7.2614688 4.1975449 6.9927201 0v-1.3725779h-2.1517409v1.6137657c0 1.3462665-2.68923836 1.6155198-2.68923836 0v-7.4250762zm12.04564776-1.608859s.3769818-.5120411 1.3194366-1.0504309c1.212479-.6736458 2.4240813 0 2.2355904-.0808023.9696325.4303604 1.4009699 1.4544427 1.4009699 2.6129028v8.6221402h1.3466145v1.6169257h-3.4480694v-10.2926414c0-1.4816696-2.4775602-1.4816696-2.4775602.0535755l.0534789 10.2654145h-3.2587018v-1.6696229h1.077467v-9.6189956h-1.3466145v-1.6441526h3.0973886zm15.8026114 8.7883781c.0800908 1.1594813.4274413 2.1844663 1.3902725 2.6160852-.1871688-.0808736.4814156.2426208 1.1500001.2426208h2.0597274v-1.5647284h-1.3101817c-.5615064 0-1.0707796-.2689926-1.1230128-1.0786077v-8.547988h1.9247918v-1.618351h-1.8716881v-3.2903249h-2.1668056zm-3.7890506-1.3685792v1.6114062c0 1.3442981-2.9590628 1.6131577-2.9590628 0v-3.465399h4.5454007c.2153638 0 .4027127-.1611406.4027127-.3765786l-.0525278-3.4653991c.1339458-4.2176805-7.0474722-4.2176805-7.0474722-.1068432v7.2268064c0 4.0836886 7.2619605 4.1914076 6.9931936 0v-1.4239927zm-2.9109494-5.8992064c0-1.5515755 2.7739535-1.5777256 2.7739535 0l.0260465 2.3264916h-2.8z" fill="#010101" fill-opacity=".75"/><path d="m14.2 10.3h1.3v25.1h-1.3zm-6.54825916 9.0617749c.02626209-1.5874543 2.76977546-1.695331 2.76977546-.1341881l.0271375 1.2910125h2.0440663v-1.1568244c.2687487-4.1975449-6.9927201-4.1975449-6.9927201-.1078767v7.2382653c0 4.0896681 7.2614688 4.1975449 6.9927201 0v-1.3725779h-2.1517409v1.6137657c0 1.3462665-2.68923836 1.6155198-2.68923836 0v-7.4250762zm12.04564776-1.608859s.3769818-.5120411 1.3194366-1.0504309c1.212479-.6736458 2.4240813 0 2.2355904-.0808023.9696325.4303604 1.4009699 1.4544427 1.4009699 2.6129028v8.6221402h1.3466145v1.6169257h-3.4480694v-10.2926414c0-1.4816696-2.4775602-1.4816696-2.4775602.0535755l.0534789 10.2654145h-3.2587018v-1.6696229h1.077467v-9.6189956h-1.3466145v-1.6441526h3.0973886zm15.8026114 8.7883781c.0800908 1.1594813.4274413 2.1844663 1.3902725 2.6160852-.1871688-.0808736.4814156.2426208 1.1500001.2426208h2.0597274v-1.5647284h-1.3101817c-.5615064 0-1.0707796-.2689926-1.1230128-1.0786077v-8.547988h1.9247918v-1.618351h-1.8716881v-3.2903249h-2.1668056zm-3.7890506-1.3685792v1.6114062c0 1.3442981-2.9590628 1.6131577-2.9590628 0v-3.465399h4.5454007c.2153638 0 .4027127-.1611406.4027127-.3765786l-.0525278-3.4653991c.1339458-4.2176805-7.0474722-4.2176805-7.0474722-.1068432v7.2268064c0 4.0836886 7.2619605 4.1914076 6.9931936 0v-1.4239927zm-2.9109494-5.8992064c0-1.5515755 2.7739535-1.5777256 2.7739535 0l.0260465 2.3264916h-2.8z" fill="#fff"/><path d="m46.7 36.7004733c0 .9995442-.7271999 1.7995267-1.8 1.7995267-1.0386 0-1.8-.7661438-1.8-1.7995267 0-.9995444.7614-1.7995269 1.8-1.7995269 1.0728001-.032971 1.8.7999825 1.8 1.7995269zm-3.2.0158691c0 .7727028.5878652 1.3836576 1.4175281 1.3836576.8988764 0 1.3824719-.57827 1.3824719-1.3836576 0-.7727028-.552809-1.4163424-1.3824719-1.4163424-.9330337 0-1.4175281.6763245-1.4175281 1.4163424zm.6-.9325343h.81125c.4235 0 .7406667.1352103.7406667.5090271.0034301.189574-.1272887.3571172-.3171667.4065148.1411667.068047.2475.1705595.2475.4754455 0 .1025124 0 .2721882.0348334.4073985h-.4235c-.0348334-.1016287-.0348334-.3048861-.0348334-.3729331 0-.2386065-.0705833-.3393514-.3171666-.3393514h-.2823334v.7122845h-.4583333zm.77.7803316c.176 0 .3171667-.0680471.3171667-.2377228 0-.1352104-.0705834-.2377228-.3171667-.2377228h-.3171667v.4754456z" fill="#000" fill-opacity=".9" opacity=".5"/><path d="m68.797 17.519h3.864c-1.008 4.011-3.738 5.985-8.253 5.985-2.562 0-4.578-.63-6.048-1.911-1.554-1.323-2.373-3.234-2.373-5.46 0-4.62 3.36-7.623 8.505-7.623 2.457 0 4.389.651 5.901 2.016 1.113.987 1.743 1.995 2.058 3.36h-3.78c-.714-1.764-2.1-2.646-4.179-2.646-2.814 0-4.788 1.995-4.788 4.83 0 2.772 1.932 4.704 4.704 4.704 2.247 0 3.57-.987 4.389-3.255zm12.544-5.805c2.068 0 3.894.616 5.17 1.716 1.188 1.056 1.782 2.442 1.782 4.246 0 3.41-2.86 5.764-6.996 5.764-4.202 0-6.996-2.332-6.996-5.874 0-3.52 2.794-5.852 7.04-5.852zm-.022 2.574c-1.936 0-3.278 1.342-3.278 3.278s1.342 3.3 3.256 3.3c1.87 0 3.256-1.364 3.256-3.234 0-1.98-1.32-3.344-3.234-3.344zm9.238 8.712v-10.846h3.476v1.32c1.496-1.232 2.64-1.694 4.224-1.694 1.496 0 2.882.528 3.74 1.452.836.88 1.1 1.804 1.1 3.784v5.984h-3.476v-5.742c0-1.1-.22-1.738-.77-2.222-.484-.418-1.166-.66-1.914-.66-1.804 0-2.904 1.122-2.904 2.97v5.654zm19.392-13.926v3.08h2.552v2.486h-2.552v4.532c0 .946.286 1.188 1.474 1.188h.99v2.64h-2.156c-1.76 0-2.64-.242-3.168-.858-.462-.528-.616-1.276-.616-3.014v-4.488h-1.562v-2.486h1.562v-3.08zm16.95 9.196h-9.68c.022 1.694 1.232 2.75 3.102 2.75 1.342 0 2.178-.462 2.596-1.452h3.85c-.352.99-.814 1.628-1.694 2.354-1.254 1.034-2.728 1.518-4.642 1.518-2.288 0-4.092-.616-5.214-1.76-.99-1.012-1.518-2.42-1.518-4.026 0-3.63 2.552-5.94 6.6-5.94 2.728 0 4.774 1.012 5.764 2.882.572 1.056.792 2.09.836 3.674zm-9.57-2.156h5.852c-.352-1.496-1.32-2.244-2.926-2.244s-2.596.748-2.926 2.244zm12.034 6.886v-10.846h3.476v1.32c1.496-1.232 2.64-1.694 4.224-1.694 1.496 0 2.882.528 3.74 1.452.836.88 1.1 1.804 1.1 3.784v5.984h-3.476v-5.742c0-1.1-.22-1.738-.77-2.222-.484-.418-1.166-.66-1.914-.66-1.804 0-2.904 1.122-2.904 2.97v5.654zm19.492-13.926v3.08h2.552v2.486h-2.552v4.532c0 .946.286 1.188 1.474 1.188h.99v2.64h-2.156c-1.76 0-2.64-.242-3.168-.858-.462-.528-.616-1.276-.616-3.014v-4.488h-1.562v-2.486h1.562v-3.08zm22.127 4.098h-3.696c-.252-.84-.546-1.26-1.176-1.596-.651-.336-1.428-.483-2.457-.483-2.079 0-3.318.63-3.318 1.68 0 .798.546 1.155 2.037 1.302l3.402.357c1.806.168 2.772.399 3.717.882 1.281.63 2.079 1.932 2.079 3.402 0 1.638-.966 3.108-2.541 3.864-1.344.651-2.919.924-5.187.924-2.856 0-4.872-.546-6.153-1.659-.987-.84-1.344-1.764-1.47-3.612h3.675c.105.924.357 1.407.924 1.848.777.588 1.743.84 3.192.84 2.289 0 3.612-.672 3.612-1.827 0-.924-.693-1.386-2.331-1.554l-3.948-.399c-3.066-.315-4.725-1.701-4.725-3.927 0-2.919 2.688-4.704 7.056-4.704 2.205 0 4.2.504 5.46 1.365 1.092.756 1.575 1.638 1.848 3.297zm9.278-1.458c2.068 0 3.894.616 5.17 1.716 1.188 1.056 1.782 2.442 1.782 4.246 0 3.41-2.86 5.764-6.996 5.764-4.202 0-6.996-2.332-6.996-5.874 0-3.52 2.794-5.852 7.04-5.852zm-.022 2.574c-1.936 0-3.278 1.342-3.278 3.278s1.342 3.3 3.256 3.3c1.87 0 3.256-1.364 3.256-3.234 0-1.98-1.32-3.344-3.234-3.344zm12.714-5.962v14.674h-3.476v-14.674zm15.432 3.828v10.846h-3.476v-1.32c-1.496 1.232-2.64 1.694-4.224 1.694-1.496 0-2.882-.528-3.74-1.452-.836-.88-1.1-1.804-1.1-3.784v-5.984h3.476v5.742c0 1.1.22 1.738.77 2.222.484.418 1.166.66 1.914.66 1.804 0 2.904-1.122 2.904-2.97v-5.654zm6.852-3.08v3.08h2.552v2.486h-2.552v4.532c0 .946.286 1.188 1.474 1.188h.99v2.64h-2.156c-1.76 0-2.64-.242-3.168-.858-.462-.528-.616-1.276-.616-3.014v-4.488h-1.562v-2.486h1.562v-3.08zm5.04 13.926v-10.846h3.476v10.846zm0-11.77v-2.904h3.476v2.904zm12.68.484c2.068 0 3.894.616 5.17 1.716 1.188 1.056 1.782 2.442 1.782 4.246 0 3.41-2.86 5.764-6.996 5.764-4.202 0-6.996-2.332-6.996-5.874 0-3.52 2.794-5.852 7.04-5.852zm-.022 2.574c-1.936 0-3.278 1.342-3.278 3.278s1.342 3.3 3.256 3.3c1.87 0 3.256-1.364 3.256-3.234 0-1.98-1.32-3.344-3.234-3.344zm9.038 8.712v-10.846h3.476v1.32c1.496-1.232 2.64-1.694 4.224-1.694 1.496 0 2.882.528 3.74 1.452.836.88 1.1 1.804 1.1 3.784v5.984h-3.476v-5.742c0-1.1-.22-1.738-.77-2.222-.484-.418-1.166-.66-1.914-.66-1.804 0-2.904 1.122-2.904 2.97v5.654zm26.88-7.634h-3.542c-.088-1.078-.792-1.496-2.552-1.496-1.672 0-2.486.374-2.486 1.144 0 .594.44.836 1.672.902 2.112.132 3.498.264 4.312.462 1.958.462 2.926 1.474 2.926 3.08 0 2.552-2.244 3.982-6.248 3.982-4.114 0-6.38-1.32-6.6-3.85h3.652c.11 1.166 1.012 1.694 2.86 1.694 1.76 0 2.816-.462 2.816-1.232 0-.704-.572-.924-2.662-1.078-2.398-.154-2.926-.22-3.894-.506-1.518-.418-2.354-1.474-2.354-2.926 0-2.42 2.2-3.828 6.006-3.828 2.376 0 4.07.528 5.17 1.584.528.528.792 1.122.924 2.068z" fill="#012" fill-opacity=".9"/><path d="m56.976 32.801h-1.118c.052-.741.195-1.183.507-1.534.403-.455 1.157-.715 2.041-.715 1.56 0 2.444.741 2.444 2.041v2.951c0 .494.065.598.338.598.104 0 .169-.013.312-.065v.923c-.286.065-.533.091-.78.091-.572 0-.832-.247-.936-.845-.637.637-1.326.923-2.171.923-1.222 0-2.054-.754-2.054-1.859 0-1.014.624-1.638 1.898-1.898l1.391-.273c.754-.143.91-.26.91-.65 0-.611-.533-.988-1.378-.988-.611 0-1.092.195-1.261.533-.091.169-.117.312-.143.767zm2.808 1.781v-.806c-.221.091-.429.156-.741.234l-1.222.286c-.728.169-1.053.468-1.053.962 0 .572.468.962 1.17.962 1.014 0 1.846-.741 1.846-1.638zm14.093428-3.186-1.116.108c-.24-1.056-1.044-1.692-2.148-1.692-1.536 0-2.544 1.248-2.544 3.132 0 1.932 1.008 3.24 2.508 3.24 1.248 0 2.112-.84 2.292-2.232h1.152c-.096.792-.276 1.296-.684 1.86-.66.912-1.584 1.368-2.784 1.368-1.188 0-2.136-.456-2.808-1.368-.576-.78-.876-1.752-.876-2.844 0-2.436 1.548-4.152 3.744-4.152 1.704 0 2.916.96 3.264 2.58zm1.646154 5.604v-8.004h3.096c1.044 0 1.56.108 2.052.444.54.348.828.924.828 1.62 0 .804-.348 1.344-1.128 1.74.936.348 1.368.936 1.368 1.896 0 .78-.336 1.452-.924 1.836-.528.348-1.14.468-2.352.468zm1.08-4.572h2.148c.564 0 .912-.096 1.176-.312s.408-.552.408-.912c0-.348-.156-.684-.408-.9-.264-.216-.612-.312-1.176-.312h-2.148zm0 3.576h2.328c1.02 0 1.644-.504 1.644-1.332 0-.84-.552-1.308-1.524-1.308h-2.448zm12.806154-4.536h-1.164c-.12-1.104-.78-1.644-1.992-1.644-1.068 0-1.752.456-1.752 1.152 0 .588.42.936 1.44 1.164l1.296.288c.948.216 1.428.42 1.812.768.42.372.648.912.648 1.536 0 1.512-1.224 2.448-3.168 2.448-2.076 0-3.324-1.056-3.492-2.976h1.188c.12 1.272.96 1.98 2.34 1.98 1.152 0 1.968-.564 1.968-1.368 0-.6-.432-.996-1.272-1.2l-1.8-.432c-1.464-.348-2.124-.996-2.124-2.076 0-1.404 1.164-2.292 3-2.292s2.82.852 3.072 2.652zm7.051077-2.472v8.004h-1.14v-8.004zm1.999308 1.725h1.144v.715c.624-.663 1.131-.884 1.989-.884.741 0 1.352.247 1.703.689.299.39.416.832.416 1.56v4.199h-1.196v-4.108c0-.858-.39-1.274-1.209-1.274-1.027 0-1.651.598-1.651 1.573v3.809h-1.196zm9.695857 0v.949h-1.131v3.939c0 .364.169.572.468.572.169 0 .338-.039.663-.169v.975c-.52.117-.715.143-1.001.143-.897 0-1.326-.481-1.326-1.521v-3.939h-.845v-.949h.845v-1.989h1.196v1.989zm6.640857 3.432h-4.576c.091 1.287.741 2.015 1.82 2.015.741 0 1.235-.351 1.521-1.092h1.144c-.299 1.313-1.3 2.093-2.691 2.093-1.768 0-2.99-1.352-2.99-3.315s1.196-3.302 2.951-3.302c1.248 0 2.158.663 2.574 1.872.156.468.234.975.247 1.729zm-4.563-.871h3.315c-.052-1.144-.624-1.781-1.573-1.781-.975 0-1.677.728-1.742 1.781zm6.172857-2.561h1.144v.988c.247-.364.351-.507.52-.663.286-.299.741-.494 1.118-.494.234 0 .455.052.663.156v1.079c-.247-.052-.377-.065-.546-.065-.962 0-1.703.858-1.703 1.976v3.302h-1.196zm5.743857 2.08h-1.118c.052-.741.195-1.183.507-1.534.403-.455 1.157-.715 2.041-.715 1.56 0 2.444.741 2.444 2.041v2.951c0 .494.065.598.338.598.104 0 .169-.013.312-.065v.923c-.286.065-.533.091-.78.091-.572 0-.832-.247-.936-.845-.637.637-1.326.923-2.171.923-1.222 0-2.054-.754-2.054-1.859 0-1.014.624-1.638 1.898-1.898l1.391-.273c.754-.143.91-.26.91-.65 0-.611-.533-.988-1.378-.988-.611 0-1.092.195-1.261.533-.091.169-.117.312-.143.767zm2.808 1.781v-.806c-.221.091-.429.156-.741.234l-1.222.286c-.728.169-1.053.468-1.053.962 0 .572.468.962 1.17.962 1.014 0 1.846-.741 1.846-1.638zm8.590857-1.729h-1.131c-.182-.858-.728-1.3-1.586-1.3-1.144 0-1.911.91-1.911 2.288 0 1.417.754 2.327 1.911 2.327.936 0 1.495-.507 1.664-1.521h1.131c-.169 1.599-1.196 2.522-2.821 2.522-1.872 0-3.094-1.313-3.094-3.315s1.235-3.302 3.133-3.302c1.534 0 2.535.845 2.704 2.301zm4.040857-2.132v.949h-1.131v3.939c0 .364.169.572.468.572.169 0 .338-.039.663-.169v.975c-.52.117-.715.143-1.001.143-.897 0-1.326-.481-1.326-1.521v-3.939h-.845v-.949h.845v-1.989h1.196v1.989zm2.545857 0v6.279h-1.196v-6.279zm0-2.392v1.391h-1.196v-1.391zm4.638857 8.671h-1.313l-2.158-6.279h1.274l1.066 3.367c.13.403.338 1.17.494 1.755.013-.091.039-.195.065-.26l.117-.468c.026-.104.234-.806.286-1.001l1.066-3.393h1.274zm8.668857-2.847h-4.576c.091 1.287.741 2.015 1.82 2.015.741 0 1.235-.351 1.521-1.092h1.144c-.299 1.313-1.3 2.093-2.691 2.093-1.768 0-2.99-1.352-2.99-3.315s1.196-3.302 2.951-3.302c1.248 0 2.158.663 2.574 1.872.156.468.234.975.247 1.729zm-4.563-.871h3.315c-.052-1.144-.624-1.781-1.573-1.781-.975 0-1.677.728-1.742 1.781zm10.451428 3.718v-8.671h1.196v3.107c.598-.611 1.209-.884 2.002-.884 1.625 0 2.704 1.3 2.704 3.276 0 2.054-1.066 3.341-2.743 3.341-.806 0-1.365-.247-1.963-.871v.702zm2.925-5.447c-1.118 0-1.768.832-1.768 2.275 0 1.508.624 2.34 1.768 2.34 1.131 0 1.768-.832 1.768-2.314 0-1.469-.637-2.301-1.768-2.301zm9.851857 5.447h-1.144v-.715c-.624.663-1.131.884-1.989.884-.741 0-1.352-.247-1.703-.689-.299-.39-.416-.832-.416-1.56v-4.199h1.196v4.108c0 .858.39 1.274 1.209 1.274 1.027 0 1.651-.598 1.651-1.573v-3.809h1.196zm6.705857-4.355h-1.144c-.169-.78-.598-1.105-1.43-1.105-.715 0-1.196.299-1.196.741 0 .312.221.52.728.65l1.456.377c1.313.338 1.859.884 1.859 1.846 0 1.235-1.014 2.015-2.613 2.015-1.703 0-2.717-.832-2.847-2.327h1.183c.065.832.689 1.326 1.69 1.326.858 0 1.417-.377 1.417-.962 0-.416-.273-.637-1.001-.832l-1.248-.312c-.663-.169-1.066-.351-1.326-.585-.286-.247-.468-.663-.468-1.079 0-1.079 1.001-1.846 2.418-1.846.897 0 1.638.299 2.08.832.273.338.39.676.442 1.261zm2.948857-1.924v6.279h-1.196v-6.279zm0-2.392v1.391h-1.196v-1.391zm1.934857 2.392h1.144v.715c.624-.663 1.131-.884 1.989-.884.741 0 1.352.247 1.703.689.299.39.416.832.416 1.56v4.199h-1.196v-4.108c0-.858-.39-1.274-1.209-1.274-1.027 0-1.651.598-1.651 1.573v3.809h-1.196zm12.659857 3.432h-4.576c.091 1.287.741 2.015 1.82 2.015.741 0 1.235-.351 1.521-1.092h1.144c-.299 1.313-1.3 2.093-2.691 2.093-1.768 0-2.99-1.352-2.99-3.315s1.196-3.302 2.951-3.302c1.248 0 2.158.663 2.574 1.872.156.468.234.975.247 1.729zm-4.563-.871h3.315c-.052-1.144-.624-1.781-1.573-1.781-.975 0-1.677.728-1.742 1.781zm10.930857-.637h-1.144c-.169-.78-.598-1.105-1.43-1.105-.715 0-1.196.299-1.196.741 0 .312.221.52.728.65l1.456.377c1.313.338 1.859.884 1.859 1.846 0 1.235-1.014 2.015-2.613 2.015-1.703 0-2.717-.832-2.847-2.327h1.183c.065.832.689 1.326 1.69 1.326.858 0 1.417-.377 1.417-.962 0-.416-.273-.637-1.001-.832l-1.248-.312c-.663-.169-1.066-.351-1.326-.585-.286-.247-.468-.663-.468-1.079 0-1.079 1.001-1.846 2.418-1.846.897 0 1.638.299 2.08.832.273.338.39.676.442 1.261zm6.614857 0h-1.144c-.169-.78-.598-1.105-1.43-1.105-.715 0-1.196.299-1.196.741 0 .312.221.52.728.65l1.456.377c1.313.338 1.859.884 1.859 1.846 0 1.235-1.014 2.015-2.613 2.015-1.703 0-2.717-.832-2.847-2.327h1.183c.065.832.689 1.326 1.69 1.326.858 0 1.417-.377 1.417-.962 0-.416-.273-.637-1.001-.832l-1.248-.312c-.663-.169-1.066-.351-1.326-.585-.286-.247-.468-.663-.468-1.079 0-1.079 1.001-1.846 2.418-1.846.897 0 1.638.299 2.08.832.273.338.39.676.442 1.261z" fill="#000" fill-opacity=".5"/></g>
</svg>
