<svg id="branding" data-name="logo" xmlns="http://www.w3.org/2000/svg" xmlns:xlink="http://www.w3.org/1999/xlink" width="264" height="45" viewBox="0 0 264 45">
  <defs>
    <radialGradient id="radial-gradient" cx="0.1" cy="0.1" r="1.0" gradientTransform="translate(0) scale(1)" gradientUnits="objectBoundingBox">
      <stop offset="0" stop-color="#f34"/>
      <stop offset="1" stop-color="#601"/>
    </radialGradient>
  </defs>
  <g id="label" transform="translate(56 8)">
    <path id="descriptor" transform="translate(0 27)" fill="#9bd" opacity=".8" d="M1.824-3.876a1.525,1.525,0,0,1,.132-.708A1.253,1.253,0,0,1,3.12-5.076c.78,0,1.272.348,1.272.912,0,.36-.144.468-.84.6l-1.284.252C1.092-3.072.516-2.5.516-1.56A1.722,1.722,0,0,0,2.412.156a2.68,2.68,0,0,0,2-.852c.1.552.336.78.864.78A3.164,3.164,0,0,0,6,0V-.852a.726.726,0,0,1-.288.06c-.252,0-.312-.1-.312-.552V-4.068c0-1.2-.816-1.884-2.256-1.884a2.522,2.522,0,0,0-1.884.66A2.2,2.2,0,0,0,.792-3.876ZM4.416-2.232A1.625,1.625,0,0,1,2.712-.72c-.648,0-1.08-.36-1.08-.888,0-.456.3-.732.972-.888L3.732-2.76a4.645,4.645,0,0,0,.684-.216Zm12.529-2.9A2.867,2.867,0,0,0,13.953-7.5,3.484,3.484,0,0,0,10.521-3.7a4.319,4.319,0,0,0,.8,2.607A3.029,3.029,0,0,0,13.9.165,2.963,2.963,0,0,0,16.45-1.089a3.289,3.289,0,0,0,.627-1.705H16.021a2.091,2.091,0,0,1-2.1,2.046c-1.375,0-2.3-1.2-2.3-2.97,0-1.727.924-2.871,2.332-2.871a1.909,1.909,0,0,1,1.969,1.551ZM18.32,0h2.695a3.657,3.657,0,0,0,2.156-.429,1.955,1.955,0,0,0,.847-1.683A1.687,1.687,0,0,0,22.764-3.85a1.649,1.649,0,0,0,1.034-1.6,1.691,1.691,0,0,0-.759-1.485,3.022,3.022,0,0,0-1.881-.407H18.32Zm.99-4.191V-6.424h1.969a1.6,1.6,0,0,1,1.078.286,1.1,1.1,0,0,1,.374.825,1.069,1.069,0,0,1-.374.836,1.6,1.6,0,0,1-1.078.286Zm0,3.278v-2.42h2.244c.891,0,1.4.429,1.4,1.2S22.379-.913,21.444-.913ZM30.915-5.071A2.511,2.511,0,0,0,28.1-7.5c-1.683,0-2.75.814-2.75,2.1,0,.99.605,1.584,1.947,1.9l1.65.4c.77.187,1.166.55,1.166,1.1,0,.737-.748,1.254-1.8,1.254a1.914,1.914,0,0,1-2.145-1.815H25.074c.154,1.76,1.3,2.728,3.2,2.728,1.782,0,2.9-.858,2.9-2.244a1.833,1.833,0,0,0-.594-1.408,3.417,3.417,0,0,0-1.661-.7l-1.188-.264c-.935-.209-1.32-.528-1.32-1.067,0-.638.627-1.056,1.606-1.056a1.582,1.582,0,0,1,1.826,1.507Zm6.072-2.266H35.942V0h1.045ZM38.649-5.8V0h1.1V-3.516a1.376,1.376,0,0,1,1.524-1.452c.756,0,1.116.384,1.116,1.176V0h1.1V-3.876a2.171,2.171,0,0,0-.384-1.44,1.953,1.953,0,0,0-1.572-.636,2.2,2.2,0,0,0-1.836.816V-5.8Zm8.772,0H46.377V-7.632h-1.1V-5.8h-.78v.876h.78v3.636c0,.96.4,1.4,1.224,1.4a3.689,3.689,0,0,0,.924-.132v-.9a1.6,1.6,0,0,1-.612.156c-.276,0-.432-.192-.432-.528V-4.92h1.044Zm5.952,3.168a5.124,5.124,0,0,0-.228-1.6,2.378,2.378,0,0,0-2.376-1.728A2.755,2.755,0,0,0,48.045-2.9a2.785,2.785,0,0,0,2.76,3.06,2.39,2.39,0,0,0,2.484-1.932H52.233a1.393,1.393,0,0,1-1.4,1.008c-1,0-1.6-.672-1.68-1.86Zm-4.212-.8a1.616,1.616,0,0,1,1.608-1.644c.876,0,1.4.588,1.452,1.644ZM54.681-5.8V0h1.1V-3.048a1.684,1.684,0,0,1,1.572-1.824,2.172,2.172,0,0,1,.5.06v-1a1.35,1.35,0,0,0-.612-.144,1.535,1.535,0,0,0-1.032.456,3.157,3.157,0,0,0-.48.612V-5.8Zm5.124,1.92a1.525,1.525,0,0,1,.132-.708A1.253,1.253,0,0,1,61.1-5.076c.78,0,1.272.348,1.272.912,0,.36-.144.468-.84.6l-1.284.252C59.073-3.072,58.5-2.5,58.5-1.56a1.722,1.722,0,0,0,1.9,1.716,2.68,2.68,0,0,0,2-.852c.1.552.336.78.864.78A3.164,3.164,0,0,0,63.981,0V-.852a.726.726,0,0,1-.288.06c-.252,0-.312-.1-.312-.552V-4.068c0-1.2-.816-1.884-2.256-1.884a2.522,2.522,0,0,0-1.884.66,2.2,2.2,0,0,0-.468,1.416ZM62.4-2.232a1.625,1.625,0,0,1-1.7,1.512c-.648,0-1.08-.36-1.08-.888,0-.456.3-.732.972-.888l1.128-.264a4.645,4.645,0,0,0,.684-.216Zm7.752-1.6a2.29,2.29,0,0,0-2.5-2.124A2.79,2.79,0,0,0,64.761-2.9,2.785,2.785,0,0,0,67.617.156a2.412,2.412,0,0,0,2.6-2.328H69.177a1.453,1.453,0,0,1-1.536,1.4c-1.068,0-1.764-.84-1.764-2.148,0-1.272.708-2.112,1.764-2.112a1.374,1.374,0,0,1,1.464,1.2ZM73.7-5.8H72.657V-7.632h-1.1V-5.8h-.78v.876h.78v3.636c0,.96.4,1.4,1.224,1.4A3.689,3.689,0,0,0,73.7-.012v-.9a1.6,1.6,0,0,1-.612.156c-.276,0-.432-.192-.432-.528V-4.92H73.7Zm2.172,0h-1.1V0h1.1Zm0-2.208h-1.1V-6.72h1.1Zm4.1,8,2-5.8H80.805l-.984,3.132c-.048.18-.24.828-.264.924l-.108.432a1.167,1.167,0,0,0-.06.24c-.144-.54-.336-1.248-.456-1.62L77.949-5.8H76.773L78.765,0ZM87.8-2.628a5.123,5.123,0,0,0-.228-1.6A2.378,2.378,0,0,0,85.2-5.952,2.755,2.755,0,0,0,82.473-2.9a2.785,2.785,0,0,0,2.76,3.06,2.39,2.39,0,0,0,2.484-1.932H86.661a1.393,1.393,0,0,1-1.4,1.008c-1,0-1.6-.672-1.68-1.86Zm-4.212-.8A1.616,1.616,0,0,1,85.2-5.076c.876,0,1.4.588,1.452,1.644ZM92.805,0h1.1V-.648a2.28,2.28,0,0,0,1.812.8c1.548,0,2.532-1.188,2.532-3.084,0-1.824-1-3.024-2.5-3.024a2.42,2.42,0,0,0-1.848.816V-8h-1.1Zm2.7-5.028c1.044,0,1.632.768,1.632,2.124S96.549-.768,95.5-.768s-1.632-.768-1.632-2.16C93.873-4.26,94.473-5.028,95.5-5.028ZM104.421,0V-5.8h-1.1V-2.28a1.376,1.376,0,0,1-1.524,1.452c-.756,0-1.116-.384-1.116-1.176V-5.8h-1.1V-1.92a2.171,2.171,0,0,0,.384,1.44,1.953,1.953,0,0,0,1.572.636,2.2,2.2,0,0,0,1.836-.816V0Zm6.012-4.02a1.928,1.928,0,0,0-.408-1.164,2.429,2.429,0,0,0-1.92-.768c-1.308,0-2.232.708-2.232,1.7a1.347,1.347,0,0,0,.432,1,2.859,2.859,0,0,0,1.224.54l1.152.288c.672.18.924.384.924.768,0,.54-.516.888-1.308.888-.924,0-1.5-.456-1.56-1.224h-1.092c.12,1.38,1.056,2.148,2.628,2.148,1.476,0,2.412-.72,2.412-1.86,0-.888-.5-1.392-1.716-1.7l-1.344-.348c-.468-.12-.672-.312-.672-.6,0-.408.444-.684,1.1-.684a1.159,1.159,0,0,1,1.32,1.02ZM112.977-5.8h-1.1V0h1.1Zm0-2.208h-1.1V-6.72h1.1ZM114.585-5.8V0h1.1V-3.516a1.376,1.376,0,0,1,1.524-1.452c.756,0,1.116.384,1.116,1.176V0h1.1V-3.876a2.171,2.171,0,0,0-.384-1.44,1.953,1.953,0,0,0-1.572-.636,2.2,2.2,0,0,0-1.836.816V-5.8Zm11.508,3.168a5.123,5.123,0,0,0-.228-1.6,2.378,2.378,0,0,0-2.376-1.728A2.755,2.755,0,0,0,120.765-2.9a2.785,2.785,0,0,0,2.76,3.06,2.39,2.39,0,0,0,2.484-1.932h-1.056a1.393,1.393,0,0,1-1.4,1.008c-1,0-1.6-.672-1.68-1.86Zm-4.212-.8a1.616,1.616,0,0,1,1.608-1.644c.876,0,1.4.588,1.452,1.644Zm9.912-.588a1.929,1.929,0,0,0-.408-1.164,2.429,2.429,0,0,0-1.92-.768c-1.308,0-2.232.708-2.232,1.7a1.347,1.347,0,0,0,.432,1,2.859,2.859,0,0,0,1.224.54l1.152.288c.672.18.924.384.924.768,0,.54-.516.888-1.308.888-.924,0-1.5-.456-1.56-1.224H127c.12,1.38,1.056,2.148,2.628,2.148,1.476,0,2.412-.72,2.412-1.86,0-.888-.5-1.392-1.716-1.7l-1.344-.348c-.468-.12-.672-.312-.672-.6,0-.408.444-.684,1.1-.684a1.159,1.159,0,0,1,1.32,1.02Zm5.928,0a1.929,1.929,0,0,0-.408-1.164,2.429,2.429,0,0,0-1.92-.768c-1.308,0-2.232.708-2.232,1.7a1.347,1.347,0,0,0,.432,1,2.859,2.859,0,0,0,1.224.54l1.152.288c.672.18.924.384.924.768,0,.54-.516.888-1.308.888-.924,0-1.5-.456-1.56-1.224h-1.092c.12,1.38,1.056,2.148,2.628,2.148,1.476,0,2.412-.72,2.412-1.86,0-.888-.5-1.392-1.716-1.7l-1.344-.348c-.468-.12-.672-.312-.672-.6,0-.408.444-.684,1.1-.684a1.159,1.159,0,0,1,1.32,1.02Z"/>
    <path id="wordmark" transform="translate(0 14)" fill="white" d="M13.14-5.22c-.78,2.16-2.04,3.1-4.18,3.1A4.284,4.284,0,0,1,4.48-6.6a4.389,4.389,0,0,1,4.56-4.6,3.891,3.891,0,0,1,3.98,2.52h3.6a5.769,5.769,0,0,0-1.96-3.2A7.993,7.993,0,0,0,9.04-13.8c-4.9,0-8.1,2.86-8.1,7.26A6.618,6.618,0,0,0,3.2-1.34,8.468,8.468,0,0,0,8.96.48c4.3,0,6.9-1.88,7.86-5.7Zm11.644-5.553c-4.053,0-6.72,2.226-6.72,5.586,0,3.381,2.667,5.607,6.678,5.607,3.948,0,6.678-2.247,6.678-5.5a5.113,5.113,0,0,0-1.7-4.053A7.51,7.51,0,0,0,24.784-10.773Zm-.021,2.457A2.994,2.994,0,0,1,27.85-5.124a3.007,3.007,0,0,1-3.108,3.087,3,3,0,0,1-3.108-3.15A2.988,2.988,0,0,1,24.763-8.316ZM33.436,0h3.318V-5.4a2.588,2.588,0,0,1,2.772-2.835,2.792,2.792,0,0,1,1.827.63,2.532,2.532,0,0,1,.735,2.121V0h3.318V-5.712c0-1.89-.252-2.772-1.05-3.612a4.874,4.874,0,0,0-3.57-1.386,5.793,5.793,0,0,0-4.032,1.617v-1.26H33.436Zm18.27-13.293H48.388v2.94H46.9V-7.98h1.491V-3.7C48.346-.693,49.018,0,52,0h2.058V-2.52h-.945c-1.092.021-1.407-.231-1.407-1.134V-7.98h2.436v-2.373H51.706Zm16,8.778a7.217,7.217,0,0,0-.8-3.507c-.945-1.785-2.9-2.751-5.5-2.751-3.864,0-6.3,2.205-6.3,5.67A5.383,5.383,0,0,0,56.557-1.26,6.813,6.813,0,0,0,61.534.42a6.588,6.588,0,0,0,4.431-1.449,4.694,4.694,0,0,0,1.617-2.247H63.907A2.365,2.365,0,0,1,61.429-1.89c-1.785,0-2.94-1.008-2.961-2.625ZM58.573-6.573a2.554,2.554,0,0,1,2.793-2.142,2.567,2.567,0,0,1,2.793,2.142ZM69.724,0h3.318V-5.4a2.588,2.588,0,0,1,2.772-2.835,2.792,2.792,0,0,1,1.827.63,2.532,2.532,0,0,1,.735,2.121V0h3.318V-5.712c0-1.89-.252-2.772-1.05-3.612a4.874,4.874,0,0,0-3.57-1.386,5.793,5.793,0,0,0-4.032,1.617v-1.26H69.724Zm18.27-13.293H84.676v2.94H83.185V-7.98h1.491V-3.7c-.042,3,.63,3.7,3.612,3.7h2.058V-2.52H89.4c-1.092.021-1.407-.231-1.407-1.134V-7.98H90.43v-2.373H87.994ZM111.945-9.36a4.109,4.109,0,0,0-1.76-3.14,9.556,9.556,0,0,0-5.2-1.3c-4.16,0-6.72,1.7-6.72,4.48,0,2.12,1.58,3.44,4.5,3.74l3.76.38c1.56.16,2.22.6,2.22,1.48,0,1.1-1.26,1.74-3.44,1.74a4.751,4.751,0,0,1-3.04-.8,2.253,2.253,0,0,1-.88-1.76h-3.5c.12,1.76.46,2.64,1.4,3.44,1.22,1.06,3.14,1.58,5.86,1.58a10.981,10.981,0,0,0,4.94-.88,4.091,4.091,0,0,0,2.42-3.68,3.569,3.569,0,0,0-1.98-3.24,9.057,9.057,0,0,0-3.54-.84l-3.24-.34c-1.42-.14-1.94-.48-1.94-1.24,0-1,1.18-1.6,3.16-1.6a4.976,4.976,0,0,1,2.34.46,2.167,2.167,0,0,1,1.12,1.52Zm8.724-1.413c-4.053,0-6.72,2.226-6.72,5.586,0,3.381,2.667,5.607,6.678,5.607,3.948,0,6.678-2.247,6.678-5.5a5.113,5.113,0,0,0-1.7-4.053A7.51,7.51,0,0,0,120.669-10.773Zm-.021,2.457a2.994,2.994,0,0,1,3.087,3.192,3.007,3.007,0,0,1-3.108,3.087,3,3,0,0,1-3.108-3.15A2.988,2.988,0,0,1,120.648-8.316Zm11.991-5.691h-3.318V0h3.318Zm14.49,3.654h-3.318v5.4a2.588,2.588,0,0,1-2.772,2.835,2.792,2.792,0,0,1-1.827-.63,2.532,2.532,0,0,1-.735-2.121v-5.481h-3.318v5.712c0,1.89.252,2.772,1.05,3.612a4.874,4.874,0,0,0,3.57,1.386,5.793,5.793,0,0,0,4.032-1.617V0h3.318Zm6.3-2.94h-3.318v2.94H148.62V-7.98h1.491V-3.7c-.042,3,.63,3.7,3.612,3.7h2.058V-2.52h-.945c-1.092.021-1.407-.231-1.407-1.134V-7.98h2.436v-2.373h-2.436ZM157.671,0h3.318V-10.353h-3.318Zm0-11.235h3.318v-2.772h-3.318Zm12.054.462c-4.053,0-6.72,2.226-6.72,5.586C163-1.806,165.672.42,169.683.42c3.948,0,6.678-2.247,6.678-5.5a5.113,5.113,0,0,0-1.7-4.053A7.51,7.51,0,0,0,169.725-10.773ZM169.7-8.316a2.994,2.994,0,0,1,3.087,3.192,3.007,3.007,0,0,1-3.108,3.087,3,3,0,0,1-3.108-3.15A2.988,2.988,0,0,1,169.7-8.316ZM178.377,0H181.7V-5.4a2.588,2.588,0,0,1,2.772-2.835,2.792,2.792,0,0,1,1.827.63,2.532,2.532,0,0,1,.735,2.121V0h3.318V-5.712c0-1.89-.252-2.772-1.05-3.612a4.874,4.874,0,0,0-3.57-1.386A5.793,5.793,0,0,0,181.7-9.093v-1.26h-3.318Zm25.7-7.287a3.148,3.148,0,0,0-.882-1.974c-1.05-1.008-2.667-1.512-4.935-1.512-3.633,0-5.733,1.344-5.733,3.654a2.777,2.777,0,0,0,2.247,2.793,14.517,14.517,0,0,0,3.717.483c1.995.147,2.541.357,2.541,1.029,0,.735-1.008,1.176-2.688,1.176-1.764,0-2.625-.5-2.73-1.617h-3.486C192.342-.84,194.5.42,198.432.42c3.822,0,5.964-1.365,5.964-3.8,0-1.533-.924-2.5-2.793-2.94a27.941,27.941,0,0,0-4.116-.441c-1.176-.063-1.6-.294-1.6-.861,0-.735.777-1.092,2.373-1.092,1.68,0,2.352.4,2.436,1.428Z"/>
  </g>
  <g id="mark" transform="translate(2 0)">
    <circle id="circle" cx="22.5" cy="22.5" r="22.5" fill="url(#radial-gradient)"/>
    <path id="registration" transform="translate(39.3 34.3)" fill="#012" d="M5,7.28a2.238,2.238,0,0,1-1.15-.31,2.307,2.307,0,0,1-.84-.84,2.288,2.288,0,0,1,0-2.3,2.307,2.307,0,0,1,.84-.84,2.288,2.288,0,0,1,2.3,0,2.307,2.307,0,0,1,.84.84,2.288,2.288,0,0,1,0,2.3,2.307,2.307,0,0,1-.84.84A2.238,2.238,0,0,1,5,7.28ZM5,6.8a1.767,1.767,0,0,0,.915-.245,1.83,1.83,0,0,0,.66-.665,1.822,1.822,0,0,0,0-1.825,1.842,1.842,0,0,0-.66-.66,1.822,1.822,0,0,0-1.825,0,1.83,1.83,0,0,0-.665.66,1.767,1.767,0,0,0-.245.915,1.722,1.722,0,0,0,.25.9A1.924,1.924,0,0,0,4.1,6.55,1.722,1.722,0,0,0,5,6.8ZM4.23,3.85h.96a.716.716,0,0,1,.51.21.679.679,0,0,1,.22.51.656.656,0,0,1-.145.415.683.683,0,0,1-.355.245l-.02.02.6.84v.02H5.48l-.55-.84H4.69v.84H4.23Zm.92,1a.319.319,0,0,0,.22-.08.257.257,0,0,0,.09-.2.268.268,0,0,0-.085-.2A.291.291,0,0,0,5.16,4.29H4.69v.56Z"/>
    <path id="shadow" transform="translate(-1 48)" fill="#123" d="M14.319-38.649h1.758v25.734H14.319ZM7.748-29.208c.027-1.634,2.844-1.661,2.844-.055v1.372h2.147V-29.18C13.016-33.5,5.53-33.5,5.53-29.291v7.448c0,4.208,7.486,4.318,7.209,0v-1.619H10.592v1.7c0,1.662-2.844,1.662-2.844,0v-7.447Zm13.7-2.769a2.616,2.616,0,0,1,2.3-.083,2.694,2.694,0,0,1,1.4,2.659v8.749h1.406v1.691H22.967v-10.55a1.235,1.235,0,0,0-2.461,0v10.55H17.176v-1.687h1.109v-9.914H16.85v-1.406h3.237v1.1A3.968,3.968,0,0,1,21.446-31.977ZM37.722-19.241a3.522,3.522,0,0,0,1.192.209H41.05v-1.617H39.691A.99.99,0,0,1,38.577-21.7v-8.858h1.946v-1.406H38.577v-3.656h-2.25v13.672c.083,1.191.4,2.271,1.394,2.713Zm-5.3-2.52c0,1.662-3.06,1.662-3.06,0V-25.29h4.7c.222,0,.3-.1.3-.319V-29.18c.138-4.319-7.242-4.319-7.242-.111v7.448c0,4.208,7.519,4.318,7.242,0v-1.619H32.427Zm-3.06-7.53c0-1.606,2.883-1.689,2.883-.083v2.327H29.366Z"/>
    <path id="characters" transform="translate(-1 48.5)" fill="white" d="M14.319-38.649h1.758v25.734H14.319ZM7.748-29.208c.027-1.634,2.844-1.661,2.844-.055v1.372h2.147V-29.18C13.016-33.5,5.53-33.5,5.53-29.291v7.448c0,4.208,7.486,4.318,7.209,0v-1.619H10.592v1.7c0,1.662-2.844,1.662-2.844,0v-7.447Zm13.7-2.769a2.616,2.616,0,0,1,2.3-.083,2.694,2.694,0,0,1,1.4,2.659v8.749h1.406v1.691H22.967v-10.55a1.235,1.235,0,0,0-2.461,0v10.55H17.176v-1.687h1.109v-9.914H16.85v-1.406h3.237v1.1A3.968,3.968,0,0,1,21.446-31.977ZM37.722-19.241a2.871,2.871,0,0,0,1.136.209h2.18v-1.617H39.691A.99.99,0,0,1,38.577-21.7v-8.858h1.9v-1.406h-1.9v-3.656h-2.25v13.641c.083,1.191.338,2.3,1.336,2.744Zm-5.3-2.52c0,1.662-3.06,1.662-3.06,0V-25.29h4.7c.222,0,.3-.1.3-.319V-29.18c.138-4.319-7.242-4.319-7.242-.111v7.448c0,4.208,7.519,4.318,7.242,0v-1.619H32.427Zm-3.06-7.53c0-1.606,2.883-1.689,2.883-.083v2.327H29.366Z"/>
  </g>
</svg>
