<svg height="45" viewBox="0 0 270 45" width="270" xmlns="http://www.w3.org/2000/svg"><radialGradient id="a" cx="16%" cy="14%" r="108%"><stop offset="0" stop-color="#f34"/><stop offset="1" stop-color="#600"/></radialGradient><g fill="none"><circle cx="23" cy="23" r="21.5" fill="url(#a)"/><path d="M14.2 9.9h1.3V35h-1.3zm-6.548 9.062c.026-1.588 2.77-1.696 2.77-.134l.027 1.29h2.044v-1.156c.268-4.198-6.993-4.198-6.993-.108v7.238c0 4.09 7.261 4.198 6.993 0V24.72H10.34v1.613c0 1.347-2.69 1.616-2.69 0v-7.425zm12.045-1.61s.377-.511 1.32-1.05c1.212-.673 2.424 0 2.235-.08.97.43 1.401 1.454 1.401 2.613v8.622H26v1.617h-3.448V18.78c0-1.482-2.478-1.482-2.478.054l.054 10.265h-3.259v-1.67h1.078v-9.619H16.6v-1.644h3.097zm15.803 8.79c.08 1.159.427 2.184 1.39 2.615-.187-.08.482.243 1.15.243h2.06v-1.565h-1.31c-.562 0-1.071-.269-1.123-1.078v-8.548h1.925V16.19H37.72V12.9h-2.167zm-3.79-1.37v1.612c0 1.344-2.958 1.613-2.958 0V22.92h4.545c.216 0 .403-.161.403-.377l-.053-3.465c.134-4.218-7.047-4.218-7.047-.107v7.227c0 4.083 7.262 4.191 6.993 0v-1.424zm-2.91-5.898c0-1.552 2.774-1.578 2.774 0L31.6 21.2h-2.8z" fill="#010101" fill-opacity=".75"/><path d="M14.2 10.3h1.3v25.1h-1.3zm-6.548 9.062c.026-1.588 2.77-1.696 2.77-.134l.027 1.29h2.044v-1.156c.268-4.198-6.993-4.198-6.993-.108v7.238c0 4.09 7.261 4.198 6.993 0V25.12H10.34v1.613c0 1.347-2.69 1.616-2.69 0v-7.425zm12.045-1.61s.377-.511 1.32-1.05c1.212-.673 2.424 0 2.235-.08.97.43 1.401 1.454 1.401 2.613v8.622H26v1.617h-3.448V19.18c0-1.482-2.478-1.482-2.478.054l.054 10.265h-3.259v-1.67h1.078v-9.619H16.6v-1.644h3.097zm15.803 8.79c.08 1.159.427 2.184 1.39 2.615-.187-.08.482.243 1.15.243h2.06v-1.565h-1.31c-.562 0-1.071-.269-1.123-1.078v-8.548h1.925V16.59H37.72V13.3h-2.167zm-3.79-1.37v1.612c0 1.344-2.958 1.613-2.958 0V23.32h4.545c.216 0 .403-.161.403-.377l-.053-3.465c.134-4.218-7.047-4.218-7.047-.107v7.227c0 4.083 7.262 4.191 6.993 0v-1.424zm-2.91-5.898c0-1.552 2.774-1.578 2.774 0L31.6 21.6h-2.8z" fill="#fff"/><path d="M46.7 36.7c0 1-.727 1.8-1.8 1.8-1.039 0-1.8-.766-1.8-1.8 0-1 .761-1.8 1.8-1.8 1.073-.032 1.8.8 1.8 1.8zm-3.2.016c0 .773.588 1.384 1.418 1.384.898 0 1.382-.578 1.382-1.384 0-.772-.553-1.416-1.382-1.416-.934 0-1.418.676-1.418 1.416zm.6-.932h.811c.424 0 .74.135.74.509a.416.416 0 01-.316.406c.14.068.247.17.247.476 0 .102 0 .272.035.407h-.423c-.035-.101-.035-.305-.035-.373 0-.238-.07-.34-.317-.34h-.283v.713h-.458zm.77.78c.176 0 .317-.068.317-.238 0-.135-.07-.237-.317-.237h-.317v.475z" fill="#000" fill-opacity=".9" opacity=".5"/><path d="M68.797 17.519h3.864c-1.008 4.011-3.738 5.985-8.253 5.985-2.562 0-4.578-.63-6.048-1.911-1.554-1.323-2.373-3.234-2.373-5.46 0-4.62 3.36-7.623 8.505-7.623 2.457 0 4.389.651 5.901 2.016 1.113.987 1.743 1.995 2.058 3.36h-3.78c-.714-1.764-2.1-2.646-4.179-2.646-2.814 0-4.788 1.995-4.788 4.83 0 2.772 1.932 4.704 4.704 4.704 2.247 0 3.57-.987 4.389-3.255zm12.544-5.805c2.068 0 3.894.616 5.17 1.716 1.188 1.056 1.782 2.442 1.782 4.246 0 3.41-2.86 5.764-6.996 5.764-4.202 0-6.996-2.332-6.996-5.874 0-3.52 2.794-5.852 7.04-5.852zm-.022 2.574c-1.936 0-3.278 1.342-3.278 3.278s1.342 3.3 3.256 3.3c1.87 0 3.256-1.364 3.256-3.234 0-1.98-1.32-3.344-3.234-3.344zM90.557 23V12.154h3.476v1.32c1.496-1.232 2.64-1.694 4.224-1.694 1.496 0 2.882.528 3.74 1.452.836.88 1.1 1.804 1.1 3.784V23h-3.476v-5.742c0-1.1-.22-1.738-.77-2.222-.484-.418-1.166-.66-1.914-.66-1.804 0-2.904 1.122-2.904 2.97V23zm19.392-13.926v3.08h2.552v2.486h-2.552v4.532c0 .946.286 1.188 1.474 1.188h.99V23h-2.156c-1.76 0-2.64-.242-3.168-.858-.462-.528-.616-1.276-.616-3.014V14.64h-1.562v-2.486h1.562v-3.08zm16.95 9.196h-9.68c.022 1.694 1.232 2.75 3.102 2.75 1.342 0 2.178-.462 2.596-1.452h3.85c-.352.99-.814 1.628-1.694 2.354-1.254 1.034-2.728 1.518-4.642 1.518-2.288 0-4.092-.616-5.214-1.76-.99-1.012-1.518-2.42-1.518-4.026 0-3.63 2.552-5.94 6.6-5.94 2.728 0 4.774 1.012 5.764 2.882.572 1.056.792 2.09.836 3.674zm-9.57-2.156h5.852c-.352-1.496-1.32-2.244-2.926-2.244s-2.596.748-2.926 2.244zM129.363 23V12.154h3.476v1.32c1.496-1.232 2.64-1.694 4.224-1.694 1.496 0 2.882.528 3.74 1.452.836.88 1.1 1.804 1.1 3.784V23h-3.476v-5.742c0-1.1-.22-1.738-.77-2.222-.484-.418-1.166-.66-1.914-.66-1.804 0-2.904 1.122-2.904 2.97V23zm19.492-13.926v3.08h2.552v2.486h-2.552v4.532c0 .946.286 1.188 1.474 1.188h.99V23h-2.156c-1.76 0-2.64-.242-3.168-.858-.462-.528-.616-1.276-.616-3.014V14.64h-1.562v-2.486h1.562v-3.08zm22.127 4.098h-3.696c-.252-.84-.546-1.26-1.176-1.596-.651-.336-1.428-.483-2.457-.483-2.079 0-3.318.63-3.318 1.68 0 .798.546 1.155 2.037 1.302l3.402.357c1.806.168 2.772.399 3.717.882 1.281.63 2.079 1.932 2.079 3.402 0 1.638-.966 3.108-2.541 3.864-1.344.651-2.919.924-5.187.924-2.856 0-4.872-.546-6.153-1.659-.987-.84-1.344-1.764-1.47-3.612h3.675c.105.924.357 1.407.924 1.848.777.588 1.743.84 3.192.84 2.289 0 3.612-.672 3.612-1.827 0-.924-.693-1.386-2.331-1.554l-3.948-.399c-3.066-.315-4.725-1.701-4.725-3.927 0-2.919 2.688-4.704 7.056-4.704 2.205 0 4.2.504 5.46 1.365 1.092.756 1.575 1.638 1.848 3.297zm9.278-1.458c2.068 0 3.894.616 5.17 1.716 1.188 1.056 1.782 2.442 1.782 4.246 0 3.41-2.86 5.764-6.996 5.764-4.202 0-6.996-2.332-6.996-5.874 0-3.52 2.794-5.852 7.04-5.852zm-.022 2.574c-1.936 0-3.278 1.342-3.278 3.278s1.342 3.3 3.256 3.3c1.87 0 3.256-1.364 3.256-3.234 0-1.98-1.32-3.344-3.234-3.344zm12.714-5.962V23h-3.476V8.326zm15.432 3.828V23h-3.476v-1.32c-1.496 1.232-2.64 1.694-4.224 1.694-1.496 0-2.882-.528-3.74-1.452-.836-.88-1.1-1.804-1.1-3.784v-5.984h3.476v5.742c0 1.1.22 1.738.77 2.222.484.418 1.166.66 1.914.66 1.804 0 2.904-1.122 2.904-2.97v-5.654zm6.852-3.08v3.08h2.552v2.486h-2.552v4.532c0 .946.286 1.188 1.474 1.188h.99V23h-2.156c-1.76 0-2.64-.242-3.168-.858-.462-.528-.616-1.276-.616-3.014V14.64h-1.562v-2.486h1.562v-3.08zM220.276 23V12.154h3.476V23zm0-11.77V8.326h3.476v2.904zm12.68.484c2.068 0 3.894.616 5.17 1.716 1.188 1.056 1.782 2.442 1.782 4.246 0 3.41-2.86 5.764-6.996 5.764-4.202 0-6.996-2.332-6.996-5.874 0-3.52 2.794-5.852 7.04-5.852zm-.022 2.574c-1.936 0-3.278 1.342-3.278 3.278s1.342 3.3 3.256 3.3c1.87 0 3.256-1.364 3.256-3.234 0-1.98-1.32-3.344-3.234-3.344zM241.972 23V12.154h3.476v1.32c1.496-1.232 2.64-1.694 4.224-1.694 1.496 0 2.882.528 3.74 1.452.836.88 1.1 1.804 1.1 3.784V23h-3.476v-5.742c0-1.1-.22-1.738-.77-2.222-.484-.418-1.166-.66-1.914-.66-1.804 0-2.904 1.122-2.904 2.97V23zm26.88-7.634h-3.542c-.088-1.078-.792-1.496-2.552-1.496-1.672 0-2.486.374-2.486 1.144 0 .594.44.836 1.672.902 2.112.132 3.498.264 4.312.462 1.958.462 2.926 1.474 2.926 3.08 0 2.552-2.244 3.982-6.248 3.982-4.114 0-6.38-1.32-6.6-3.85h3.652c.11 1.166 1.012 1.694 2.86 1.694 1.76 0 2.816-.462 2.816-1.232 0-.704-.572-.924-2.662-1.078-2.398-.154-2.926-.22-3.894-.506-1.518-.418-2.354-1.474-2.354-2.926 0-2.42 2.2-3.828 6.006-3.828 2.376 0 4.07.528 5.17 1.584.528.528.792 1.122.924 2.068z" fill="#012" fill-opacity=".9"/><path d="M56.976 32.801h-1.118c.052-.741.195-1.183.507-1.534.403-.455 1.157-.715 2.041-.715 1.56 0 2.444.741 2.444 2.041v2.951c0 .494.065.598.338.598a.786.786 0 00.312-.065V37a3.428 3.428 0 01-.78.091c-.572 0-.832-.247-.936-.845-.637.637-1.326.923-2.171.923-1.222 0-2.054-.754-2.054-1.859 0-1.014.624-1.638 1.898-1.898l1.391-.273c.754-.143.91-.26.91-.65 0-.611-.533-.988-1.378-.988-.611 0-1.092.195-1.261.533-.091.169-.117.312-.143.767zm2.808 1.781v-.806a5.033 5.033 0 01-.741.234l-1.222.286c-.728.169-1.053.468-1.053.962 0 .572.468.962 1.17.962 1.014 0 1.846-.741 1.846-1.638zm14.093-3.186l-1.116.108c-.24-1.056-1.044-1.692-2.148-1.692-1.536 0-2.544 1.248-2.544 3.132 0 1.932 1.008 3.24 2.508 3.24 1.248 0 2.112-.84 2.292-2.232h1.152c-.096.792-.276 1.296-.684 1.86-.66.912-1.584 1.368-2.784 1.368-1.188 0-2.136-.456-2.808-1.368-.576-.78-.876-1.752-.876-2.844 0-2.436 1.548-4.152 3.744-4.152 1.704 0 2.916.96 3.264 2.58zM75.524 37v-8.004h3.096c1.044 0 1.56.108 2.052.444.54.348.828.924.828 1.62 0 .804-.348 1.344-1.128 1.74.936.348 1.368.936 1.368 1.896 0 .78-.336 1.452-.924 1.836-.528.348-1.14.468-2.352.468zm1.08-4.572h2.148c.564 0 .912-.096 1.176-.312s.408-.552.408-.912a1.2 1.2 0 00-.408-.9c-.264-.216-.612-.312-1.176-.312h-2.148zm0 3.576h2.328c1.02 0 1.644-.504 1.644-1.332 0-.84-.552-1.308-1.524-1.308h-2.448zm12.806-4.536h-1.164c-.12-1.104-.78-1.644-1.992-1.644-1.068 0-1.752.456-1.752 1.152 0 .588.42.936 1.44 1.164l1.296.288c.948.216 1.428.42 1.812.768.42.372.648.912.648 1.536 0 1.512-1.224 2.448-3.168 2.448-2.076 0-3.324-1.056-3.492-2.976h1.188c.12 1.272.96 1.98 2.34 1.98 1.152 0 1.968-.564 1.968-1.368 0-.6-.432-.996-1.272-1.2l-1.8-.432c-1.464-.348-2.124-.996-2.124-2.076 0-1.404 1.164-2.292 3-2.292s2.82.852 3.072 2.652zm7.05-2.472V37h-1.14v-8.004zm2 1.725h1.144v.715c.624-.663 1.131-.884 1.99-.884.74 0 1.351.247 1.702.689.3.39.416.832.416 1.56V37h-1.196v-4.108c0-.858-.39-1.274-1.209-1.274-1.027 0-1.65.598-1.65 1.573V37H98.46zm9.696 0v.949h-1.131v3.939c0 .364.169.572.468.572.169 0 .338-.039.663-.169v.975c-.52.117-.715.143-1.001.143-.897 0-1.326-.481-1.326-1.521V31.67h-.845v-.949h.845v-1.989h1.196v1.989zm6.64 3.432h-4.575c.09 1.287.74 2.015 1.82 2.015.74 0 1.235-.351 1.52-1.092h1.145c-.3 1.313-1.3 2.093-2.691 2.093-1.768 0-2.99-1.352-2.99-3.315s1.196-3.302 2.95-3.302c1.249 0 2.159.663 2.575 1.872.156.468.234.975.247 1.729zm-4.562-.871h3.315c-.052-1.144-.624-1.781-1.573-1.781-.975 0-1.677.728-1.742 1.781zm6.173-2.561h1.144v.988c.247-.364.35-.507.52-.663.286-.299.74-.494 1.118-.494.234 0 .455.052.663.156v1.079a2.353 2.353 0 00-.546-.065c-.962 0-1.703.858-1.703 1.976V37h-1.196zm5.744 2.08h-1.118c.052-.741.195-1.183.507-1.534.403-.455 1.157-.715 2.04-.715 1.56 0 2.445.741 2.445 2.041v2.951c0 .494.065.598.338.598a.786.786 0 00.312-.065V37a3.428 3.428 0 01-.78.091c-.572 0-.832-.247-.936-.845-.637.637-1.326.923-2.171.923-1.222 0-2.054-.754-2.054-1.859 0-1.014.624-1.638 1.898-1.898l1.39-.273c.755-.143.91-.26.91-.65 0-.611-.532-.988-1.377-.988-.611 0-1.092.195-1.261.533-.091.169-.117.312-.143.767zm2.808 1.781v-.806a5.033 5.033 0 01-.741.234l-1.222.286c-.728.169-1.053.468-1.053.962 0 .572.468.962 1.17.962 1.014 0 1.846-.741 1.846-1.638zm8.59-1.729h-1.13c-.183-.858-.729-1.3-1.587-1.3-1.144 0-1.91.91-1.91 2.288 0 1.417.753 2.327 1.91 2.327.936 0 1.495-.507 1.664-1.521h1.131c-.169 1.599-1.196 2.522-2.82 2.522-1.873 0-3.095-1.313-3.095-3.315s1.235-3.302 3.133-3.302c1.534 0 2.535.845 2.704 2.301zm4.041-2.132v.949h-1.13v3.939c0 .364.168.572.467.572.17 0 .338-.039.663-.169v.975c-.52.117-.715.143-1 .143-.898 0-1.327-.481-1.327-1.521V31.67h-.845v-.949h.845v-1.989h1.196v1.989zm2.546 0V37h-1.196v-6.279zm0-2.392v1.391h-1.196v-1.391zM144.775 37h-1.313l-2.158-6.279h1.274l1.066 3.367c.13.403.338 1.17.494 1.755.013-.091.039-.195.065-.26l.117-.468c.026-.104.234-.806.286-1.001l1.066-3.393h1.274zm8.669-2.847h-4.576c.09 1.287.74 2.015 1.82 2.015.74 0 1.235-.351 1.52-1.092h1.145c-.3 1.313-1.3 2.093-2.691 2.093-1.768 0-2.99-1.352-2.99-3.315s1.196-3.302 2.95-3.302c1.249 0 2.159.663 2.575 1.872.156.468.234.975.247 1.729zm-4.563-.871h3.315c-.052-1.144-.624-1.781-1.573-1.781-.975 0-1.677.728-1.742 1.781zM159.332 37v-8.671h1.196v3.107c.598-.611 1.21-.884 2.002-.884 1.625 0 2.704 1.3 2.704 3.276 0 2.054-1.066 3.341-2.743 3.341-.806 0-1.365-.247-1.963-.871V37zm2.925-5.447c-1.118 0-1.768.832-1.768 2.275 0 1.508.624 2.34 1.768 2.34 1.131 0 1.768-.832 1.768-2.314 0-1.469-.637-2.301-1.768-2.301zM172.11 37h-1.144v-.715c-.624.663-1.13.884-1.989.884-.74 0-1.352-.247-1.703-.689-.299-.39-.416-.832-.416-1.56v-4.199h1.196v4.108c0 .858.39 1.274 1.21 1.274 1.026 0 1.65-.598 1.65-1.573v-3.809h1.196zm6.706-4.355h-1.144c-.169-.78-.598-1.105-1.43-1.105-.715 0-1.196.299-1.196.741 0 .312.221.52.728.65l1.456.377c1.313.338 1.859.884 1.859 1.846 0 1.235-1.014 2.015-2.613 2.015-1.703 0-2.717-.832-2.847-2.327h1.183c.065.832.689 1.326 1.69 1.326.858 0 1.417-.377 1.417-.962 0-.416-.273-.637-1.001-.832l-1.248-.312c-.663-.169-1.066-.351-1.326-.585-.286-.247-.468-.663-.468-1.079 0-1.079 1.001-1.846 2.418-1.846.897 0 1.638.299 2.08.832.273.338.39.676.442 1.261zm2.949-1.924V37h-1.196v-6.279zm0-2.392v1.391h-1.196v-1.391zm1.935 2.392h1.144v.715c.624-.663 1.13-.884 1.989-.884.74 0 1.352.247 1.703.689.299.39.416.832.416 1.56V37h-1.196v-4.108c0-.858-.39-1.274-1.21-1.274-1.026 0-1.65.598-1.65 1.573V37h-1.196zm12.66 3.432h-4.576c.09 1.287.74 2.015 1.82 2.015.74 0 1.235-.351 1.52-1.092h1.145c-.3 1.313-1.3 2.093-2.691 2.093-1.768 0-2.99-1.352-2.99-3.315s1.196-3.302 2.95-3.302c1.249 0 2.159.663 2.575 1.872.156.468.234.975.247 1.729zm-4.563-.871h3.315c-.052-1.144-.624-1.781-1.573-1.781-.975 0-1.677.728-1.742 1.781zm10.93-.637h-1.144c-.169-.78-.598-1.105-1.43-1.105-.715 0-1.196.299-1.196.741 0 .312.221.52.728.65l1.456.377c1.313.338 1.86.884 1.86 1.846 0 1.235-1.015 2.015-2.614 2.015-1.703 0-2.717-.832-2.847-2.327h1.183c.065.832.69 1.326 1.69 1.326.858 0 1.417-.377 1.417-.962 0-.416-.273-.637-1-.832l-1.249-.312c-.663-.169-1.066-.351-1.326-.585-.286-.247-.468-.663-.468-1.079 0-1.079 1.001-1.846 2.418-1.846.897 0 1.638.299 2.08.832.273.338.39.676.442 1.261zm6.615 0h-1.144c-.169-.78-.598-1.105-1.43-1.105-.715 0-1.196.299-1.196.741 0 .312.221.52.728.65l1.456.377c1.313.338 1.86.884 1.86 1.846 0 1.235-1.015 2.015-2.614 2.015-1.703 0-2.717-.832-2.847-2.327h1.183c.065.832.69 1.326 1.69 1.326.858 0 1.417-.377 1.417-.962 0-.416-.273-.637-1-.832l-1.249-.312c-.663-.169-1.066-.351-1.326-.585-.286-.247-.468-.663-.468-1.079 0-1.079 1.001-1.846 2.418-1.846.897 0 1.638.299 2.08.832.273.338.39.676.442 1.261z" fill="#000" fill-opacity=".5"/></g></svg>