<svg width="253" height="45" viewBox="0 0 253 45" xmlns="http://www.w3.org/2000/svg"><title>Artboard</title><defs><radialGradient cx="10.003%" cy="10.003%" fx="10.003%" fy="10.003%" r="100%" id="a"><stop stop-color="#F34" offset="0%"/><stop stop-color="#601" offset="100%"/></radialGradient></defs><g fill="none" fill-rule="evenodd"><g fill-rule="nonzero"><circle fill="url(#a)" cx="22.5" cy="22.5" r="22.5"/><path d="M13.3 9.4h1.8v25.7h-1.8V9.4zm-6.6 9.4c0-1.6 2.8-1.7 2.8-.1v1.4h2.1v-1.3c.3-4.3-7.2-4.3-7.2-.1v7.4c0 4.2 7.5 4.3 7.2 0v-1.6h-2v1.7c0 1.7-2.8 1.7-2.8 0v-7.4h-.1zM20.4 16c.7-.4 1.6-.4 2.3-.1 1 .5 1.5 1.6 1.4 2.7v8.7h1.4V29H22V18.5c-.1-.7-.7-1.2-1.3-1.1-.6.1-1.1.5-1.1 1.1V29h-3.3v-1.7h1.1v-9.9H16V16h3.2v1.1c.3-.4.7-.8 1.2-1.1zm16.3 12.8c.4.1.8.2 1.2.2H40v-1.6h-1.4c-.5.1-1-.3-1.1-.9v-9.1h1.9V16h-1.9v-3.7h-2.2V26c.1 1.2.4 2.3 1.4 2.8zm-5.3-2.6c0 1.7-3.1 1.7-3.1 0v-3.5H33c.2 0 .3-.1.3-.3v-3.6c.1-4.3-7.2-4.3-7.2-.1v7.4c0 4.2 7.5 4.3 7.2 0v-1.6h-1.9v1.7zm-3-7.5c0-1.6 2.9-1.7 2.9-.1V21h-2.9v-2.3z" fill="#123"/><path d="M13.3 9.9h1.8v25.7h-1.8V9.9zm-6.6 9.4c0-1.6 2.8-1.7 2.8-.1v1.4h2.1v-1.3c.4-4.3-7.1-4.3-7.1-.1v7.4c0 4.2 7.5 4.3 7.2 0V25H9.6v1.7c0 1.7-2.8 1.7-2.8 0v-7.4h-.1zm13.7-2.8c.7-.4 1.6-.4 2.3-.1 1 .5 1.5 1.6 1.4 2.7v8.7h1.4v1.7H22V19c-.1-.7-.7-1.2-1.3-1.1-.6.1-1.1.5-1.1 1.1v10.5h-3.3v-1.7h1.1v-9.9H16v-1.4h3.2v1.1c.3-.4.7-.8 1.2-1.1zm16.3 12.8c.4.1.7.2 1.1.2H40v-1.6h-1.3c-.5.1-1-.3-1.1-.9v-9.1h1.9v-1.4h-1.9v-3.7h-2.2v13.6c0 1.3.3 2.4 1.3 2.9zm-5.3-2.6c0 1.7-3.1 1.7-3.1 0v-3.5H33c.2 0 .3-.1.3-.3v-3.6c.1-4.3-7.2-4.3-7.2-.1v7.4c0 4.2 7.5 4.3 7.2 0V25h-1.9v1.7zm-3-7.5c0-1.6 2.9-1.7 2.9-.1v2.3h-2.9v-2.2z" fill="#FFF"/></g><path d="M62.084 8.853c4.577 0 6.887 2.511 7.286 4.94h-3.947c-.231-.68-.945-1.997-3.381-1.997-2.625 0-3.926 1.977-3.926 4.467 0 2.532 1.154 4.756 3.947 4.756 1.953 0 2.835-.72 3.36-2.059h3.926c-.651 2.552-2.751 4.981-7.475 4.981-5.354 0-7.874-3.623-7.874-7.534 0-3.91 2.772-7.554 8.084-7.554zm155.124 3.637c4.227 0 6.197 3.018 6.197 5.709 0 3.34-2.308 5.728-6.337 5.728-4.04 0-6.106-2.717-6.106-5.725 0-2.976 2.139-5.712 6.246-5.712zm-140.114 0c4.228 0 6.196 3.018 6.196 5.709 0 3.34-2.307 5.728-6.336 5.728-4.04 0-6.106-2.717-6.106-5.725 0-2.976 2.138-5.712 6.246-5.712zm92.809 0c4.227 0 6.196 3.018 6.196 5.709 0 3.34-2.307 5.728-6.336 5.728-4.041 0-6.106-2.717-6.106-5.725 0-2.976 2.138-5.712 6.246-5.712zm17.257.294v6.061c0 1.442.526 2.414 1.952 2.414 1.666 0 2.287-.978 2.287-3.46v-5.015h3.431v7.691c0 1.047-.019 2.11.003 3.158h-3.35c-.042-.294-.047-.79-.065-1.268-.544.852-1.369 1.562-3.647 1.562-2.265 0-4.042-1.324-4.042-4.516v-6.627h3.431zm56.25-.295c3.83 0 5.171 1.805 5.33 3.361h-3.382c-.149-.51-.537-1.09-2.072-1.09-1.299 0-1.527.495-1.527.878 0 .451.347.724 2.367 1.023 4.405.666 4.986 2.146 4.986 3.651 0 1.98-1.502 3.614-5.462 3.614-2.967 0-5.292-1.25-5.632-3.628h3.398c.274.775 1.001 1.285 2.464 1.285 1.467 0 1.87-.454 1.87-.967 0-.607-.475-.903-2.646-1.202-4.134-.584-4.708-2.11-4.708-3.433 0-1.643 1.25-3.492 5.013-3.492zm-131.21 0c4.22 0 5.925 2.908 5.925 5.734 0 .274 0 .471-.018.82h-8.51c.089 1.31 1.04 2.334 2.665 2.334 1.295 0 1.906-.396 2.3-1.062h3.432c-.655 1.921-2.286 3.611-5.768 3.611-4.441 0-6.044-2.946-6.044-5.704 0-3.056 2.054-5.733 6.018-5.733zm42.495-3.615c5.123 0 6.55 2.573 6.719 4.302h-3.905c-.19-.659-.651-1.544-2.94-1.544-1.616 0-2.372.494-2.372 1.318 0 .761.608 1.111 3.254 1.585 5.669 1.008 6.55 2.676 6.55 4.796 0 2.552-2.036 4.59-7.095 4.59-4.725 0-6.803-2.058-7.244-4.652h3.905c.398 1.153 1.364 1.894 3.716 1.894 2.163 0 2.73-.597 2.73-1.441 0-.906-.651-1.4-3.611-1.894-5.271-.885-6.173-2.573-6.173-4.508 0-2.964 2.918-4.446 6.466-4.446zm46.986.713v3.197h2.51v2.49h-2.51v4.572c0 .924.191 1.348 1.243 1.348.296 0 .631-.003.927-.068v2.352c-.585.168-1.375.242-2.174.242-2.671 0-3.446-1.16-3.446-3.275v-5.17h-1.946v-2.491h1.946V9.587h3.45zm-63.974 0v3.197h2.51v2.49h-2.51v4.572c0 .924.192 1.348 1.244 1.348.297 0 .63-.003.927-.068v2.352c-.586.168-1.376.242-2.175.242-2.671 0-3.446-1.16-3.446-3.275v-5.17h-1.946v-2.491h1.946V9.587h3.45zm-34.768 0v3.197h2.511v2.49h-2.51v4.572c0 .924.192 1.348 1.243 1.348.297 0 .631-.003.927-.068v2.352c-.586.168-1.375.242-2.174.242-2.67 0-3.447-1.16-3.447-3.275v-5.17h-1.946v-2.491h1.946V9.587h3.45zm106.238 3.197v10.849h-3.431v-10.85h3.43zm-27.57-4.751v15.6h-3.738v-15.6h3.738zM92.106 12.49c2.67 0 4.254 1.655 4.254 4.45v6.692h-3.468v-6.144c0-1.241-.481-2.332-2.023-2.332-1.601 0-2.345 1.11-2.345 3.065v5.412h-3.45v-8.92a81.935 81.935 0 00-.02-1.93h3.352c.042.306.08.963.1 1.402.496-.75 1.487-1.696 3.6-1.696zm34.767 0c2.671 0 4.253 1.655 4.253 4.45v6.692h-3.468v-6.144c0-1.241-.48-2.332-2.022-2.332-1.6 0-2.346 1.11-2.346 3.065v5.412h-3.449v-8.111c0-.92 0-1.959-.02-2.739h3.351c.042.306.082.963.1 1.402.497-.75 1.487-1.696 3.601-1.696zm105.352 0c2.67 0 4.253 1.655 4.253 4.45v6.692h-3.468v-6.144c0-1.241-.48-2.332-2.022-2.332-1.601 0-2.345 1.11-2.345 3.065v5.412h-3.45v-8.92a81.933 81.933 0 00-.02-1.93h3.35c.043.306.083.963.102 1.402.496-.75 1.487-1.696 3.6-1.696zm-62.372 2.589c-1.86 0-2.705 1.45-2.705 3.123 0 1.687.936 3.136 2.73 3.136 1.848 0 2.693-1.427 2.693-3.081 0-1.638-.815-3.178-2.718-3.178zm47.305 0c-1.86 0-2.704 1.45-2.704 3.123 0 1.687.935 3.136 2.73 3.136 1.847 0 2.692-1.427 2.692-3.081 0-1.638-.815-3.178-2.718-3.178zm-140.114 0c-1.86 0-2.705 1.45-2.705 3.123 0 1.687.937 3.136 2.731 3.136 1.848 0 2.693-1.427 2.693-3.081 0-1.638-.815-3.178-2.719-3.178zm35.153-.188c-1.802 0-2.456.983-2.558 2.05h5.006c-.068-.828-.515-2.05-2.448-2.05zM209.177 8v2.74h-3.431V8h3.43z" fill="#FFF"/><path d="M164.542 30.243c.65 0 1.16.14 1.532.42.371.28.617.654.738 1.123l-1.059.187a1.312 1.312 0 00-.209-.386 1.074 1.074 0 00-.384-.301 1.393 1.393 0 00-.606-.117c-.332 0-.607.073-.828.22-.223.148-.332.337-.332.569 0 .2.074.362.223.484.148.122.386.223.718.3l.954.22c.55.128.962.324 1.234.59.27.265.406.61.406 1.035 0 .359-.103.678-.31.959-.207.28-.496.499-.864.658-.369.159-.795.238-1.279.238-.672 0-1.22-.143-1.644-.431-.426-.288-.686-.698-.782-1.23l1.13-.171c.07.294.214.517.433.666.22.15.504.225.855.225.383 0 .688-.08.918-.24.23-.161.344-.357.344-.588a.617.617 0 00-.209-.473c-.14-.128-.354-.224-.639-.29l-1.015-.222c-.56-.128-.975-.331-1.24-.61-.268-.277-.4-.631-.4-1.058 0-.354.097-.664.296-.93.197-.265.471-.473.82-.622.348-.15.748-.225 1.2-.225zm27.559 0c.649 0 1.159.14 1.532.42.371.28.617.654.738 1.123l-1.059.187a1.312 1.312 0 00-.209-.386 1.074 1.074 0 00-.384-.301 1.393 1.393 0 00-.606-.117c-.332 0-.607.073-.828.22-.223.148-.332.337-.332.569 0 .2.074.362.223.484.148.122.386.223.718.3l.954.22c.55.128.962.324 1.234.59.269.265.406.61.406 1.035 0 .359-.103.678-.31.959-.207.28-.496.499-.864.658-.369.159-.795.238-1.279.238-.672 0-1.221-.143-1.644-.431-.426-.288-.686-.698-.782-1.23l1.129-.171c.07.294.215.517.434.666.219.15.504.225.855.225.383 0 .688-.08.918-.24.229-.161.344-.357.344-.588a.617.617 0 00-.209-.473c-.141-.128-.354-.224-.639-.29l-1.015-.222c-.561-.128-.975-.331-1.241-.61-.267-.277-.4-.631-.4-1.058 0-.354.098-.664.297-.93.197-.265.471-.473.82-.622.348-.15.748-.225 1.199-.225zm-5.895 0c.65 0 1.16.14 1.532.42.371.28.617.654.738 1.123l-1.059.187a1.312 1.312 0 00-.209-.386 1.074 1.074 0 00-.384-.301 1.393 1.393 0 00-.606-.117c-.332 0-.607.073-.828.22-.223.148-.332.337-.332.569 0 .2.074.362.223.484.148.122.386.223.718.3l.954.22c.55.128.962.324 1.234.59.27.265.406.61.406 1.035 0 .359-.103.678-.31.959-.207.28-.496.499-.864.658-.369.159-.795.238-1.279.238-.672 0-1.22-.143-1.644-.431-.426-.288-.686-.698-.782-1.23l1.13-.171c.07.294.214.517.433.666.22.15.504.225.855.225.383 0 .688-.08.918-.24.23-.161.344-.357.344-.588a.617.617 0 00-.209-.473c-.14-.128-.354-.224-.639-.29l-1.015-.222c-.56-.128-.975-.331-1.24-.61-.268-.277-.4-.631-.4-1.058 0-.354.097-.664.296-.93.197-.265.471-.473.82-.622.348-.15.748-.225 1.2-.225zm-63.263 0c.456 0 .862.084 1.22.252.356.168.644.403.864.705.22.302.351.655.393 1.058h-1.137a1.361 1.361 0 00-.428-.726c-.222-.203-.52-.305-.892-.305-.326 0-.61.085-.854.256a1.669 1.669 0 00-.568.727c-.135.313-.203.684-.203 1.11 0 .438.066.816.2 1.134.132.317.32.563.563.738.244.175.531.262.862.262.221 0 .422-.041.603-.123.181-.082.334-.201.457-.354a1.34 1.34 0 00.26-.555h1.137a2.216 2.216 0 01-.379 1.04 2.192 2.192 0 01-.846.718c-.353.175-.766.262-1.24.262-.58 0-1.08-.132-1.498-.396a2.6 2.6 0 01-.963-1.096c-.224-.466-.336-1-.336-1.602 0-.61.115-1.147.344-1.615a2.63 2.63 0 01.97-1.096c.415-.262.906-.394 1.471-.394zm-17.495 0c.338 0 .666.055.984.168.318.112.603.288.856.527.252.239.451.55.597.932.146.382.22.844.22 1.388v.414l-4.264-.001.004.115c.02.318.088.594.206.828.143.28.341.495.596.642.256.148.553.22.895.22.221 0 .423-.031.605-.095.182-.063.34-.16.473-.287.133-.128.234-.285.305-.472l1.105.199a1.99 1.99 0 01-.475.853 2.296 2.296 0 01-.855.567 3.192 3.192 0 01-1.17.2c-.59 0-1.1-.126-1.525-.38a2.543 2.543 0 01-.985-1.074c-.23-.462-.345-1.005-.345-1.627 0-.614.115-1.156.345-1.625a2.65 2.65 0 01.97-1.098c.415-.262.901-.394 1.458-.394zm36.577 0c.34 0 .668.055.984.168.32.112.604.288.856.527.254.239.453.55.597.932.147.382.22.844.22 1.388v.414l-4.263-.001.003.115c.02.318.09.594.206.828.143.28.342.495.596.642.256.148.555.22.895.22.222 0 .424-.031.605-.095a1.26 1.26 0 00.473-.287c.133-.128.234-.285.305-.472l1.105.199c-.088.325-.246.61-.475.853a2.264 2.264 0 01-.855.567 3.192 3.192 0 01-1.17.2c-.59 0-1.1-.126-1.525-.38a2.543 2.543 0 01-.985-1.074c-.23-.462-.345-1.005-.345-1.627 0-.614.115-1.156.345-1.625.231-.47.555-.835.97-1.098.415-.262.901-.394 1.458-.394zm37.998 0c.338 0 .666.055.984.168.317.112.602.288.856.527.252.239.451.55.597.932.145.382.22.844.22 1.388v.414l-4.263-.001.003.115c.02.318.088.594.206.828.141.28.34.495.596.642.254.148.553.22.895.22.22 0 .422-.031.605-.095.182-.063.34-.16.473-.287.133-.128.234-.285.305-.472l1.105.199a2.02 2.02 0 01-.475.853 2.296 2.296 0 01-.855.567 3.2 3.2 0 01-1.17.2c-.592 0-1.1-.126-1.525-.38a2.543 2.543 0 01-.985-1.074c-.23-.462-.345-1.005-.345-1.627 0-.614.115-1.156.345-1.625a2.65 2.65 0 01.97-1.098c.413-.262.9-.394 1.458-.394zm-64.223 0c.373 0 .672.06.9.185.228.124.405.268.532.432.126.164.224.309.295.434h.07v-.973h1.168v6h-1.141v-.934h-.097a3.255 3.255 0 01-.303.438 1.718 1.718 0 01-.541.429c-.23.123-.526.184-.891.184-.484 0-.916-.124-1.295-.373-.38-.25-.676-.604-.89-1.066-.215-.462-.323-1.018-.323-1.666 0-.65.109-1.204.327-1.664.217-.461.516-.814.896-1.06.38-.244.81-.366 1.293-.366zm-57.284 0c.373 0 .672.06.9.185.228.124.405.268.532.432.126.164.224.309.295.434h.07v-.973h1.168v6H60.34v-.934h-.097a3.255 3.255 0 01-.303.438 1.718 1.718 0 01-.541.429c-.229.123-.526.184-.891.184-.484 0-.916-.124-1.295-.373-.379-.25-.676-.604-.89-1.066-.215-.462-.323-1.018-.323-1.666 0-.65.109-1.204.327-1.664.217-.461.516-.814.896-1.06.38-.244.811-.366 1.293-.366zm24.322-1.294c.508 0 .956.087 1.342.264a2.2 2.2 0 01.91.732c.22.311.333.668.34 1.07h-1.19a.997.997 0 00-.437-.745c-.255-.178-.583-.267-.983-.267-.285 0-.528.043-.732.13-.203.086-.36.204-.47.353a.846.846 0 00-.166.511.72.72 0 00.111.413.974.974 0 00.3.292c.124.08.261.147.41.201.15.054.298.1.447.135l.69.174c.26.062.515.145.766.25.251.106.48.24.682.402.204.162.366.36.488.594.122.235.183.512.183.831 0 .422-.107.793-.323 1.116-.216.322-.527.574-.934.756-.407.182-.9.273-1.477.273-.556 0-1.039-.087-1.449-.26a2.17 2.17 0 01-.96-.757c-.23-.33-.356-.728-.375-1.195h1.225c.02.258.1.472.241.641.142.17.327.296.555.38.227.084.48.126.756.126.293 0 .554-.045.781-.137.227-.09.405-.218.534-.38a.889.889 0 00.194-.569.73.73 0 00-.17-.495 1.304 1.304 0 00-.47-.323c-.2-.085-.43-.162-.692-.23l-.84-.22c-.593-.156-1.06-.39-1.406-.702-.344-.31-.517-.725-.517-1.24 0-.424.116-.795.347-1.115.231-.318.545-.566.942-.743a3.265 3.265 0 011.347-.266zm67.58-.265v2.845h.062c.066-.127.162-.269.285-.427.123-.158.293-.294.51-.41.215-.116.498-.173.846-.173.455 0 .863.115 1.222.344.362.231.647.566.854 1.005.21.441.314.974.314 1.6 0 .621-.103 1.153-.31 1.593-.205.442-.489.78-.848 1.015a2.189 2.189 0 01-1.225.353c-.339 0-.619-.058-.838-.172a1.683 1.683 0 01-.517-.404 2.428 2.428 0 01-.293-.427h-.09v.894h-1.182v-7.636h1.21zm-81 .265c.397 0 .767.056 1.111.168.344.113.65.277.922.494.27.216.495.48.669.792.175.311.292.667.352 1.067h-1.25a1.62 1.62 0 00-.616-1.037 1.7 1.7 0 00-.534-.274 2.159 2.159 0 00-.636-.092c-.406 0-.765.101-1.079.303-.313.204-.56.5-.74.888-.18.39-.27.865-.27 1.426 0 .568.09 1.048.272 1.436.181.39.428.684.743.883.314.2.67.298 1.07.298.222 0 .433-.029.629-.089a1.638 1.638 0 00.934-.695c.108-.17.184-.366.227-.586l1.25.007c-.054.35-.165.677-.33.978a2.765 2.765 0 01-.647.79 2.942 2.942 0 01-.922.526 3.382 3.382 0 01-1.155.188c-.635 0-1.202-.148-1.7-.446a3.099 3.099 0 01-1.177-1.283c-.287-.559-.43-1.228-.43-2.007 0-.78.144-1.45.432-2.008a3.109 3.109 0 011.18-1.282 3.251 3.251 0 011.695-.445zm31.07-.066l-.002 1.438h1.231v.937h-1.23v3.301c0 .226.034.396.102.51.067.113.155.19.263.23.108.04.226.061.354.061.093 0 .176-.007.246-.02l.164-.03.211.964a2.216 2.216 0 01-.758.125 2.066 2.066 0 01-.859-.164 1.475 1.475 0 01-.645-.532c-.164-.239-.246-.54-.246-.902v-3.543h-.879v-.937h.878l.001-1.438h1.168zm27.756 0v1.438h1.23v.937h-1.23v3.301c0 .226.035.396.102.51.067.113.155.19.263.23.108.04.226.061.355.061.093 0 .175-.007.245-.02l.165-.03.21.964a2.216 2.216 0 01-.757.125 2.066 2.066 0 01-.86-.164 1.475 1.475 0 01-.644-.532c-.164-.239-.246-.54-.246-.902v-3.543h-.88v-.937h.88v-1.438h1.167zm28.701 1.437v3.676c0 .41.113.734.34.977.227.242.52.363.883.363.219 0 .435-.055.654-.164.217-.11.399-.275.543-.496.145-.222.215-.503.213-.844V30.32h1.172v6h-1.149v-1.039h-.062a1.869 1.869 0 01-.662.8c-.305.211-.682.317-1.131.317-.387 0-.727-.085-1.022-.255a1.755 1.755 0 01-.695-.76c-.168-.336-.252-.75-.252-1.246V30.32h1.168zM90.798 29.05v7.272h-1.186v-7.272h1.186zm4.513 1.193c.41 0 .767.085 1.074.256.307.171.546.424.715.76.17.336.255.751.255 1.246v3.817h-1.169v-3.676c0-.435-.113-.776-.34-1.022-.227-.246-.538-.369-.934-.369a1.45 1.45 0 00-.72.176c-.21.117-.374.288-.495.514a1.7 1.7 0 00-.183.814v3.563h-1.167v-6h1.12v.976h.075c.138-.317.355-.573.65-.766.296-.192.669-.289 1.12-.289zm74.068.079v6h-1.168v-6h1.168zm4.535-.079c.408 0 .766.085 1.074.256.307.171.545.424.715.76.168.336.254.751.254 1.246v3.817h-1.168v-3.676c0-.435-.113-.776-.34-1.022-.227-.246-.539-.369-.934-.369a1.45 1.45 0 00-.72.176 1.237 1.237 0 00-.496.514 1.7 1.7 0 00-.182.814v3.563h-1.168v-6h1.121v.976h.074c.137-.317.354-.573.651-.766.295-.192.668-.289 1.12-.289zm-41.982.079v6h-1.168v-6h1.168zm-19.812-.09c.164 0 .311.02.441.059.131.039.245.093.344.16l-.375.976a1.299 1.299 0 00-.238-.084 1.272 1.272 0 00-.305-.033 1.49 1.49 0 00-.725.174 1.305 1.305 0 00-.689 1.174v3.664h-1.168v-6h1.13v.953h.061c.11-.323.303-.577.58-.764a1.65 1.65 0 01.944-.28zm-35.66-1.182c.522 0 .956.083 1.301.248.344.166.602.392.774.678.172.286.257.61.257.97 0 .296-.056.548-.168.758a1.41 1.41 0 01-.453.506c-.19.128-.4.22-.632.277v.07c.253.015.497.094.731.237.235.143.428.345.58.607.151.262.227.577.227.946 0 .377-.09.714-.268 1.01-.179.298-.452.533-.817.706-.366.173-.828.259-1.387.259h-2.887v-7.272h2.741zm57.823 1.272l1.52 4.617h.062l1.516-4.617h1.254l-2.176 6h-1.25l-2.18-6h1.254zm-18.233.914c-.352 0-.645.09-.88.273a1.66 1.66 0 00-.528.746 3.007 3.007 0 00-.178 1.067c0 .4.06.762.18 1.082.119.32.297.573.533.76.236.186.527.279.873.279.336 0 .62-.09.854-.268.232-.178.41-.426.53-.744.122-.317.182-.687.182-1.11 0-.416-.06-.78-.18-1.093a1.606 1.606 0 00-.527-.73c-.232-.175-.518-.262-.86-.262zm-57.284 0c-.352 0-.645.09-.879.273a1.66 1.66 0 00-.529.746 3.007 3.007 0 00-.178 1.067c0 .4.06.762.18 1.082.119.32.297.573.533.76.236.186.527.279.873.279.336 0 .621-.09.854-.268.232-.178.41-.426.531-.744.121-.317.181-.687.181-1.11 0-.416-.06-.78-.179-1.093a1.606 1.606 0 00-.528-.73c-.232-.175-.518-.262-.859-.262zm93.064.294c-.31 0-.573.08-.788.241a1.47 1.47 0 00-.484.672 2.865 2.865 0 00-.164 1.015c0 .39.057.731.168 1.025.111.293.273.522.486.686.213.164.473.246.782.246.318 0 .585-.085.8-.255.215-.17.377-.403.49-.699a2.89 2.89 0 00.165-1.003c0-.37-.055-.7-.164-.99a1.54 1.54 0 00-.487-.687c-.215-.167-.484-.25-.804-.25zm-75.356 1.546h-1.517v2.206h1.478c.494 0 .851-.097 1.068-.288a.927.927 0 00.327-.728 1.14 1.14 0 00-.165-.604 1.166 1.166 0 00-.47-.428 1.55 1.55 0 00-.72-.158zm65.56-1.867c-.329 0-.614.08-.859.24-.242.16-.429.368-.562.625a1.787 1.787 0 00-.189.657l-.003.066h3.116c0-.306-.063-.58-.188-.817a1.413 1.413 0 00-.525-.564 1.48 1.48 0 00-.79-.207zm-36.578 0c-.328 0-.614.08-.858.24-.243.16-.43.368-.562.625a1.787 1.787 0 00-.189.657l-.003.066h3.116c0-.306-.063-.58-.188-.817a1.42 1.42 0 00-.525-.564 1.483 1.483 0 00-.79-.207zm74.575 0c-.328 0-.615.08-.858.24a1.61 1.61 0 00-.562.625 1.748 1.748 0 00-.189.657l-.003.066h3.116c0-.306-.063-.58-.188-.817a1.427 1.427 0 00-.525-.564 1.49 1.49 0 00-.79-.207zM76.35 30.082h-1.392v2.077h1.364c.234 0 .445-.044.632-.131a1.08 1.08 0 00.445-.373.983.983 0 00.166-.572.942.942 0 00-.304-.717c-.202-.19-.506-.284-.91-.284zM131.354 28c.203 0 .377.069.521.205.144.137.217.3.217.491a.66.66 0 01-.217.494.729.729 0 01-.521.205.733.733 0 01-.522-.205.653.653 0 01-.216-.49c0-.193.072-.358.216-.495a.737.737 0 01.522-.205zm37.447 0c.203 0 .377.069.521.205a.65.65 0 01.217.491.656.656 0 01-.217.494.729.729 0 01-.521.205.733.733 0 01-.522-.205.654.654 0 01-.217-.49.66.66 0 01.217-.495.737.737 0 01.522-.205z" fill="#FFF" opacity=".5"/><path d="M44.54 38.374c.085 0 .178.024.278.073a.632.632 0 01.363.598.676.676 0 01-.11.39.764.764 0 01-.234.224l.43.811h-.505l-.368-.71h-.457v.71h-.46v-2.096h1.063zm-.165.34h-.438v.706h.426c.063 0 .131-.032.203-.094.074-.063.11-.156.11-.28 0-.13-.036-.217-.11-.263a.378.378 0 00-.19-.069zm-.103 2.461c.32 0 .61-.078.87-.233a1.75 1.75 0 00.624-.625c.156-.26.234-.55.234-.869 0-.319-.078-.609-.234-.869a1.75 1.75 0 00-.625-.625 1.657 1.657 0 00-.869-.234c-.318 0-.607.078-.869.234a1.75 1.75 0 00-.625.625c-.155.26-.233.55-.233.87 0 .317.078.607.233.868.155.262.363.47.625.625.262.155.551.233.87.233zm0 .545a2.23 2.23 0 01-1.607-.664 2.297 2.297 0 01-.489-.724 2.218 2.218 0 01-.176-.884c0-.315.058-.61.176-.884a2.301 2.301 0 011.213-1.213 2.23 2.23 0 01.883-.176c.315 0 .61.06.884.176a2.287 2.287 0 011.213 1.213c.117.274.176.57.176.884 0 .314-.059.61-.176.884a2.294 2.294 0 01-1.213 1.213 2.228 2.228 0 01-.884.175z" fill="#FFF" opacity=".25"/></g></svg>