<svg width="253" height="45" viewBox="0 0 253 45" xmlns="http://www.w3.org/2000/svg"><title>Artboard</title><defs><radialGradient cx="10.003%" cy="10.003%" fx="10.003%" fy="10.003%" r="100%" id="a"><stop stop-color="#F34" offset="0%"/><stop stop-color="#601" offset="100%"/></radialGradient></defs><g fill="none" fill-rule="evenodd"><g fill-rule="nonzero"><circle fill="url(#a)" cx="22.5" cy="22.5" r="22.5"/><path d="M13.3 9.4h1.8v25.7h-1.8V9.4zm-6.6 9.4c0-1.6 2.8-1.7 2.8-.1v1.4h2.1v-1.3c.3-4.3-7.2-4.3-7.2-.1v7.4c0 4.2 7.5 4.3 7.2 0v-1.6h-2v1.7c0 1.7-2.8 1.7-2.8 0v-7.4h-.1zM20.4 16c.7-.4 1.6-.4 2.3-.1 1 .5 1.5 1.6 1.4 2.7v8.7h1.4V29H22V18.5c-.1-.7-.7-1.2-1.3-1.1-.6.1-1.1.5-1.1 1.1V29h-3.3v-1.7h1.1v-9.9H16V16h3.2v1.1c.3-.4.7-.8 1.2-1.1zm16.3 12.8c.4.1.8.2 1.2.2H40v-1.6h-1.4c-.5.1-1-.3-1.1-.9v-9.1h1.9V16h-1.9v-3.7h-2.2V26c.1 1.2.4 2.3 1.4 2.8zm-5.3-2.6c0 1.7-3.1 1.7-3.1 0v-3.5H33c.2 0 .3-.1.3-.3v-3.6c.1-4.3-7.2-4.3-7.2-.1v7.4c0 4.2 7.5 4.3 7.2 0v-1.6h-1.9v1.7zm-3-7.5c0-1.6 2.9-1.7 2.9-.1V21h-2.9v-2.3z" fill="#123"/><path d="M13.3 9.9h1.8v25.7h-1.8V9.9zm-6.6 9.4c0-1.6 2.8-1.7 2.8-.1v1.4h2.1v-1.3c.4-4.3-7.1-4.3-7.1-.1v7.4c0 4.2 7.5 4.3 7.2 0V25H9.6v1.7c0 1.7-2.8 1.7-2.8 0v-7.4h-.1zm13.7-2.8c.7-.4 1.6-.4 2.3-.1 1 .5 1.5 1.6 1.4 2.7v8.7h1.4v1.7H22V19c-.1-.7-.7-1.2-1.3-1.1-.6.1-1.1.5-1.1 1.1v10.5h-3.3v-1.7h1.1v-9.9H16v-1.4h3.2v1.1c.3-.4.7-.8 1.2-1.1zm16.3 12.8c.4.1.7.2 1.1.2H40v-1.6h-1.3c-.5.1-1-.3-1.1-.9v-9.1h1.9v-1.4h-1.9v-3.7h-2.2v13.6c0 1.3.3 2.4 1.3 2.9zm-5.3-2.6c0 1.7-3.1 1.7-3.1 0v-3.5H33c.2 0 .3-.1.3-.3v-3.6c.1-4.3-7.2-4.3-7.2-.1v7.4c0 4.2 7.5 4.3 7.2 0V25h-1.9v1.7zm-3-7.5c0-1.6 2.9-1.7 2.9-.1v2.3h-2.9v-2.2z" fill="#FFF"/></g><path d="M62.084 8.853c4.577 0 6.887 2.511 7.286 4.94h-3.947c-.231-.68-.945-1.997-3.381-1.997-2.625 0-3.926 1.977-3.926 4.467 0 2.532 1.154 4.756 3.947 4.756 1.953 0 2.835-.72 3.36-2.059h3.926c-.651 2.552-2.751 4.981-7.475 4.981-5.354 0-7.874-3.623-7.874-7.534 0-3.91 2.772-7.554 8.084-7.554zm155.062 3.637c4.227 0 6.196 3.018 6.196 5.709 0 3.34-2.307 5.728-6.336 5.728-4.041 0-6.106-2.717-6.106-5.725 0-2.976 2.138-5.712 6.246-5.712zm-140.1 0c4.228 0 6.196 3.018 6.196 5.709 0 3.34-2.307 5.728-6.336 5.728-4.041 0-6.106-2.717-6.106-5.725 0-2.976 2.138-5.712 6.246-5.712zm92.8 0c4.227 0 6.196 3.018 6.196 5.709 0 3.34-2.307 5.728-6.336 5.728-4.041 0-6.106-2.717-6.106-5.725 0-2.976 2.138-5.712 6.246-5.712zm17.285.294v6.061c0 1.442.526 2.414 1.952 2.414 1.666 0 2.287-.978 2.287-3.46v-5.015h3.431v7.691c0 1.047-.019 2.11.003 3.158h-3.35c-.042-.294-.047-.79-.065-1.268-.544.852-1.369 1.562-3.647 1.562-2.265 0-4.042-1.324-4.042-4.516v-6.627h3.431zm56.26-.295c3.83 0 5.172 1.805 5.33 3.361h-3.381c-.149-.51-.537-1.09-2.072-1.09-1.299 0-1.527.495-1.527.878 0 .451.347.724 2.367 1.023 4.405.666 4.986 2.146 4.986 3.651 0 1.98-1.502 3.614-5.462 3.614-2.967 0-5.292-1.25-5.632-3.628h3.398c.274.775 1.001 1.285 2.464 1.285 1.467 0 1.87-.454 1.87-.967 0-.607-.475-.903-2.646-1.202-4.134-.584-4.708-2.11-4.708-3.433 0-1.643 1.249-3.492 5.013-3.492zm-131.173 0c4.221 0 5.925 2.908 5.925 5.734 0 .274 0 .471-.018.82h-8.51c.089 1.31 1.04 2.334 2.665 2.334 1.295 0 1.906-.396 2.301-1.062h3.431c-.655 1.921-2.286 3.611-5.768 3.611-4.441 0-6.044-2.946-6.044-5.704 0-3.056 2.054-5.733 6.018-5.733zm42.515-3.615c5.123 0 6.551 2.573 6.719 4.302h-3.905c-.189-.659-.651-1.544-2.939-1.544-1.617 0-2.373.494-2.373 1.318 0 .761.608 1.111 3.254 1.585 5.669 1.008 6.551 2.676 6.551 4.796 0 2.552-2.037 4.59-7.096 4.59-4.725 0-6.803-2.058-7.244-4.652h3.905c.398 1.153 1.364 1.894 3.716 1.894 2.163 0 2.73-.597 2.73-1.441 0-.906-.651-1.4-3.611-1.894-5.271-.885-6.173-2.573-6.173-4.508 0-2.964 2.918-4.446 6.466-4.446zm46.963.713v3.197h2.511v2.49h-2.511v4.572c0 .924.192 1.348 1.244 1.348.296 0 .631-.003.927-.068v2.352c-.586.168-1.376.242-2.175.242-2.671 0-3.446-1.16-3.446-3.275v-5.17H196.3v-2.491h1.946V9.587h3.45zm-64 0v3.197h2.511v2.49h-2.511v4.572c0 .924.192 1.348 1.244 1.348.297 0 .631-.003.927-.068v2.352c-.586.168-1.376.242-2.175.242-2.671 0-3.446-1.16-3.446-3.275v-5.17H132.3v-2.491h1.946V9.587h3.45zm-34.8 0v3.197h2.511v2.49h-2.511v4.572c0 .924.193 1.348 1.244 1.348.297 0 .631-.003.927-.068v2.352c-.586.168-1.375.242-2.174.242-2.671 0-3.447-1.16-3.447-3.275v-5.17H97.5v-2.491h1.946V9.587h3.45zm106.235 3.197v10.849H205.7v-10.85h3.431zm-27.494-4.751v15.6H177.9v-15.6h3.737zM92.052 12.49c2.671 0 4.254 1.655 4.254 4.45v6.692h-3.468v-6.144c0-1.241-.481-2.332-2.023-2.332-1.601 0-2.345 1.11-2.345 3.065v5.412h-3.449v-8.92a81.935 81.935 0 00-.021-1.93h3.352c.042.306.081.963.1 1.402.496-.75 1.487-1.696 3.6-1.696zm34.801 0c2.671 0 4.253 1.655 4.253 4.45v6.692h-3.468v-6.144c0-1.241-.481-2.332-2.022-2.332-1.601 0-2.346 1.11-2.346 3.065v5.412h-3.449v-8.111c0-.92 0-1.959-.021-2.739h3.352c.042.306.082.963.1 1.402.497-.75 1.487-1.696 3.601-1.696zm105.399 0c2.671 0 4.253 1.655 4.253 4.45v6.692h-3.468v-6.144c0-1.241-.48-2.332-2.022-2.332-1.601 0-2.345 1.11-2.345 3.065v5.412h-3.449v-8.92a81.933 81.933 0 00-.021-1.93h3.351c.042.306.082.963.101 1.402.496-.75 1.487-1.696 3.6-1.696zm-62.456 2.589c-1.86 0-2.705 1.45-2.705 3.123 0 1.687.936 3.136 2.731 3.136 1.847 0 2.692-1.427 2.692-3.081 0-1.638-.815-3.178-2.718-3.178zm47.3 0c-1.86 0-2.705 1.45-2.705 3.123 0 1.687.936 3.136 2.731 3.136 1.847 0 2.692-1.427 2.692-3.081 0-1.638-.815-3.178-2.718-3.178zm-140.1 0c-1.86 0-2.705 1.45-2.705 3.123 0 1.687.937 3.136 2.731 3.136 1.848 0 2.693-1.427 2.693-3.081 0-1.638-.815-3.178-2.719-3.178zm35.219-.188c-1.802 0-2.456.983-2.558 2.05h5.006c-.068-.828-.515-2.05-2.448-2.05zM209.131 8v2.74H205.7V8h3.431z" fill="#FFF"/><path d="M44.54 38.374c.085 0 .178.024.278.073a.632.632 0 01.363.598.676.676 0 01-.11.39.764.764 0 01-.234.224l.43.811h-.505l-.368-.71h-.457v.71h-.46v-2.096h1.063zm-.165.34h-.438v.706h.426c.063 0 .131-.032.203-.094.074-.063.11-.156.11-.28 0-.13-.036-.217-.11-.263a.378.378 0 00-.19-.069zm-.103 2.461c.32 0 .61-.078.87-.233a1.75 1.75 0 00.624-.625c.156-.26.234-.55.234-.869 0-.319-.078-.609-.234-.869a1.75 1.75 0 00-.625-.625 1.657 1.657 0 00-.869-.234c-.318 0-.607.078-.869.234a1.75 1.75 0 00-.625.625c-.155.26-.233.55-.233.87 0 .317.078.607.233.868.155.262.363.47.625.625.262.155.551.233.87.233zm0 .545a2.23 2.23 0 01-1.607-.664 2.297 2.297 0 01-.489-.724 2.218 2.218 0 01-.176-.884c0-.315.058-.61.176-.884a2.301 2.301 0 011.213-1.213 2.23 2.23 0 01.883-.176c.315 0 .61.06.884.176a2.287 2.287 0 011.213 1.213c.117.274.176.57.176.884 0 .314-.059.61-.176.884a2.294 2.294 0 01-1.213 1.213 2.228 2.228 0 01-.884.175z" fill="#FFF" opacity=".25"/><path d="M57.26 30.242c.24 0 .494.028.764.084.269.055.522.159.757.306.236.15.43.361.58.635.151.274.227.631.227 1.069v3.985h-1.141v-.822h-.046c-.076.152-.189.3-.34.447a1.841 1.841 0 01-.582.363 2.247 2.247 0 01-.852.144c-.38 0-.724-.072-1.031-.213a1.719 1.719 0 01-.729-.62c-.178-.27-.267-.601-.267-.995 0-.339.065-.617.195-.837.13-.217.306-.39.527-.518.222-.129.469-.225.743-.29.273-.066.552-.113.836-.148l.875-.104c.224-.026.386-.072.488-.135.101-.062.152-.164.152-.305v-.026c0-.341-.096-.605-.287-.794-.191-.186-.476-.28-.853-.28-.394 0-.703.087-.928.26a1.403 1.403 0 00-.467.575l-1.098-.25c.131-.363.321-.659.573-.884.251-.226.541-.39.869-.492a3.434 3.434 0 011.035-.154zm56.6 0c.24 0 .494.028.764.084.269.055.522.159.757.306.236.15.43.361.58.635.151.274.227.631.227 1.069v3.985h-1.141v-.822h-.046c-.076.152-.189.3-.34.447a1.841 1.841 0 01-.582.363 2.247 2.247 0 01-.852.144c-.38 0-.724-.072-1.031-.213a1.719 1.719 0 01-.729-.62c-.178-.27-.267-.601-.267-.995 0-.339.065-.617.195-.837.13-.217.306-.39.527-.518.222-.129.469-.225.743-.29.273-.066.552-.113.836-.148l.875-.104c.224-.026.386-.072.488-.135.101-.062.152-.164.152-.305v-.026c0-.341-.096-.605-.287-.794-.191-.186-.476-.28-.853-.28-.394 0-.703.087-.928.26a1.403 1.403 0 00-.467.575l-1.098-.25c.131-.363.321-.659.573-.884.251-.226.541-.39.869-.492a3.434 3.434 0 011.035-.154zm75.232 0c.649 0 1.159.14 1.532.42.371.28.617.654.738 1.123l-1.059.187a1.312 1.312 0 00-.209-.386 1.074 1.074 0 00-.384-.301 1.393 1.393 0 00-.606-.117c-.332 0-.607.073-.828.221-.223.147-.332.336-.332.568 0 .2.074.362.223.484.148.122.386.223.718.301l.954.219c.55.128.962.324 1.234.59.269.265.406.61.406 1.035 0 .359-.103.678-.31.959-.207.28-.496.499-.864.658-.369.159-.795.238-1.279.238-.672 0-1.221-.143-1.644-.431-.426-.288-.686-.698-.782-1.229l1.129-.172c.07.294.215.517.434.666.219.15.504.225.855.225.383 0 .688-.08.918-.24.229-.161.344-.357.344-.588a.617.617 0 00-.209-.473c-.141-.128-.354-.224-.639-.289l-1.015-.223c-.561-.128-.975-.331-1.241-.609-.267-.278-.4-.632-.4-1.059 0-.354.098-.664.297-.929.197-.266.471-.474.82-.623.348-.15.748-.225 1.199-.225zm-5.7 0c.649 0 1.159.14 1.532.42.371.28.617.654.738 1.123l-1.059.187a1.312 1.312 0 00-.209-.386 1.074 1.074 0 00-.384-.301 1.393 1.393 0 00-.606-.117c-.332 0-.607.073-.828.221-.223.147-.332.336-.332.568 0 .2.074.362.223.484.148.122.386.223.718.301l.954.219c.55.128.962.324 1.234.59.269.265.406.61.406 1.035 0 .359-.103.678-.31.959-.207.28-.496.499-.864.658-.369.159-.795.238-1.279.238-.672 0-1.221-.143-1.644-.431-.426-.288-.686-.698-.782-1.229l1.129-.172c.07.294.215.517.434.666.219.15.504.225.855.225.383 0 .688-.08.918-.24.229-.161.344-.357.344-.588a.617.617 0 00-.209-.473c-.141-.128-.354-.224-.639-.289l-1.015-.223c-.561-.128-.975-.331-1.241-.609-.267-.278-.4-.632-.4-1.059 0-.354.098-.664.297-.929.197-.266.471-.474.82-.623.348-.15.748-.225 1.199-.225zm-6.019 0c.338 0 .666.055.984.168.317.112.602.288.856.527.252.24.451.55.597.932.145.382.219.844.219 1.388v.414h-4.263l.004.114c.02.318.088.594.206.828.141.281.34.495.596.642.254.148.553.221.895.221.22 0 .422-.032.605-.096.182-.063.34-.159.473-.287.133-.128.234-.285.305-.472l1.105.2a2.02 2.02 0 01-.475.852 2.296 2.296 0 01-.855.567 3.2 3.2 0 01-1.17.201c-.592 0-1.1-.127-1.525-.38a2.543 2.543 0 01-.985-1.075c-.23-.462-.345-1.005-.345-1.627 0-.614.115-1.156.345-1.625a2.65 2.65 0 01.969-1.098c.414-.262.9-.394 1.459-.394zm-15.381 0c.649 0 1.159.14 1.532.42.371.28.617.654.738 1.123l-1.059.187a1.312 1.312 0 00-.209-.386 1.074 1.074 0 00-.384-.301 1.393 1.393 0 00-.606-.117c-.332 0-.607.073-.828.221-.223.147-.332.336-.332.568 0 .2.074.362.223.484.148.122.386.223.718.301l.954.219c.55.128.962.324 1.234.59.269.265.406.61.406 1.035 0 .359-.103.678-.31.959-.207.28-.496.499-.864.658-.369.159-.795.238-1.279.238-.672 0-1.221-.143-1.644-.431-.426-.288-.686-.698-.782-1.229l1.129-.172c.07.294.215.517.434.666.219.15.504.225.855.225.383 0 .688-.08.918-.24.229-.161.344-.357.344-.588a.617.617 0 00-.209-.473c-.141-.128-.354-.224-.639-.289l-1.015-.223c-.561-.128-.975-.331-1.241-.609-.267-.278-.4-.632-.4-1.059 0-.354.098-.664.297-.929.197-.266.471-.474.82-.623.348-.15.748-.225 1.199-.225zm-42.007 0c.456 0 .862.084 1.219.252.357.168.645.403.865.705.22.302.351.655.393 1.058h-1.137a1.361 1.361 0 00-.428-.726c-.222-.203-.52-.305-.892-.305-.326 0-.61.085-.854.256a1.669 1.669 0 00-.568.727c-.135.313-.203.684-.203 1.111 0 .437.066.815.199 1.133.133.317.321.563.564.738.244.175.531.262.862.262.221 0 .422-.04.603-.123.181-.082.334-.2.457-.354a1.34 1.34 0 00.26-.555h1.137a2.216 2.216 0 01-.379 1.04 2.192 2.192 0 01-.846.718c-.353.175-.766.262-1.24.262-.581 0-1.08-.132-1.498-.396a2.6 2.6 0 01-.963-1.096c-.224-.466-.336-1-.336-1.602 0-.609.115-1.147.344-1.615a2.63 2.63 0 01.969-1.096c.416-.262.907-.394 1.472-.394zm19.088 0c.338 0 .666.055.984.168.317.112.602.288.856.527.252.24.451.55.597.932.145.382.219.844.219 1.388v.414h-4.263l.004.114c.02.318.088.594.206.828.141.281.34.495.596.642.254.148.553.221.895.221.22 0 .422-.032.605-.096.182-.063.34-.159.473-.287.133-.128.234-.285.305-.472l1.105.2a2.02 2.02 0 01-.475.852 2.296 2.296 0 01-.855.567 3.2 3.2 0 01-1.17.201c-.592 0-1.1-.127-1.525-.38a2.543 2.543 0 01-.985-1.075c-.23-.462-.345-1.005-.345-1.627 0-.614.115-1.156.345-1.625a2.65 2.65 0 01.969-1.098c.414-.262.9-.394 1.459-.394zm-35.8 0c.338 0 .666.055.984.168.318.112.603.288.856.527.252.24.451.55.597.932.146.382.219.844.219 1.388v.414h-4.263l.004.114c.02.318.088.594.206.828.143.281.341.495.596.642.256.148.553.221.895.221.221 0 .423-.032.605-.096.182-.063.34-.159.473-.287.133-.128.234-.285.305-.472l1.105.2a1.99 1.99 0 01-.475.852 2.296 2.296 0 01-.855.567 3.192 3.192 0 01-1.17.201c-.591 0-1.1-.127-1.525-.38a2.543 2.543 0 01-.985-1.075c-.23-.462-.345-1.005-.345-1.627 0-.614.115-1.156.345-1.625a2.65 2.65 0 01.969-1.098c.416-.262.902-.394 1.459-.394zm-22.746-1.294c.508 0 .956.087 1.342.264a2.2 2.2 0 01.909.733c.22.31.334.668.341 1.07h-1.19a.997.997 0 00-.437-.745c-.255-.178-.583-.267-.983-.267-.285 0-.528.043-.732.13-.203.085-.36.204-.471.352a.846.846 0 00-.165.512.72.72 0 00.111.413.974.974 0 00.3.291c.124.08.261.148.41.201.149.054.298.1.447.136l.689.174c.261.061.516.144.767.25.251.105.479.24.682.401.204.163.366.36.488.595s.183.511.183.83c0 .423-.107.794-.323 1.117-.216.322-.527.573-.934.755-.407.183-.9.274-1.477.274-.556 0-1.039-.087-1.449-.261a2.17 2.17 0 01-.96-.757c-.231-.33-.356-.727-.375-1.194h1.225c.019.258.099.471.241.64.142.17.327.296.555.38.227.085.479.127.756.127.293 0 .554-.045.781-.138.227-.09.405-.218.534-.38a.889.889 0 00.194-.569.73.73 0 00-.17-.494 1.304 1.304 0 00-.471-.323c-.2-.086-.43-.163-.691-.23l-.841-.22c-.592-.157-1.06-.392-1.405-.703-.344-.31-.517-.724-.517-1.24 0-.424.116-.794.347-1.114.231-.318.545-.566.942-.743a3.265 3.265 0 011.347-.267zm67.682-.264v2.845h.063c.066-.127.162-.27.285-.427.123-.158.293-.294.51-.411.215-.115.498-.172.846-.172.455 0 .863.115 1.222.344.362.23.647.566.854 1.005.209.44.314.974.314 1.6 0 .62-.103 1.153-.31 1.593-.205.442-.489.78-.848 1.015a2.189 2.189 0 01-1.225.353c-.339 0-.619-.058-.838-.172a1.683 1.683 0 01-.517-.404 2.428 2.428 0 01-.293-.427h-.09v.894H147v-7.636h1.209zm-81.303.265c.398 0 .768.056 1.112.168.343.113.65.277.921.494.271.216.495.48.669.792.176.31.293.667.352 1.067h-1.25a1.62 1.62 0 00-.616-1.037 1.7 1.7 0 00-.534-.274 2.159 2.159 0 00-.636-.092c-.405 0-.764.1-1.078.303-.313.204-.56.499-.74.888-.18.39-.27.865-.27 1.426 0 .568.09 1.048.271 1.436.182.39.429.684.743.883.314.199.671.298 1.07.298.223 0 .433-.03.629-.09a1.638 1.638 0 00.934-.695c.109-.17.185-.365.227-.585l1.25.007c-.054.35-.165.677-.33.978a2.765 2.765 0 01-.647.79 2.942 2.942 0 01-.921.526 3.382 3.382 0 01-1.156.188c-.634 0-1.201-.148-1.699-.446a3.099 3.099 0 01-1.177-1.283c-.287-.56-.43-1.228-.43-2.007 0-.781.144-1.45.432-2.008a3.109 3.109 0 011.18-1.282 3.251 3.251 0 011.694-.445zm31.541-.066l-.001 1.437h1.231v.938h-1.231l.001 3.3c0 .227.034.397.102.51.067.114.155.19.263.23.108.04.226.062.354.062.093 0 .176-.007.246-.02l.164-.031.211.965a2.216 2.216 0 01-.758.125 2.066 2.066 0 01-.859-.164 1.475 1.475 0 01-.645-.532c-.164-.24-.246-.54-.246-.902l-.001-3.543H96.4v-.937l.878-.001.001-1.437h1.168zm26.6 0v1.437h1.23v.938h-1.23v3.3c0 .227.034.397.102.51.067.114.155.19.263.23.108.04.226.062.354.062.093 0 .176-.007.246-.02l.164-.031.211.965a2.216 2.216 0 01-.758.125 2.066 2.066 0 01-.859-.164 1.475 1.475 0 01-.645-.532c-.164-.24-.246-.54-.246-.902v-3.543H123v-.937l.879-.001v-1.437h1.168zm29.621 1.437v3.676c0 .409.113.734.34.977.227.242.522.363.883.363a1.446 1.446 0 001.197-.66c.145-.222.217-.503.213-.844V30.32h1.172v6h-1.149v-1.04h-.062a1.841 1.841 0 01-.662.8c-.303.212-.68.318-1.131.318-.385 0-.725-.085-1.022-.255a1.767 1.767 0 01-.695-.76c-.168-.336-.252-.751-.252-1.246V30.32h1.168zm-65.982-1.272v7.272H87.5v-7.272h1.186zm78.13 1.272v6h-1.168v-6h1.168zm4.649-.078c.41 0 .767.085 1.074.256.309.17.547.424.715.76.17.336.254.75.254 1.246v3.817h-1.168v-3.676c0-.435-.113-.776-.34-1.022-.227-.246-.537-.37-.934-.37a1.46 1.46 0 00-.72.177 1.25 1.25 0 00-.496.514 1.7 1.7 0 00-.182.814v3.563H168.5V30.32h1.121v.977h.074c.139-.317.356-.573.651-.766.297-.192.67-.29 1.119-.29zm-78 0c.409 0 .767.085 1.074.256.307.17.546.424.715.76.169.336.254.75.254 1.246v3.817H94.34v-3.676c0-.435-.113-.776-.34-1.022-.227-.246-.538-.37-.934-.37a1.45 1.45 0 00-.72.177c-.21.117-.375.288-.496.514a1.7 1.7 0 00-.182.814v3.563H90.5V30.32h1.121v.977h.074c.139-.317.355-.573.651-.766.295-.192.668-.29 1.119-.29zm-19.224-1.194c.523 0 .957.083 1.302.248.344.166.602.392.774.678.172.286.257.61.257.97 0 .296-.056.548-.168.758a1.41 1.41 0 01-.453.506c-.19.128-.4.22-.632.277v.07c.253.015.497.094.731.237.235.143.428.345.579.607.152.262.228.577.228.946 0 .377-.09.714-.268 1.011-.179.297-.452.532-.817.705-.366.173-.828.26-1.387.26H71.5v-7.273h2.741zm54.578 1.272v6h-1.168v-6h1.168zm2.434 0l1.52 4.617h.062l1.516-4.617h1.254l-2.176 6h-1.25l-2.179-6h1.253zm-21.338-.09c.164 0 .311.02.441.06.131.038.245.092.344.16l-.375.975a1.299 1.299 0 00-.238-.084 1.272 1.272 0 00-.305-.033 1.49 1.49 0 00-.725.174 1.305 1.305 0 00-.689 1.174v3.664H107.2v-6h1.129v.953h.062c.11-.323.303-.577.579-.764a1.65 1.65 0 01.945-.279zM58.42 33.382a.583.583 0 01-.24.116 3.09 3.09 0 01-.404.09c-.151.024-.299.047-.442.066l-.359.05a2.853 2.853 0 00-.619.143 1.06 1.06 0 00-.446.291c-.111.127-.166.294-.166.503 0 .288.107.507.321.654.213.148.485.22.816.22.323 0 .6-.063.83-.19.231-.129.406-.296.527-.503.122-.207.182-.428.182-.666v-.773zm56.6 0a.583.583 0 01-.24.116 3.09 3.09 0 01-.404.09c-.151.024-.299.047-.442.066l-.359.05a2.853 2.853 0 00-.619.143 1.06 1.06 0 00-.446.291c-.111.127-.166.294-.166.503 0 .288.107.507.321.654.213.148.485.22.816.22.323 0 .6-.063.83-.19.231-.129.406-.296.527-.503.122-.207.182-.428.182-.666v-.773zm34.602-1.853c-.311 0-.573.08-.788.24a1.47 1.47 0 00-.484.673 2.865 2.865 0 00-.164 1.015c0 .39.057.73.168 1.025.111.293.273.522.486.686.213.164.473.246.782.246.318 0 .585-.085.8-.255.215-.171.377-.403.489-.7a2.89 2.89 0 00.166-1.002c0-.371-.055-.701-.164-.99a1.54 1.54 0 00-.487-.687c-.215-.167-.484-.251-.804-.251zm-75.366 1.545h-1.517v2.206h1.478c.494 0 .851-.097 1.068-.288a.927.927 0 00.327-.728 1.14 1.14 0 00-.165-.604 1.166 1.166 0 00-.471-.428 1.55 1.55 0 00-.72-.158zm29.025-1.867c-.328 0-.614.08-.858.24-.243.16-.431.368-.562.625a1.787 1.787 0 00-.19.657l-.003.067h3.117c0-.307-.063-.58-.188-.818a1.42 1.42 0 00-.525-.564 1.483 1.483 0 00-.791-.207zm35.8 0c-.328 0-.615.08-.858.24a1.61 1.61 0 00-.562.625 1.748 1.748 0 00-.19.657l-.003.067h3.117c0-.307-.063-.58-.188-.818a1.427 1.427 0 00-.525-.564 1.49 1.49 0 00-.791-.207zm38.3 0c-.328 0-.615.08-.858.24a1.61 1.61 0 00-.562.625 1.748 1.748 0 00-.19.657l-.003.067h3.117c0-.307-.063-.58-.188-.818a1.427 1.427 0 00-.525-.564 1.49 1.49 0 00-.791-.207zm-103.25-1.126h-1.392v2.077h1.364c.234 0 .445-.044.632-.13a1.08 1.08 0 00.445-.374.983.983 0 00.166-.572.942.942 0 00-.304-.717c-.202-.189-.506-.284-.911-.284zM128.241 28c.203 0 .377.068.522.205.144.137.216.3.216.49a.655.655 0 01-.216.494.733.733 0 01-.522.205.729.729 0 01-.521-.205.647.647 0 01-.217-.49c0-.192.072-.357.217-.494a.729.729 0 01.521-.205zm37.997 0c.203 0 .377.068.521.205a.65.65 0 01.217.49.652.652 0 01-.217.494.729.729 0 01-.521.205.729.729 0 01-.521-.205.647.647 0 01-.217-.49c0-.192.072-.357.217-.494a.729.729 0 01.521-.205z" fill="#FFF" opacity=".5"/></g></svg>