<svg xmlns="http://www.w3.org/2000/svg" width="159" height="195" viewBox="0 0 159 195">
  <rect width="16" height="180" x="57" y="7" fill="#D8D5CD"/>
  <rect width="16" height="88" x="57" y="35" fill="#BBAAAA" fill-opacity=".4"/>
  <polygon fill="#DD4455" points="45.734 15 85.532 15.347 113.427 43.734 113.08 83.532 84.693 111.427 44.896 111.08 17 82.693 17.347 42.896"/>
  <path fill="#FFFFFF" fill-opacity=".9" d="M45.520457,14.7864396 L85.318019,15.1337476 L113.21356,43.5204571 L112.866252,83.3180187 L84.479543,111.21356 L44.681981,110.866252 L16.78644,82.4795429 L17.133748,42.6819813 L45.520457,14.7864396 Z M48.764227,22.8150521 L25.104526,46.0653759 L24.815052,79.2357728 L48.065376,102.895474 L81.235773,103.184948 L104.895474,79.9346241 L105.184948,46.7642272 L81.934624,23.1045258 L48.764227,22.8150521 Z"/>
  <path fill="#DD4455" d="M45.520457,14.7864396 L85.318019,15.1337476 L113.21356,43.5204571 L112.866252,83.3180187 L84.479543,111.21356 L44.681981,110.866252 L16.78644,82.4795429 L17.133748,42.6819813 L45.520457,14.7864396 Z M47.142342,18.8007459 L21.119137,44.3736786 L20.800746,80.8576578 L46.373679,106.880863 L82.857658,107.199254 L108.880863,81.6263214 L109.199254,45.1423422 L83.626321,19.1191367 L47.142342,18.8007459 Z"/>
  <path fill="#FFFFFF" d="M61.48,67.52 C61.026664,67.52 60.8,67.2933356 60.8,66.84 L60.8,65.76 C60.8,64.42666 61.139997,63.3533374 61.82,62.54 C62.5,61.7266626 63.479994,60.8666712 64.76,59.96 C65.800005,59.2399964 66.573331,58.6000028 67.08,58.04 C67.586669,57.4799972 67.84,56.800004 67.84,56 C67.84,55.1466624 67.520003,54.4600026 66.88,53.94 C66.239997,53.4199974 65.400005,53.16 64.36,53.16 C63.239994,53.16 62.340003,53.4399972 61.66,54 C60.979997,54.5600028 60.64,55.2799956 60.64,56.16 L60.64,56.6 C60.64,57.0266688 60.413336,57.24 59.96,57.24 L55.68,57.08 C55.493332,57.08 55.333334,57.0333338 55.2,56.94 C55.066666,56.8466662 55,56.733334 55,56.6 L55,56.16 C55,54.559992 55.399996,53.1400062 56.2,51.9 C57,50.6599938 58.113326,49.7000034 59.54,49.02 C60.966674,48.3399966 62.613324,48 64.48,48 C66.293342,48 67.88666,48.3266634 69.26,48.98 C70.63334,49.6333366 71.69333,50.5466608 72.44,51.72 C73.18667,52.8933392 73.56,54.2533256 73.56,55.8 C73.56,56.9733392 73.353335,57.9799958 72.94,58.82 C72.526665,59.6600042 72.02667,60.346664 71.44,60.88 C70.85333,61.413336 70.106671,62 69.2,62.64 C68.239995,63.30667 67.533336,63.8799976 67.08,64.36 C66.626664,64.8400024 66.4,65.4266632 66.4,66.12 L66.4,66.84 C66.4,67.2933356 66.173336,67.52 65.72,67.52 L61.48,67.52 Z M63.84,76.48 C62.906662,76.48 62.10667,76.1666698 61.44,75.54 C60.77333,74.9133302 60.44,74.1600044 60.44,73.28 C60.44,72.3999956 60.779997,71.6466698 61.46,71.02 C62.140003,70.3933302 62.946662,70.08 63.88,70.08 C64.786671,70.08 65.579997,70.3933302 66.26,71.02 C66.94,71.6466698 67.28,72.3999956 67.28,73.28 C67.28,74.1600044 66.94,74.9133302 66.26,75.54 C65.579997,76.1666698 64.773338,76.48 63.84,76.48 Z"/>
  <polygon fill="#FF9944" points="124 186 76 186 92 116 108 116"/>
  <polygon fill="#FFFFFF" points="85 141 115 141 113 133 87 133"/>
  <polygon fill="#FFFFFF" points="81 159 119 159 117 151 83 151"/>
  <path fill="#A3612B" d="M60,188 L140,188 C141.656854,188 143,186.656854 143,185 C143,183.343146 141.656854,182 140,182 L60,182 C58.343146,182 57,183.343146 57,185 C57,186.656854 58.343146,188 60,188 Z"/>
</svg>
