<svg xmlns="http://www.w3.org/2000/svg" width="248" height="160" viewBox="0 0 248 160"><defs><linearGradient id="a" x1="50%" x2="50%" y1="0%" y2="99.984%"><stop stop-color="#68DAFF" stop-opacity="0" offset="0%"/><stop stop-color="#FFF" offset="47.96%"/><stop stop-color="#68DAFF" stop-opacity="0" offset="100%"/></linearGradient><linearGradient id="b" x1="50%" x2="50%" y1="0%" y2="99.723%"><stop stop-color="#68DAFF" stop-opacity="0" offset="0%"/><stop stop-color="#FFF" offset="47.96%"/><stop stop-color="#68DAFF" stop-opacity="0" offset="99.913%"/></linearGradient></defs><g fill="none"><path fill="url(#a)" transform="rotate(45 167 113.054)" d="M163 71.054h8v84h-8z"/><path fill="url(#b)" transform="rotate(45 167 93)" d="M163 51h8v84h-8z"/><path fill="url(#a)" transform="rotate(45 70 73.054)" d="M66 31.054h8v84h-8z"/><path fill="#D8D5CD" opacity=".9" d="M123.42 24.7l4.242 4.243-41.72 41.719-4.242-4.243z"/><path fill="#D8D5CD" opacity=".9" d="M124.243 24.7L120 28.943l41.72 41.719 4.242-4.243z"/><path fill="#E55" d="M72 62h104v52H72z"/><path fill="#FFF" fill-opacity=".9" d="M69 59h110v58H69V59zm3 3v52h104V62H72z"/><path fill="#000" fill-opacity=".2" d="M72 62h104v52H72V62zm4 4v44h96V66H76z"/><path fill="#FFF" d="M95.94 94.604c-.988 0-1.856-.193-2.603-.58a4.161 4.161 0 01-1.729-1.624c-.405-.697-.608-1.501-.608-2.413v-4.389c0-.912.203-1.716.608-2.413a4.1 4.1 0 011.729-1.615c.747-.38 1.615-.57 2.603-.57.975 0 1.833.18 2.575.541a4.087 4.087 0 011.728 1.54c.412.665.618 1.434.618 2.308 0 .114-.101.184-.304.209l-2.033.133h-.076c-.177 0-.266-.032-.266-.095v-.114c0-.671-.206-1.21-.618-1.615-.411-.405-.953-.608-1.624-.608-.684 0-1.232.203-1.644.608-.411.405-.617.944-.617 1.615v4.579c0 .659.206 1.19.617 1.596.412.405.96.608 1.644.608.671 0 1.213-.203 1.624-.608.412-.405.618-.937.618-1.596a.2.2 0 01.085-.162c.058-.044.137-.06.238-.047l2.033.095c.215.025.323.057.323.095v.095c0 .874-.206 1.647-.618 2.318a4.129 4.129 0 01-1.728 1.558c-.742.367-1.6.551-2.575.551zm7.501-.152c-.215 0-.323-.108-.323-.323V81.475c0-.215.108-.323.323-.323h2.033c.215 0 .323.108.323.323v10.564c0 .076.038.114.114.114h6.099c.215 0 .323.108.323.323v1.653c0 .215-.108.323-.323.323h-8.569zm15.424.209c-.988 0-1.859-.203-2.612-.608a4.37 4.37 0 01-1.758-1.7c-.418-.729-.627-1.568-.627-2.518v-4.066c0-.937.209-1.767.627-2.489a4.324 4.324 0 011.757-1.681c.754-.4 1.625-.599 2.613-.599 1 0 1.878.2 2.632.599a4.326 4.326 0 011.757 1.681c.418.722.627 1.552.627 2.489v4.066c0 .95-.209 1.792-.627 2.527a4.289 4.289 0 01-1.758 1.7c-.753.4-1.63.599-2.631.599zm0-2.299c.697 0 1.26-.222 1.691-.665.43-.443.646-1.032.646-1.767v-4.18c0-.735-.212-1.327-.636-1.776-.425-.45-.992-.675-1.701-.675-.697 0-1.257.225-1.681.674-.425.45-.637 1.042-.637 1.777v4.18c0 .735.212 1.324.636 1.767.425.443.985.665 1.682.665zm11.871 2.242c-.988 0-1.856-.165-2.603-.494-.747-.33-1.324-.792-1.729-1.387s-.608-1.292-.608-2.09v-.323c0-.215.108-.323.323-.323h1.995c.215 0 .323.082.323.247v.266c0 .507.231.934.694 1.282.462.349 1.067.523 1.814.523.671 0 1.168-.142 1.492-.428a1.35 1.35 0 00.484-1.054c0-.304-.101-.56-.304-.77a2.71 2.71 0 00-.817-.55 24.138 24.138 0 00-1.653-.656c-.861-.291-1.583-.589-2.166-.893a4.452 4.452 0 01-1.482-1.244c-.405-.526-.608-1.175-.608-1.948 0-.76.196-1.425.589-1.995.393-.57.94-1.007 1.644-1.311.703-.304 1.504-.456 2.403-.456.963 0 1.824.171 2.584.513.76.342 1.352.82 1.776 1.434.425.615.637 1.327.637 2.138v.19c0 .215-.108.323-.323.323h-1.995c-.215 0-.323-.063-.323-.19v-.19c0-.532-.218-.985-.656-1.359-.437-.373-1.035-.56-1.795-.56-.608 0-1.077.127-1.406.38-.33.253-.494.602-.494 1.045 0 .317.095.583.285.798.19.215.478.412.864.589.387.177.985.405 1.796.684.887.33 1.59.617 2.109.864.52.248.985.624 1.396 1.131.412.507.618 1.159.618 1.957 0 .773-.2 1.45-.599 2.033-.399.583-.962 1.032-1.69 1.349-.729.317-1.587.475-2.575.475zm16.279-11.476c0 .215-.108.323-.323.323h-6.118c-.076 0-.114.038-.114.114v2.907c0 .076.038.114.114.114h3.971c.215 0 .323.108.323.323v1.653c0 .215-.108.323-.323.323h-3.971c-.076 0-.114.038-.114.114v3.04c0 .076.038.114.114.114h6.118c.215 0 .323.108.323.323v1.653c0 .215-.108.323-.323.323h-8.588c-.215 0-.323-.108-.323-.323V81.475c0-.215.108-.323.323-.323h8.588c.215 0 .323.108.323.323v1.653zm2.485 11.324c-.215 0-.323-.108-.323-.323V81.475c0-.215.108-.323.323-.323h4.655c.95 0 1.783.168 2.499.504.715.335 1.27.807 1.662 1.415.393.608.589 1.311.589 2.109v5.244c0 .798-.196 1.501-.589 2.109-.393.608-.947 1.08-1.662 1.415-.716.336-1.549.504-2.499.504H149.5zm2.356-2.413c0 .076.038.114.114.114h2.28c.583 0 1.054-.196 1.416-.589.36-.393.547-.918.56-1.577v-4.37c0-.659-.18-1.184-.541-1.577-.362-.393-.846-.589-1.454-.589h-2.261c-.076 0-.114.038-.114.114v8.474z"/><circle cx="124" cy="28" r="4" fill="#778"/></g></svg>