<svg xmlns="http://www.w3.org/2000/svg" width="280" height="195" viewBox="0 0 280 195" xmlns:xlink="http://www.w3.org/1999/xlink">
  <defs>
    <rect id="a" width="248" height="32"/>
    <rect id="c" width="248" height="32"/>
  </defs>
  <g fill="none" fill-rule="evenodd" transform="translate(16 18)">
    <rect width="16" height="160" x="32" fill="#D8D5CD"/>
    <rect width="16" height="88" x="32" y="28" fill="#BBAAAA" fill-opacity=".4"/>
    <rect width="16" height="160" x="200" fill="#D8D5CD"/>
    <rect width="16" height="88" x="200" y="28" fill="#BBAAAA" fill-opacity=".4"/>
    <g transform="translate(0 16)">
      <rect width="248" height="32" fill="#D8D5CD"/>
      <rect width="248" height="32" fill="#FFFFFF" fill-opacity=".4"/>
      <rect width="248" height="32" fill="#E7E5E1"/>
      <mask id="b" fill="white"><use xlink:href="#a"/></mask>
      <path fill="#DD4455" d="M60.1986909,-39.6761179 L78.5837576,-24.2492153 L1.44924441,67.6761179 L-16.9358222,52.2492153 L60.1986909,-39.6761179 Z M123.198271,-39.6761179 L141.583337,-24.2492153 L64.4488242,67.6761179 L46.0637576,52.2492153 L123.198271,-39.6761179 Z M186.197851,-39.6761179 L204.582917,-24.2492153 L127.448404,67.6761179 L109.063337,52.2492153 L186.197851,-39.6761179 Z M249.19743,-39.6761179 L267.582497,-24.2492153 L190.447984,67.6761179 L172.062917,52.2492153 L249.19743,-39.6761179 Z" mask="url(#b)"/>
    </g>
    <g transform="translate(0 72)">
      <rect width="248" height="32" fill="#D8D5CD"/>
      <rect width="248" height="32" fill="#FFFFFF" fill-opacity=".4"/>
      <rect width="248" height="32" fill="#E7E5E1"/>
      <mask id="d" fill="white"><use xlink:href="#c"/></mask>
      <path fill="#DD4455" d="M60.1986909,-39.6761179 L78.5837576,-24.2492153 L1.44924441,67.6761179 L-16.9358222,52.2492153 L60.1986909,-39.6761179 Z M123.198271,-39.6761179 L141.583337,-24.2492153 L64.4488242,67.6761179 L46.0637576,52.2492153 L123.198271,-39.6761179 Z M186.197851,-39.6761179 L204.582917,-24.2492153 L127.448404,67.6761179 L109.063337,52.2492153 L186.197851,-39.6761179 Z M249.19743,-39.6761179 L267.582497,-24.2492153 L190.447984,67.6761179 L172.062917,52.2492153 L249.19743,-39.6761179 Z" mask="url(#d)"/>
    </g>
    <polygon fill="#EECC00" points="124 0 184 60 124 120 64 60"/>
    <path fill="#220011" fill-opacity=".9" d="M124,0 L184,60 L124,120 L64,60 L124,0 Z M124,11.3137085 L75.313708,60 L124,108.686292 L172.686292,60 L124,11.3137085 Z"/>
    <path fill="#EECC00" d="M124,0 L184,60 L124,120 L64,60 L124,0 Z M124,5.6568542 L69.656854,60 L124,114.343146 L178.343146,60 L124,5.6568542 Z"/>
    <path fill="#000000" fill-opacity=".9" d="M122.0875,63.4 C121.634164,63.4 121.4075,63.1733356 121.4075,62.72 L120.9275,45.68 C120.9275,45.2266644 121.140831,45 121.5675,45 L125.8475,45 C126.274169,45 126.4875,45.2266644 126.4875,45.68 L125.9675,62.72 C125.9675,63.1733356 125.727502,63.4 125.2475,63.4 L122.0875,63.4 Z M123.6075,72.96 C122.567495,72.96 121.700837,72.6200034 121.0075,71.94 C120.314163,71.2599966 119.9675,70.4400048 119.9675,69.48 C119.9675,68.546662 120.334163,67.7400034 121.0675,67.06 C121.800837,66.3799966 122.647495,66.04 123.6075,66.04 C124.567505,66.04 125.42083,66.3799966 126.1675,67.06 C126.91417,67.7400034 127.2875,68.546662 127.2875,69.48 C127.2875,70.4400048 126.93417,71.2599966 126.2275,71.94 C125.52083,72.6200034 124.647505,72.96 123.6075,72.96 Z" opacity=".9"/>
  </g>
</svg>
