<svg xmlns="http://www.w3.org/2000/svg" width="280" height="195" viewBox="0 0 280 195" xmlns:xlink="http://www.w3.org/1999/xlink"><defs><path id="a" d="M0 0h248v32H0z"/><path id="c" d="M0 0h248v32H0z"/></defs><g fill="none"><path fill="#D8D5CD" d="M48 18h16v160H48z"/><path fill="#BAA" fill-opacity=".4" d="M48 46h16v88H48z"/><path fill="#D8D5CD" d="M216 18h16v160h-16z"/><path fill="#BAA" fill-opacity=".4" d="M216 46h16v88h-16z"/><g transform="translate(16 34)"><path fill="#D8D5CD" d="M0 0h248v32H0z"/><path fill="#FFF" fill-opacity=".4" d="M0 0h248v32H0z"/><path fill="#E7E5E1" d="M0 0h248v32H0z"/><mask id="b" fill="#fff"><use xlink:href="#a"/></mask><path fill="#D45" d="M60.199-39.676L78.584-24.25 1.449 67.676-16.936 52.25 60.2-39.676zm63 0l18.384 15.427L64.45 67.676 46.064 52.25l77.134-91.925zm62.999 0l18.385 15.427-77.135 91.925-18.385-15.427 77.135-91.925zm63 0l18.384 15.427-77.134 91.925-18.385-15.427 77.134-91.925z" mask="url(#b)"/></g><g transform="translate(16 90)"><path fill="#D8D5CD" d="M0 0h248v32H0z"/><path fill="#FFF" fill-opacity=".4" d="M0 0h248v32H0z"/><path fill="#E7E5E1" d="M0 0h248v32H0z"/><mask id="d" fill="#fff"><use xlink:href="#c"/></mask><path fill="#D45" d="M60.199-39.676L78.584-24.25 1.449 67.676-16.936 52.25 60.2-39.676zm63 0l18.384 15.427L64.45 67.676 46.064 52.25l77.134-91.925zm62.999 0l18.385 15.427-77.135 91.925-18.385-15.427 77.135-91.925zm63 0l18.384 15.427-77.134 91.925-18.385-15.427 77.134-91.925z" mask="url(#d)"/></g><path fill="#EC0" d="M140 18l60 60-60 60-60-60z"/><path fill="#201" fill-opacity=".9" d="M140 18l60 60-60 60-60-60 60-60zm0 11.314L91.314 78 140 126.686 188.686 78 140 29.314z"/><path fill="#EC0" d="M140 18l60 60-60 60-60-60 60-60zm0 5.657L85.657 78 140 132.343 194.343 78 140 23.657z"/><path fill="#000" fill-opacity=".9" d="M138.088 81.4c-.454 0-.68-.227-.68-.68l-.48-17.04c0-.453.213-.68.64-.68h4.28c.426 0 .64.227.64.68l-.52 17.04c0 .453-.24.68-.72.68h-3.16zm1.52 9.56c-1.04 0-1.907-.34-2.6-1.02-.694-.68-1.04-1.5-1.04-2.46 0-.933.366-1.74 1.1-2.42.733-.68 1.58-1.02 2.54-1.02s1.813.34 2.56 1.02c.746.68 1.12 1.487 1.12 2.42 0 .96-.354 1.78-1.06 2.46-.707.68-1.58 1.02-2.62 1.02z" opacity=".9"/></g></svg>