<svg xmlns="http://www.w3.org/2000/svg" width="520" height="195" viewBox="0 0 520 195">
  <rect width="512" height="32" y="69" fill="#EECC00" transform="rotate(-16 256 85)"/>
  <path fill="#111111" fill-opacity=".98" d="M43.0250194,69.0001378 L31.3770194,101.000138 L14.3510194,101.000138 L25.9980194,69.0001378 L43.0250194,69.0001378 Z M77.3170194,69.0001378 L65.6700194,101.000138 L48.6430194,101.000138 L60.2910194,69.0001378 L77.3170194,69.0001378 Z M111.610019,69.0001378 L99.9620194,101.000138 L82.9360194,101.000138 L94.5830194,69.0001378 L111.610019,69.0001378 Z M145.902019,69.0001378 L134.255019,101.000138 L117.228019,101.000138 L128.876019,69.0001378 L145.902019,69.0001378 Z M180.195019,69.0001378 L168.547019,101.000138 L151.521019,101.000138 L163.168019,69.0001378 L180.195019,69.0001378 Z M214.487019,69.0001378 L202.840019,101.000138 L185.813019,101.000138 L197.461019,69.0001378 L214.487019,69.0001378 Z M248.780019,69.0001378 L237.132019,101.000138 L220.106019,101.000138 L231.753019,69.0001378 L248.780019,69.0001378 Z M283.072019,69.0001378 L271.425019,101.000138 L254.398019,101.000138 L266.045019,69.0001378 L283.072019,69.0001378 Z M317.365019,69.0001378 L305.717019,101.000138 L288.691019,101.000138 L300.338019,69.0001378 L317.365019,69.0001378 Z M351.657019,69.0001378 L340.009019,101.000138 L322.983019,101.000138 L334.630019,69.0001378 L351.657019,69.0001378 Z M385.950019,69.0001378 L374.302019,101.000138 L357.275019,101.000138 L368.923019,69.0001378 L385.950019,69.0001378 Z M420.242019,69.0001378 L408.594019,101.000138 L391.568019,101.000138 L403.215019,69.0001378 L420.242019,69.0001378 Z M454.534019,69.0001378 L442.887019,101.000138 L425.860019,101.000138 L437.508019,69.0001378 L454.534019,69.0001378 Z M488.827019,69.0001378 L477.179019,101.000138 L460.153019,101.000138 L471.800019,69.0001378 L488.827019,69.0001378 Z M512.000019,69.0001378 L511.999019,99.5521378 L511.472019,101.000138 L494.445019,101.000138 L506.093019,69.0001378 L512.000019,69.0001378 Z M8.73301937,69.0001378 L-0.000980630848,92.9971378 L1.93691416e-05,69.0001378 L8.73301937,69.0001378 Z" transform="rotate(-16 256 85)"/>
  <rect width="512" height="32" y="55" fill="#EECC00" transform="rotate(8 256 71)"/>
  <path fill="#111111" fill-opacity=".98" d="M43.025144,54.9989401 L31.378144,86.9989401 L14.351144,86.9989401 L25.998144,54.9989401 L43.025144,54.9989401 Z M77.318144,54.9989401 L65.670144,86.9989401 L48.643144,86.9989401 L60.291144,54.9989401 L77.318144,54.9989401 Z M111.610144,54.9989401 L99.963144,86.9989401 L82.936144,86.9989401 L94.583144,54.9989401 L111.610144,54.9989401 Z M145.903144,54.9989401 L134.255144,86.9989401 L117.228144,86.9989401 L128.876144,54.9989401 L145.903144,54.9989401 Z M180.195144,54.9989401 L168.548144,86.9989401 L151.521144,86.9989401 L163.168144,54.9989401 L180.195144,54.9989401 Z M214.488144,54.9989401 L202.840144,86.9989401 L185.813144,86.9989401 L197.461144,54.9989401 L214.488144,54.9989401 Z M248.780144,54.9989401 L237.133144,86.9989401 L220.106144,86.9989401 L231.753144,54.9989401 L248.780144,54.9989401 Z M283.073144,54.9989401 L271.425144,86.9989401 L254.398144,86.9989401 L266.045144,54.9989401 L283.073144,54.9989401 Z M317.365144,54.9989401 L305.718144,86.9989401 L288.691144,86.9989401 L300.338144,54.9989401 L317.365144,54.9989401 Z M351.657144,54.9989401 L340.010144,86.9989401 L322.983144,86.9989401 L334.630144,54.9989401 L351.657144,54.9989401 Z M385.950144,54.9989401 L374.303144,86.9989401 L357.275144,86.9989401 L368.923144,54.9989401 L385.950144,54.9989401 Z M420.242144,54.9989401 L408.595144,86.9989401 L391.568144,86.9989401 L403.215144,54.9989401 L420.242144,54.9989401 Z M454.535144,54.9989401 L442.887144,86.9989401 L425.860144,86.9989401 L437.508144,54.9989401 L454.535144,54.9989401 Z M488.827144,54.9989401 L477.180144,86.9989401 L460.153144,86.9989401 L471.800144,54.9989401 L488.827144,54.9989401 Z M512.000144,54.9999401 L511.999144,85.5519401 L511.472144,86.9989401 L494.445144,86.9989401 L506.093144,54.9989401 L512.000144,54.9999401 Z M8.73314404,54.9989401 L-0.000855960934,78.9969401 L0.000144039056,54.9999401 L8.73314404,54.9989401 Z" transform="rotate(8 256 70.999)"/>
  <rect width="512" height="32" y="62" fill="#EECC00"/>
  <path fill="#111111" fill-opacity=".98" d="M11.733,62 L0.086,94 L0,94 L0,62 L11.733,62 Z M46.025,62 L34.377,94 L17.351,94 L28.998,62 L46.025,62 Z M80.317,62 L68.67,94 L51.643,94 L63.291,62 L80.317,62 Z M114.61,62 L102.962,94 L85.936,94 L97.583,62 L114.61,62 Z M354.657,62 L343.009,94 L325.983,94 L337.63,62 L354.657,62 Z M388.95,62 L377.302,94 L360.275,94 L371.923,62 L388.95,62 Z M423.242,62 L411.594,94 L394.568,94 L406.215,62 L423.242,62 Z M457.534,62 L445.887,94 L428.86,94 L440.508,62 L457.534,62 Z M491.827,62 L480.179,94 L463.153,94 L474.8,62 L491.827,62 Z M512,62 L512,94 L497.445,94 L509.093,62 L512,62 Z"/>
  <rect width="512" height="32" x="8" y="127" fill="#EECC00" transform="rotate(-8 264 143)"/>
  <path fill="#111111" fill-opacity=".98" d="M19.8826048,161.150397 L12.8026048,194.460397 L12.718144,194.472603 L8.26460479,162.784025 L19.8826048,161.150397 Z M53.8416048,156.378397 L46.7616048,189.687397 L29.8996048,192.057397 L36.9796048,158.747397 L53.8416048,156.378397 Z M87.7996048,151.605397 L80.7196048,184.915397 L63.8586048,187.285397 L70.9386048,153.975397 L87.7996048,151.605397 Z M121.758605,146.833397 L114.678605,180.142397 L97.8176048,182.512397 L104.898605,149.202397 L121.758605,146.833397 Z M359.469605,113.425397 L352.389605,146.734397 L335.528605,149.104397 L342.608605,115.794397 L359.469605,113.425397 Z M393.428605,108.652397 L386.348605,141.961397 L369.486605,144.331397 L376.566605,111.022397 L393.428605,108.652397 Z M427.387605,103.880397 L420.307605,137.189397 L403.445605,139.558397 L410.525605,106.249397 L427.387605,103.880397 Z M461.345605,99.1073971 L454.265605,132.416397 L437.404605,134.786397 L444.485605,101.477397 L461.345605,99.1073971 Z M495.304605,94.3353971 L488.224605,127.643397 L471.363605,130.013397 L478.443605,96.7043971 L495.304605,94.3353971 Z M515.281856,91.5273971 L519.735395,123.215975 L505.321605,125.241397 L512.402605,91.9323971 L515.281856,91.5273971 Z"/>
  <path fill="#000000" fill-opacity=".9" d="M149.390599,154.217212 C148.569261,154.217212 147.846602,154.057213 147.222599,153.737212 C146.598596,153.41721 146.113267,152.966548 145.766599,152.385212 C145.41993,151.803875 145.246599,151.134549 145.246599,150.377212 L145.246599,143.161212 C145.246599,142.979877 145.337265,142.889212 145.518599,142.889212 L147.230599,142.889212 C147.411933,142.889212 147.502599,142.979877 147.502599,143.161212 L147.502599,150.393212 C147.502599,150.958548 147.67593,151.414543 148.022599,151.761212 C148.369267,152.10788 148.825263,152.281212 149.390599,152.281212 C149.955935,152.281212 150.41193,152.10788 150.758599,151.761212 C151.105267,151.414543 151.278599,150.958548 151.278599,150.393212 L151.278599,143.161212 C151.278599,142.979877 151.369265,142.889212 151.550599,142.889212 L153.262599,142.889212 C153.443933,142.889212 153.534599,142.979877 153.534599,143.161212 L153.534599,150.377212 C153.534599,151.134549 153.361267,151.803875 153.014599,152.385212 C152.66793,152.966548 152.182602,153.41721 151.558599,153.737212 C150.934596,154.057213 150.211936,154.217212 149.390599,154.217212 Z M155.776885,154.089212 C155.59555,154.089212 155.504885,153.998546 155.504885,153.817212 L155.504885,143.161212 C155.504885,142.979877 155.59555,142.889212 155.776885,142.889212 L157.424885,142.889212 C157.563552,142.889212 157.670218,142.947878 157.744885,143.065212 L161.744885,149.721212 C161.766218,149.763878 161.790218,149.779878 161.816885,149.769212 C161.843551,149.758545 161.856885,149.731878 161.856885,149.689212 L161.856885,143.161212 C161.856885,142.979877 161.94755,142.889212 162.128885,142.889212 L163.808885,142.889212 C163.990219,142.889212 164.080885,142.979877 164.080885,143.161212 L164.080885,153.817212 C164.080885,153.998546 163.990219,154.089212 163.808885,154.089212 L162.176885,154.089212 C162.048884,154.089212 161.942218,154.025212 161.856885,153.897212 L157.840885,147.177212 C157.819551,147.134545 157.795551,147.118545 157.768885,147.129212 C157.742218,147.139878 157.728885,147.166545 157.728885,147.209212 L157.744885,153.817212 C157.744885,153.998546 157.654219,154.089212 157.472885,154.089212 L155.776885,154.089212 Z M166.32317,154.089212 C166.141836,154.089212 166.05117,153.998546 166.05117,153.817212 L166.05117,143.161212 C166.05117,142.979877 166.141836,142.889212 166.32317,142.889212 L170.24317,142.889212 C171.043174,142.889212 171.744501,143.030543 172.34717,143.313212 C172.94984,143.59588 173.416502,143.993209 173.74717,144.505212 C174.077839,145.017214 174.24317,145.609208 174.24317,146.281212 L174.24317,150.697212 C174.24317,151.369215 174.077839,151.961209 173.74717,152.473212 C173.416502,152.985214 172.94984,153.382543 172.34717,153.665212 C171.744501,153.94788 171.043174,154.089212 170.24317,154.089212 L166.32317,154.089212 Z M168.30717,152.057212 C168.30717,152.121212 168.33917,152.153212 168.40317,152.153212 L170.32317,152.153212 C170.813839,152.153212 171.211169,151.98788 171.51517,151.657212 C171.819172,151.326543 171.976504,150.883881 171.98717,150.329212 L171.98717,146.649212 C171.98717,146.094542 171.835172,145.65188 171.53117,145.321212 C171.227169,144.990543 170.819173,144.825212 170.30717,144.825212 L168.40317,144.825212 C168.33917,144.825212 168.30717,144.857211 168.30717,144.921212 L168.30717,152.057212 Z M183.829456,144.553212 C183.829456,144.734546 183.73879,144.825212 183.557456,144.825212 L178.405456,144.825212 C178.341456,144.825212 178.309456,144.857211 178.309456,144.921212 L178.309456,147.369212 C178.309456,147.433212 178.341456,147.465212 178.405456,147.465212 L181.749456,147.465212 C181.93079,147.465212 182.021456,147.555877 182.021456,147.737212 L182.021456,149.129212 C182.021456,149.310546 181.93079,149.401212 181.749456,149.401212 L178.405456,149.401212 C178.341456,149.401212 178.309456,149.433211 178.309456,149.497212 L178.309456,152.057212 C178.309456,152.121212 178.341456,152.153212 178.405456,152.153212 L183.557456,152.153212 C183.73879,152.153212 183.829456,152.243877 183.829456,152.425212 L183.829456,153.817212 C183.829456,153.998546 183.73879,154.089212 183.557456,154.089212 L176.325456,154.089212 C176.144122,154.089212 176.053456,153.998546 176.053456,153.817212 L176.053456,143.161212 C176.053456,142.979877 176.144122,142.889212 176.325456,142.889212 L183.557456,142.889212 C183.73879,142.889212 183.829456,142.979877 183.829456,143.161212 L183.829456,144.553212 Z M191.719742,154.089212 C191.581074,154.089212 191.474409,154.019879 191.399742,153.881212 L189.431742,149.529212 C189.410408,149.475878 189.373075,149.449212 189.319742,149.449212 L187.863742,149.449212 C187.799741,149.449212 187.767742,149.481211 187.767742,149.545212 L187.767742,153.817212 C187.767742,153.998546 187.677076,154.089212 187.495742,154.089212 L185.783742,154.089212 C185.602407,154.089212 185.511742,153.998546 185.511742,153.817212 L185.511742,143.145212 C185.511742,142.963877 185.602407,142.873212 185.783742,142.873212 L190.279742,142.873212 C190.962412,142.873212 191.562406,143.014543 192.079742,143.297212 C192.597078,143.57988 192.997074,143.977209 193.279742,144.489212 C193.56241,145.001214 193.703742,145.587875 193.703742,146.249212 C193.703742,146.974548 193.52241,147.598542 193.159742,148.121212 C192.797073,148.643881 192.295745,149.011877 191.655742,149.225212 C191.623742,149.235878 191.602408,149.254545 191.591742,149.281212 C191.581075,149.307878 191.586408,149.331878 191.607742,149.353212 L193.719742,153.769212 C193.751742,153.811878 193.767742,153.859878 193.767742,153.913212 C193.767742,153.966545 193.746409,154.009211 193.703742,154.041212 C193.661075,154.073212 193.602409,154.089212 193.527742,154.089212 L191.719742,154.089212 Z M187.863742,144.825212 C187.799741,144.825212 187.767742,144.857211 187.767742,144.921212 L187.767742,147.609212 C187.767742,147.673212 187.799741,147.705212 187.863742,147.705212 L189.943742,147.705212 C190.391744,147.705212 190.757074,147.574546 191.039742,147.313212 C191.32241,147.051877 191.463742,146.70788 191.463742,146.281212 C191.463742,145.854543 191.32241,145.505213 191.039742,145.233212 C190.757074,144.96121 190.391744,144.825212 189.943742,144.825212 L187.863742,144.825212 Z M202.700313,154.217212 C201.868309,154.217212 201.13765,154.054546 200.508313,153.729212 C199.878977,153.403877 199.393648,152.947881 199.052313,152.361212 C198.710978,151.774542 198.540313,151.097215 198.540313,150.329212 L198.540313,146.633212 C198.540313,145.865208 198.710978,145.187881 199.052313,144.601212 C199.393648,144.014542 199.878977,143.561213 200.508313,143.241212 C201.13765,142.92121 201.868309,142.761212 202.700313,142.761212 C203.521651,142.761212 204.24431,142.91321 204.868313,143.217212 C205.492316,143.521213 205.977645,143.953209 206.324313,144.513212 C206.670982,145.073214 206.844313,145.721208 206.844313,146.457212 C206.844313,146.553212 206.758981,146.611878 206.588313,146.633212 L204.876313,146.745212 L204.812313,146.745212 C204.662979,146.745212 204.588313,146.718545 204.588313,146.665212 L204.588313,146.569212 C204.588313,146.003875 204.414982,145.550547 204.068313,145.209212 C203.721645,144.867876 203.265649,144.697212 202.700313,144.697212 C202.12431,144.697212 201.662982,144.867876 201.316313,145.209212 C200.969645,145.550547 200.796313,146.003875 200.796313,146.569212 L200.796313,150.425212 C200.796313,150.979881 200.969645,151.427876 201.316313,151.769212 C201.662982,152.110547 202.12431,152.281212 202.700313,152.281212 C203.265649,152.281212 203.721645,152.110547 204.068313,151.769212 C204.414982,151.427876 204.588313,150.979881 204.588313,150.425212 C204.588313,150.371878 204.612313,150.326545 204.660313,150.289212 C204.708313,150.251878 204.774979,150.238545 204.860313,150.249212 L206.572313,150.329212 C206.753647,150.350545 206.844313,150.377211 206.844313,150.409212 L206.844313,150.489212 C206.844313,151.225215 206.670982,151.875875 206.324313,152.441212 C205.977645,153.006548 205.492316,153.443877 204.868313,153.753212 C204.24431,154.062546 203.521651,154.217212 202.700313,154.217212 Z M212.590599,154.265212 C211.758595,154.265212 211.025269,154.094547 210.390599,153.753212 C209.755929,153.411876 209.262601,152.934548 208.910599,152.321212 C208.558597,151.707875 208.382599,151.001216 208.382599,150.201212 L208.382599,146.777212 C208.382599,145.987874 208.558597,145.289215 208.910599,144.681212 C209.262601,144.073208 209.755929,143.601213 210.390599,143.265212 C211.025269,142.92921 211.758595,142.761212 212.590599,142.761212 C213.43327,142.761212 214.171929,142.92921 214.806599,143.265212 C215.441269,143.601213 215.934597,144.073208 216.286599,144.681212 C216.638601,145.289215 216.814599,145.987874 216.814599,146.777212 L216.814599,150.201212 C216.814599,151.001216 216.638601,151.710542 216.286599,152.329212 C215.934597,152.947881 215.441269,153.42521 214.806599,153.761212 C214.171929,154.097213 213.43327,154.265212 212.590599,154.265212 Z M212.590599,152.329212 C213.177268,152.329212 213.65193,152.142547 214.014599,151.769212 C214.377267,151.395876 214.558599,150.899881 214.558599,150.281212 L214.558599,146.761212 C214.558599,146.142542 214.379934,145.64388 214.022599,145.265212 C213.665264,144.886543 213.187935,144.697212 212.590599,144.697212 C212.003929,144.697212 211.531934,144.886543 211.174599,145.265212 C210.817264,145.64388 210.638599,146.142542 210.638599,146.761212 L210.638599,150.281212 C210.638599,150.899881 210.817264,151.395876 211.174599,151.769212 C211.531934,152.142547 212.003929,152.329212 212.590599,152.329212 Z M218.928885,154.089212 C218.74755,154.089212 218.656885,153.998546 218.656885,153.817212 L218.656885,143.161212 C218.656885,142.979877 218.74755,142.889212 218.928885,142.889212 L220.576885,142.889212 C220.715552,142.889212 220.822218,142.947878 220.896885,143.065212 L224.896885,149.721212 C224.918218,149.763878 224.942218,149.779878 224.968885,149.769212 C224.995551,149.758545 225.008885,149.731878 225.008885,149.689212 L225.008885,143.161212 C225.008885,142.979877 225.09955,142.889212 225.280885,142.889212 L226.960885,142.889212 C227.142219,142.889212 227.232885,142.979877 227.232885,143.161212 L227.232885,153.817212 C227.232885,153.998546 227.142219,154.089212 226.960885,154.089212 L225.328885,154.089212 C225.200884,154.089212 225.094218,154.025212 225.008885,153.897212 L220.992885,147.177212 C220.971551,147.134545 220.947551,147.118545 220.920885,147.129212 C220.894218,147.139878 220.880885,147.166545 220.880885,147.209212 L220.896885,153.817212 C220.896885,153.998546 220.806219,154.089212 220.624885,154.089212 L218.928885,154.089212 Z M233.09117,154.217212 C232.259166,154.217212 231.528507,154.078546 230.89917,153.801212 C230.269834,153.523877 229.784505,153.134547 229.44317,152.633212 C229.101835,152.131876 228.93117,151.545215 228.93117,150.873212 L228.93117,150.601212 C228.93117,150.419877 229.021836,150.329212 229.20317,150.329212 L230.88317,150.329212 C231.064505,150.329212 231.15517,150.398544 231.15517,150.537212 L231.15517,150.761212 C231.15517,151.18788 231.349835,151.547877 231.73917,151.841212 C232.128506,152.134546 232.637834,152.281212 233.26717,152.281212 C233.832506,152.281212 234.251169,152.161213 234.52317,151.921212 C234.795172,151.68121 234.93117,151.385213 234.93117,151.033212 C234.93117,150.77721 234.845838,150.561212 234.67517,150.385212 C234.504503,150.209211 234.275172,150.054546 233.98717,149.921212 C233.699169,149.787878 233.235173,149.603879 232.59517,149.369212 C231.869833,149.123877 231.261839,148.873213 230.77117,148.617212 C230.280501,148.36121 229.864505,148.01188 229.52317,147.569212 C229.181835,147.126543 229.01117,146.579881 229.01117,145.929212 C229.01117,145.289208 229.176502,144.729214 229.50717,144.249212 C229.837839,143.769209 230.299167,143.401213 230.89117,143.145212 C231.483173,142.88921 232.157833,142.761212 232.91517,142.761212 C233.725841,142.761212 234.451167,142.90521 235.09117,143.193212 C235.731173,143.481213 236.229835,143.883876 236.58717,144.401212 C236.944505,144.918547 237.12317,145.518541 237.12317,146.201212 L237.12317,146.361212 C237.12317,146.542546 237.032505,146.633212 236.85117,146.633212 L235.17117,146.633212 C234.989836,146.633212 234.89917,146.579879 234.89917,146.473212 L234.89917,146.313212 C234.89917,145.865209 234.715172,145.48388 234.34717,145.169212 C233.979168,144.854543 233.475173,144.697212 232.83517,144.697212 C232.323168,144.697212 231.928505,144.803877 231.65117,145.017212 C231.373836,145.230546 231.23517,145.523876 231.23517,145.897212 C231.23517,146.16388 231.315169,146.387877 231.47517,146.569212 C231.635171,146.750546 231.877835,146.915877 232.20317,147.065212 C232.528505,147.214546 233.0325,147.406544 233.71517,147.641212 C234.461841,147.918546 235.053835,148.16121 235.49117,148.369212 C235.928506,148.577213 236.320502,148.894543 236.66717,149.321212 C237.013839,149.74788 237.18717,150.297208 237.18717,150.969212 C237.18717,151.619881 237.019172,152.190542 236.68317,152.681212 C236.347169,153.171881 235.872507,153.550544 235.25917,153.817212 C234.645834,154.08388 233.923174,154.217212 233.09117,154.217212 Z M246.405456,142.889212 C246.58679,142.889212 246.677456,142.979877 246.677456,143.161212 L246.677456,144.569212 C246.677456,144.750546 246.58679,144.841212 246.405456,144.841212 L243.637456,144.841212 C243.573456,144.841212 243.541456,144.873211 243.541456,144.937212 L243.541456,153.817212 C243.541456,153.998546 243.45079,154.089212 243.269456,154.089212 L241.557456,154.089212 C241.376122,154.089212 241.285456,153.998546 241.285456,153.817212 L241.285456,144.937212 C241.285456,144.873211 241.253456,144.841212 241.189456,144.841212 L238.501456,144.841212 C238.320122,144.841212 238.229456,144.750546 238.229456,144.569212 L238.229456,143.161212 C238.229456,142.979877 238.320122,142.889212 238.501456,142.889212 L246.405456,142.889212 Z M254.439742,154.089212 C254.301074,154.089212 254.194409,154.019879 254.119742,153.881212 L252.151742,149.529212 C252.130408,149.475878 252.093075,149.449212 252.039742,149.449212 L250.583742,149.449212 C250.519741,149.449212 250.487742,149.481211 250.487742,149.545212 L250.487742,153.817212 C250.487742,153.998546 250.397076,154.089212 250.215742,154.089212 L248.503742,154.089212 C248.322407,154.089212 248.231742,153.998546 248.231742,153.817212 L248.231742,143.145212 C248.231742,142.963877 248.322407,142.873212 248.503742,142.873212 L252.999742,142.873212 C253.682412,142.873212 254.282406,143.014543 254.799742,143.297212 C255.317078,143.57988 255.717074,143.977209 255.999742,144.489212 C256.28241,145.001214 256.423742,145.587875 256.423742,146.249212 C256.423742,146.974548 256.24241,147.598542 255.879742,148.121212 C255.517073,148.643881 255.015745,149.011877 254.375742,149.225212 C254.343742,149.235878 254.322408,149.254545 254.311742,149.281212 C254.301075,149.307878 254.306408,149.331878 254.327742,149.353212 L256.439742,153.769212 C256.471742,153.811878 256.487742,153.859878 256.487742,153.913212 C256.487742,153.966545 256.466409,154.009211 256.423742,154.041212 C256.381075,154.073212 256.322409,154.089212 256.247742,154.089212 L254.439742,154.089212 Z M250.583742,144.825212 C250.519741,144.825212 250.487742,144.857211 250.487742,144.921212 L250.487742,147.609212 C250.487742,147.673212 250.519741,147.705212 250.583742,147.705212 L252.663742,147.705212 C253.111744,147.705212 253.477074,147.574546 253.759742,147.313212 C254.04241,147.051877 254.183742,146.70788 254.183742,146.281212 C254.183742,145.854543 254.04241,145.505213 253.759742,145.233212 C253.477074,144.96121 253.111744,144.825212 252.663742,144.825212 L250.583742,144.825212 Z M262.234027,154.217212 C261.41269,154.217212 260.690031,154.057213 260.066027,153.737212 C259.442024,153.41721 258.956696,152.966548 258.610027,152.385212 C258.263359,151.803875 258.090027,151.134549 258.090027,150.377212 L258.090027,143.161212 C258.090027,142.979877 258.180693,142.889212 258.362027,142.889212 L260.074027,142.889212 C260.255362,142.889212 260.346027,142.979877 260.346027,143.161212 L260.346027,150.393212 C260.346027,150.958548 260.519359,151.414543 260.866027,151.761212 C261.212696,152.10788 261.668691,152.281212 262.234027,152.281212 C262.799364,152.281212 263.255359,152.10788 263.602027,151.761212 C263.948696,151.414543 264.122027,150.958548 264.122027,150.393212 L264.122027,143.161212 C264.122027,142.979877 264.212693,142.889212 264.394027,142.889212 L266.106027,142.889212 C266.287362,142.889212 266.378027,142.979877 266.378027,143.161212 L266.378027,150.377212 C266.378027,151.134549 266.204696,151.803875 265.858027,152.385212 C265.511359,152.966548 265.026031,153.41721 264.402027,153.737212 C263.778024,154.057213 263.055365,154.217212 262.234027,154.217212 Z M272.188313,154.217212 C271.356309,154.217212 270.62565,154.054546 269.996313,153.729212 C269.366977,153.403877 268.881648,152.947881 268.540313,152.361212 C268.198978,151.774542 268.028313,151.097215 268.028313,150.329212 L268.028313,146.633212 C268.028313,145.865208 268.198978,145.187881 268.540313,144.601212 C268.881648,144.014542 269.366977,143.561213 269.996313,143.241212 C270.62565,142.92121 271.356309,142.761212 272.188313,142.761212 C273.009651,142.761212 273.73231,142.91321 274.356313,143.217212 C274.980316,143.521213 275.465645,143.953209 275.812313,144.513212 C276.158982,145.073214 276.332313,145.721208 276.332313,146.457212 C276.332313,146.553212 276.246981,146.611878 276.076313,146.633212 L274.364313,146.745212 L274.300313,146.745212 C274.150979,146.745212 274.076313,146.718545 274.076313,146.665212 L274.076313,146.569212 C274.076313,146.003875 273.902982,145.550547 273.556313,145.209212 C273.209645,144.867876 272.753649,144.697212 272.188313,144.697212 C271.61231,144.697212 271.150982,144.867876 270.804313,145.209212 C270.457645,145.550547 270.284313,146.003875 270.284313,146.569212 L270.284313,150.425212 C270.284313,150.979881 270.457645,151.427876 270.804313,151.769212 C271.150982,152.110547 271.61231,152.281212 272.188313,152.281212 C272.753649,152.281212 273.209645,152.110547 273.556313,151.769212 C273.902982,151.427876 274.076313,150.979881 274.076313,150.425212 C274.076313,150.371878 274.100313,150.326545 274.148313,150.289212 C274.196313,150.251878 274.262979,150.238545 274.348313,150.249212 L276.060313,150.329212 C276.241647,150.350545 276.332313,150.377211 276.332313,150.409212 L276.332313,150.489212 C276.332313,151.225215 276.158982,151.875875 275.812313,152.441212 C275.465645,153.006548 274.980316,153.443877 274.356313,153.753212 C273.73231,154.062546 273.009651,154.217212 272.188313,154.217212 Z M285.614599,142.889212 C285.795933,142.889212 285.886599,142.979877 285.886599,143.161212 L285.886599,144.569212 C285.886599,144.750546 285.795933,144.841212 285.614599,144.841212 L282.846599,144.841212 C282.782599,144.841212 282.750599,144.873211 282.750599,144.937212 L282.750599,153.817212 C282.750599,153.998546 282.659933,154.089212 282.478599,154.089212 L280.766599,154.089212 C280.585265,154.089212 280.494599,153.998546 280.494599,153.817212 L280.494599,144.937212 C280.494599,144.873211 280.462599,144.841212 280.398599,144.841212 L277.710599,144.841212 C277.529265,144.841212 277.438599,144.750546 277.438599,144.569212 L277.438599,143.161212 C277.438599,142.979877 277.529265,142.889212 277.710599,142.889212 L285.614599,142.889212 Z M287.712885,154.089212 C287.53155,154.089212 287.440885,153.998546 287.440885,153.817212 L287.440885,143.161212 C287.440885,142.979877 287.53155,142.889212 287.712885,142.889212 L289.424885,142.889212 C289.606219,142.889212 289.696885,142.979877 289.696885,143.161212 L289.696885,153.817212 C289.696885,153.998546 289.606219,154.089212 289.424885,154.089212 L287.712885,154.089212 Z M295.74717,154.265212 C294.915166,154.265212 294.18184,154.094547 293.54717,153.753212 C292.9125,153.411876 292.419172,152.934548 292.06717,152.321212 C291.715169,151.707875 291.53917,151.001216 291.53917,150.201212 L291.53917,146.777212 C291.53917,145.987874 291.715169,145.289215 292.06717,144.681212 C292.419172,144.073208 292.9125,143.601213 293.54717,143.265212 C294.18184,142.92921 294.915166,142.761212 295.74717,142.761212 C296.589841,142.761212 297.3285,142.92921 297.96317,143.265212 C298.59784,143.601213 299.091169,144.073208 299.44317,144.681212 C299.795172,145.289215 299.97117,145.987874 299.97117,146.777212 L299.97117,150.201212 C299.97117,151.001216 299.795172,151.710542 299.44317,152.329212 C299.091169,152.947881 298.59784,153.42521 297.96317,153.761212 C297.3285,154.097213 296.589841,154.265212 295.74717,154.265212 Z M295.74717,152.329212 C296.33384,152.329212 296.808502,152.142547 297.17117,151.769212 C297.533839,151.395876 297.71517,150.899881 297.71517,150.281212 L297.71517,146.761212 C297.71517,146.142542 297.536505,145.64388 297.17917,145.265212 C296.821835,144.886543 296.344507,144.697212 295.74717,144.697212 C295.160501,144.697212 294.688505,144.886543 294.33117,145.265212 C293.973835,145.64388 293.79517,146.142542 293.79517,146.761212 L293.79517,150.281212 C293.79517,150.899881 293.973835,151.395876 294.33117,151.769212 C294.688505,152.142547 295.160501,152.329212 295.74717,152.329212 Z M302.085456,154.089212 C301.904122,154.089212 301.813456,153.998546 301.813456,153.817212 L301.813456,143.161212 C301.813456,142.979877 301.904122,142.889212 302.085456,142.889212 L303.733456,142.889212 C303.872123,142.889212 303.978789,142.947878 304.053456,143.065212 L308.053456,149.721212 C308.074789,149.763878 308.098789,149.779878 308.125456,149.769212 C308.152123,149.758545 308.165456,149.731878 308.165456,149.689212 L308.165456,143.161212 C308.165456,142.979877 308.256122,142.889212 308.437456,142.889212 L310.117456,142.889212 C310.29879,142.889212 310.389456,142.979877 310.389456,143.161212 L310.389456,153.817212 C310.389456,153.998546 310.29879,154.089212 310.117456,154.089212 L308.485456,154.089212 C308.357455,154.089212 308.25079,154.025212 308.165456,153.897212 L304.149456,147.177212 C304.128123,147.134545 304.104123,147.118545 304.077456,147.129212 C304.050789,147.139878 304.037456,147.166545 304.037456,147.209212 L304.053456,153.817212 C304.053456,153.998546 303.96279,154.089212 303.781456,154.089212 L302.085456,154.089212 Z" opacity=".9" transform="rotate(-8 227.818 148.513)"/>
  <path fill="#000000" fill-opacity=".9" d="M151.345714,84 C151.175047,84 151.073714,83.9200008 151.041714,83.76 L148.225714,73.104 C148.215048,73.0826666 148.209714,73.0560002 148.209714,73.024 C148.209714,72.8746659 148.295047,72.8 148.465714,72.8 L150.289714,72.8 C150.449715,72.8 150.545714,72.8799992 150.577714,73.04 L152.081714,79.424 C152.092381,79.4666669 152.113714,79.488 152.145714,79.488 C152.177714,79.488 152.199048,79.4666669 152.209714,79.424 L153.649714,73.04 C153.681714,72.8799992 153.777713,72.8 153.937714,72.8 L155.745714,72.8 C155.916382,72.8 156.017714,72.8799992 156.049714,73.04 L157.617714,79.424 C157.628381,79.4666669 157.647047,79.488 157.673714,79.488 C157.700381,79.488 157.719048,79.4666669 157.729714,79.424 L159.169714,73.04 C159.201714,72.8799992 159.297713,72.8 159.457714,72.8 L161.201714,72.8 C161.297715,72.8 161.364381,72.829333 161.401714,72.888 C161.439048,72.946667 161.447048,73.0186662 161.425714,73.104 L158.849714,83.76 C158.817714,83.9200008 158.716382,84 158.545714,84 L156.785714,84 C156.615047,84 156.513714,83.9200008 156.481714,83.76 L154.881714,76.96 C154.871048,76.9173331 154.849714,76.896 154.817714,76.896 C154.785714,76.896 154.764381,76.9173331 154.753714,76.96 L153.265714,83.76 C153.233714,83.9200008 153.137715,84 152.977714,84 L151.345714,84 Z M166.276,84.176 C165.443996,84.176 164.71067,84.005335 164.076,83.664 C163.44133,83.322665 162.948002,82.8453364 162.596,82.232 C162.243998,81.6186636 162.068,80.912004 162.068,80.112 L162.068,76.688 C162.068,75.8986627 162.243998,75.200003 162.596,74.592 C162.948002,73.983997 163.44133,73.5120017 164.076,73.176 C164.71067,72.8399983 165.443996,72.672 166.276,72.672 C167.118671,72.672 167.85733,72.8399983 168.492,73.176 C169.12667,73.5120017 169.619998,73.983997 169.972,74.592 C170.324002,75.200003 170.5,75.8986627 170.5,76.688 L170.5,80.112 C170.5,80.912004 170.324002,81.6213302 169.972,82.24 C169.619998,82.8586698 169.12667,83.3359983 168.492,83.672 C167.85733,84.0080017 167.118671,84.176 166.276,84.176 Z M166.276,82.24 C166.86267,82.24 167.337332,82.0533352 167.7,81.68 C168.062668,81.3066648 168.244,80.8106698 168.244,80.192 L168.244,76.672 C168.244,76.0533302 168.065335,75.5546686 167.708,75.176 C167.350665,74.7973314 166.873336,74.608 166.276,74.608 C165.68933,74.608 165.217335,74.7973314 164.86,75.176 C164.502665,75.5546686 164.324,76.0533302 164.324,76.672 L164.324,80.192 C164.324,80.8106698 164.502665,81.3066648 164.86,81.68 C165.217335,82.0533352 165.68933,82.24 166.276,82.24 Z M178.550286,84 C178.411618,84 178.304953,83.9306674 178.230286,83.792 L176.262286,79.44 C176.240952,79.3866664 176.203619,79.36 176.150286,79.36 L174.694286,79.36 C174.630285,79.36 174.598286,79.3919997 174.598286,79.456 L174.598286,83.728 C174.598286,83.9093342 174.50762,84 174.326286,84 L172.614286,84 C172.432951,84 172.342286,83.9093342 172.342286,83.728 L172.342286,73.056 C172.342286,72.8746658 172.432951,72.784 172.614286,72.784 L177.110286,72.784 C177.792956,72.784 178.39295,72.9253319 178.910286,73.208 C179.427622,73.4906681 179.827618,73.8879974 180.110286,74.4 C180.392954,74.9120026 180.534286,75.4986634 180.534286,76.16 C180.534286,76.885337 180.352954,77.5093307 179.990286,78.032 C179.627617,78.5546693 179.126289,78.9226656 178.486286,79.136 C178.454286,79.1466667 178.432952,79.1653332 178.422286,79.192 C178.411619,79.2186668 178.416952,79.2426666 178.438286,79.264 L180.550286,83.68 C180.582286,83.7226669 180.598286,83.7706664 180.598286,83.824 C180.598286,83.8773336 180.576953,83.9199998 180.534286,83.952 C180.491619,83.9840002 180.432953,84 180.358286,84 L178.550286,84 Z M174.694286,74.736 C174.630285,74.736 174.598286,74.7679997 174.598286,74.832 L174.598286,77.52 C174.598286,77.5840003 174.630285,77.616 174.694286,77.616 L176.774286,77.616 C177.222288,77.616 177.587618,77.4853346 177.870286,77.224 C178.152954,76.9626654 178.294286,76.6186688 178.294286,76.192 C178.294286,75.7653312 178.152954,75.4160014 177.870286,75.144 C177.587618,74.8719986 177.222288,74.736 176.774286,74.736 L174.694286,74.736 Z M182.552571,84 C182.371237,84 182.280571,83.9093342 182.280571,83.728 L182.280571,73.072 C182.280571,72.8906658 182.371237,72.8 182.552571,72.8 L184.264571,72.8 C184.445906,72.8 184.536571,72.8906658 184.536571,73.072 L184.536571,77.44 C184.536571,77.4826669 184.549905,77.5093333 184.576571,77.52 C184.603238,77.5306667 184.627238,77.5200002 184.648571,77.488 L188.296571,72.96 C188.371238,72.8533328 188.483237,72.8 188.632571,72.8 L190.568571,72.8 C190.643238,72.8 190.701905,72.8133332 190.744571,72.84 C190.787238,72.8666668 190.808571,72.9066664 190.808571,72.96 C190.808571,73.0026669 190.781905,73.061333 190.728571,73.136 L187.240571,77.584 C187.208571,77.6160002 187.208571,77.6586664 187.240571,77.712 L190.936571,83.68 C190.968572,83.7226669 190.984571,83.7706664 190.984571,83.824 C190.984571,83.9413339 190.909906,84 190.760571,84 L188.824571,84 C188.685904,84 188.579238,83.9413339 188.504571,83.824 L185.704571,79.28 C185.693905,79.2479998 185.672572,79.232 185.640571,79.232 C185.608571,79.232 185.581905,79.2479998 185.560571,79.28 L184.584571,80.528 C184.552571,80.5706669 184.536571,80.6079998 184.536571,80.64 L184.536571,83.728 C184.536571,83.9093342 184.445906,84 184.264571,84 L182.552571,84 Z M195.997143,84 C195.815809,84 195.725143,83.9093342 195.725143,83.728 L195.725143,73.072 C195.725143,72.8906658 195.815809,72.8 195.997143,72.8 L197.709143,72.8 C197.890477,72.8 197.981143,72.8906658 197.981143,73.072 L197.981143,83.728 C197.981143,83.9093342 197.890477,84 197.709143,84 L195.997143,84 Z M200.319429,84 C200.138094,84 200.047429,83.9093342 200.047429,83.728 L200.047429,73.072 C200.047429,72.8906658 200.138094,72.8 200.319429,72.8 L201.967429,72.8 C202.106096,72.8 202.212762,72.8586661 202.287429,72.976 L206.287429,79.632 C206.308762,79.6746669 206.332762,79.6906667 206.359429,79.68 C206.386095,79.6693333 206.399429,79.6426669 206.399429,79.6 L206.399429,73.072 C206.399429,72.8906658 206.490094,72.8 206.671429,72.8 L208.351429,72.8 C208.532763,72.8 208.623429,72.8906658 208.623429,73.072 L208.623429,83.728 C208.623429,83.9093342 208.532763,84 208.351429,84 L206.719429,84 C206.591428,84 206.484762,83.9360006 206.399429,83.808 L202.383429,77.088 C202.362095,77.0453331 202.338095,77.0293333 202.311429,77.04 C202.284762,77.0506667 202.271429,77.0773331 202.271429,77.12 L202.287429,83.728 C202.287429,83.9093342 202.196763,84 202.015429,84 L200.319429,84 Z M218.628,72.784 C219.332004,72.784 219.950664,72.9279986 220.484,73.216 C221.017336,73.5040014 221.430665,73.9119974 221.724,74.44 C222.017335,74.9680026 222.164,75.5733299 222.164,76.256 C222.164,76.9280034 222.012002,77.5199974 221.708,78.032 C221.403998,78.5440026 220.977336,78.9413319 220.428,79.224 C219.878664,79.5066681 219.24667,79.648 218.532,79.648 L216.276,79.648 C216.212,79.648 216.18,79.6799997 216.18,79.744 L216.18,83.728 C216.18,83.9093342 216.089334,84 215.908,84 L214.196,84 C214.014666,84 213.924,83.9093342 213.924,83.728 L213.924,73.056 C213.924,72.8746658 214.014666,72.784 214.196,72.784 L218.628,72.784 Z M218.292,77.84 C218.782669,77.84 219.177332,77.6986681 219.476,77.416 C219.774668,77.1333319 219.924,76.762669 219.924,76.304 C219.924,75.8346643 219.774668,75.4560014 219.476,75.168 C219.177332,74.8799986 218.782669,74.736 218.292,74.736 L216.276,74.736 C216.212,74.736 216.18,74.7679997 216.18,74.832 L216.18,77.744 C216.18,77.8080003 216.212,77.84 216.276,77.84 L218.292,77.84 Z M229.878286,84 C229.739618,84 229.632953,83.9306674 229.558286,83.792 L227.590286,79.44 C227.568952,79.3866664 227.531619,79.36 227.478286,79.36 L226.022286,79.36 C225.958285,79.36 225.926286,79.3919997 225.926286,79.456 L225.926286,83.728 C225.926286,83.9093342 225.83562,84 225.654286,84 L223.942286,84 C223.760951,84 223.670286,83.9093342 223.670286,83.728 L223.670286,73.056 C223.670286,72.8746658 223.760951,72.784 223.942286,72.784 L228.438286,72.784 C229.120956,72.784 229.72095,72.9253319 230.238286,73.208 C230.755622,73.4906681 231.155618,73.8879974 231.438286,74.4 C231.720954,74.9120026 231.862286,75.4986634 231.862286,76.16 C231.862286,76.885337 231.680954,77.5093307 231.318286,78.032 C230.955617,78.5546693 230.454289,78.9226656 229.814286,79.136 C229.782286,79.1466667 229.760952,79.1653332 229.750286,79.192 C229.739619,79.2186668 229.744952,79.2426666 229.766286,79.264 L231.878286,83.68 C231.910286,83.7226669 231.926286,83.7706664 231.926286,83.824 C231.926286,83.8773336 231.904953,83.9199998 231.862286,83.952 C231.819619,83.9840002 231.760953,84 231.686286,84 L229.878286,84 Z M226.022286,74.736 C225.958285,74.736 225.926286,74.7679997 225.926286,74.832 L225.926286,77.52 C225.926286,77.5840003 225.958285,77.616 226.022286,77.616 L228.102286,77.616 C228.550288,77.616 228.915618,77.4853346 229.198286,77.224 C229.480954,76.9626654 229.622286,76.6186688 229.622286,76.192 C229.622286,75.7653312 229.480954,75.4160014 229.198286,75.144 C228.915618,74.8719986 228.550288,74.736 228.102286,74.736 L226.022286,74.736 Z M237.592571,84.176 C236.760567,84.176 236.027241,84.005335 235.392571,83.664 C234.757902,83.322665 234.264573,82.8453364 233.912571,82.232 C233.56057,81.6186636 233.384571,80.912004 233.384571,80.112 L233.384571,76.688 C233.384571,75.8986627 233.56057,75.200003 233.912571,74.592 C234.264573,73.983997 234.757902,73.5120017 235.392571,73.176 C236.027241,72.8399983 236.760567,72.672 237.592571,72.672 C238.435242,72.672 239.173902,72.8399983 239.808571,73.176 C240.443241,73.5120017 240.93657,73.983997 241.288571,74.592 C241.640573,75.200003 241.816571,75.8986627 241.816571,76.688 L241.816571,80.112 C241.816571,80.912004 241.640573,81.6213302 241.288571,82.24 C240.93657,82.8586698 240.443241,83.3359983 239.808571,83.672 C239.173902,84.0080017 238.435242,84.176 237.592571,84.176 Z M237.592571,82.24 C238.179241,82.24 238.653903,82.0533352 239.016571,81.68 C239.37924,81.3066648 239.560571,80.8106698 239.560571,80.192 L239.560571,76.672 C239.560571,76.0533302 239.381907,75.5546686 239.024571,75.176 C238.667236,74.7973314 238.189908,74.608 237.592571,74.608 C237.005902,74.608 236.533907,74.7973314 236.176571,75.176 C235.819236,75.5546686 235.640571,76.0533302 235.640571,76.672 L235.640571,80.192 C235.640571,80.8106698 235.819236,81.3066648 236.176571,81.68 C236.533907,82.0533352 237.005902,82.24 237.592571,82.24 Z M247.594857,84.128 C246.77352,84.128 246.048194,83.9626683 245.418857,83.632 C244.789521,83.3013317 244.301526,82.840003 243.954857,82.248 C243.608189,81.655997 243.434857,80.9706706 243.434857,80.192 L243.434857,76.608 C243.434857,75.8293294 243.608189,75.1413363 243.954857,74.544 C244.301526,73.9466637 244.789521,73.485335 245.418857,73.16 C246.048194,72.834665 246.77352,72.672 247.594857,72.672 C248.405528,72.672 249.122854,72.8319984 249.746857,73.152 C250.37086,73.4720016 250.856189,73.9066639 251.202857,74.456 C251.549526,75.0053361 251.722857,75.6159966 251.722857,76.288 L251.722857,76.32 C251.722857,76.5013342 251.632191,76.592 251.450857,76.592 L249.738857,76.592 C249.653523,76.592 249.586857,76.5786668 249.538857,76.552 C249.490857,76.5253332 249.466857,76.4960002 249.466857,76.464 L249.466857,76.352 C249.466857,75.8613309 249.296192,75.4480017 248.954857,75.112 C248.613522,74.7759983 248.160193,74.608 247.594857,74.608 C247.018854,74.608 246.557526,74.7866649 246.210857,75.144 C245.864189,75.5013351 245.690857,75.9679971 245.690857,76.544 L245.690857,80.256 C245.690857,80.8320029 245.877522,81.2986649 246.250857,81.656 C246.624192,82.0133351 247.098854,82.192 247.674857,82.192 C248.229527,82.192 248.672189,82.0453348 249.002857,81.752 C249.333525,81.4586652 249.498857,81.0506693 249.498857,80.528 L249.498857,79.824 C249.498857,79.7599997 249.466857,79.728 249.402857,79.728 L247.706857,79.728 C247.525523,79.728 247.434857,79.6373342 247.434857,79.456 L247.434857,78.144 C247.434857,77.9626658 247.525523,77.872 247.706857,77.872 L251.450857,77.872 C251.632191,77.872 251.722857,77.9626658 251.722857,78.144 L251.722857,80.176 C251.722857,80.9866707 251.552192,81.6906637 251.210857,82.288 C250.869522,82.8853363 250.38686,83.3413318 249.762857,83.656 C249.138854,83.9706682 248.416195,84.128 247.594857,84.128 Z M259.693143,84 C259.554475,84 259.44781,83.9306674 259.373143,83.792 L257.405143,79.44 C257.383809,79.3866664 257.346476,79.36 257.293143,79.36 L255.837143,79.36 C255.773143,79.36 255.741143,79.3919997 255.741143,79.456 L255.741143,83.728 C255.741143,83.9093342 255.650477,84 255.469143,84 L253.757143,84 C253.575809,84 253.485143,83.9093342 253.485143,83.728 L253.485143,73.056 C253.485143,72.8746658 253.575809,72.784 253.757143,72.784 L258.253143,72.784 C258.935813,72.784 259.535807,72.9253319 260.053143,73.208 C260.570479,73.4906681 260.970475,73.8879974 261.253143,74.4 C261.535811,74.9120026 261.677143,75.4986634 261.677143,76.16 C261.677143,76.885337 261.495811,77.5093307 261.133143,78.032 C260.770474,78.5546693 260.269146,78.9226656 259.629143,79.136 C259.597143,79.1466667 259.57581,79.1653332 259.565143,79.192 C259.554476,79.2186668 259.559809,79.2426666 259.581143,79.264 L261.693143,83.68 C261.725143,83.7226669 261.741143,83.7706664 261.741143,83.824 C261.741143,83.8773336 261.71981,83.9199998 261.677143,83.952 C261.634476,83.9840002 261.57581,84 261.501143,84 L259.693143,84 Z M255.837143,74.736 C255.773143,74.736 255.741143,74.7679997 255.741143,74.832 L255.741143,77.52 C255.741143,77.5840003 255.773143,77.616 255.837143,77.616 L257.917143,77.616 C258.365145,77.616 258.730475,77.4853346 259.013143,77.224 C259.295811,76.9626654 259.437143,76.6186688 259.437143,76.192 C259.437143,75.7653312 259.295811,75.4160014 259.013143,75.144 C258.730475,74.8719986 258.365145,74.736 257.917143,74.736 L255.837143,74.736 Z M271.199429,74.464 C271.199429,74.6453342 271.108763,74.736 270.927429,74.736 L265.775429,74.736 C265.711428,74.736 265.679429,74.7679997 265.679429,74.832 L265.679429,77.28 C265.679429,77.3440003 265.711428,77.376 265.775429,77.376 L269.119429,77.376 C269.300763,77.376 269.391429,77.4666658 269.391429,77.648 L269.391429,79.04 C269.391429,79.2213342 269.300763,79.312 269.119429,79.312 L265.775429,79.312 C265.711428,79.312 265.679429,79.3439997 265.679429,79.408 L265.679429,81.968 C265.679429,82.0320003 265.711428,82.064 265.775429,82.064 L270.927429,82.064 C271.108763,82.064 271.199429,82.1546658 271.199429,82.336 L271.199429,83.728 C271.199429,83.9093342 271.108763,84 270.927429,84 L263.695429,84 C263.514094,84 263.423429,83.9093342 263.423429,83.728 L263.423429,73.072 C263.423429,72.8906658 263.514094,72.8 263.695429,72.8 L270.927429,72.8 C271.108763,72.8 271.199429,72.8906658 271.199429,73.072 L271.199429,74.464 Z M276.673714,84.128 C275.84171,84.128 275.111051,83.9893347 274.481714,83.712 C273.852378,83.4346653 273.367049,83.0453358 273.025714,82.544 C272.684379,82.0426642 272.513714,81.4560034 272.513714,80.784 L272.513714,80.512 C272.513714,80.3306658 272.60438,80.24 272.785714,80.24 L274.465714,80.24 C274.647049,80.24 274.737714,80.3093326 274.737714,80.448 L274.737714,80.672 C274.737714,81.0986688 274.932379,81.4586652 275.321714,81.752 C275.71105,82.0453348 276.220378,82.192 276.849714,82.192 C277.41505,82.192 277.833713,82.0720012 278.105714,81.832 C278.377716,81.5919988 278.513714,81.2960018 278.513714,80.944 C278.513714,80.6879987 278.428382,80.4720009 278.257714,80.296 C278.087047,80.1199991 277.857716,79.965334 277.569714,79.832 C277.281713,79.698666 276.817717,79.5146678 276.177714,79.28 C275.452377,79.0346654 274.844383,78.7840013 274.353714,78.528 C273.863045,78.2719987 273.447049,77.9226689 273.105714,77.48 C272.764379,77.0373311 272.593714,76.4906699 272.593714,75.84 C272.593714,75.1999968 272.759046,74.6400024 273.089714,74.16 C273.420383,73.6799976 273.881711,73.3120013 274.473714,73.056 C275.065717,72.7999987 275.740377,72.672 276.497714,72.672 C277.308385,72.672 278.033711,72.8159986 278.673714,73.104 C279.313717,73.3920014 279.812379,73.7946641 280.169714,74.312 C280.527049,74.8293359 280.705714,75.4293299 280.705714,76.112 L280.705714,76.272 C280.705714,76.4533342 280.615049,76.544 280.433714,76.544 L278.753714,76.544 C278.57238,76.544 278.481714,76.4906672 278.481714,76.384 L278.481714,76.224 C278.481714,75.7759978 278.297716,75.3946682 277.929714,75.08 C277.561712,74.7653318 277.057717,74.608 276.417714,74.608 C275.905712,74.608 275.511049,74.7146656 275.233714,74.928 C274.95638,75.1413344 274.817714,75.4346648 274.817714,75.808 C274.817714,76.074668 274.897713,76.2986658 275.057714,76.48 C275.217715,76.6613342 275.460379,76.8266659 275.785714,76.976 C276.111049,77.1253341 276.615044,77.3173322 277.297714,77.552 C278.044385,77.8293347 278.636379,78.071999 279.073714,78.28 C279.51105,78.488001 279.903046,78.8053312 280.249714,79.232 C280.596383,79.6586688 280.769714,80.2079966 280.769714,80.88 C280.769714,81.5306699 280.601716,82.1013309 280.265714,82.592 C279.929713,83.0826691 279.455051,83.461332 278.841714,83.728 C278.228378,83.994668 277.505718,84.128 276.673714,84.128 Z M286.26,84.128 C285.427996,84.128 284.697336,83.9893347 284.068,83.712 C283.438664,83.4346653 282.953335,83.0453358 282.612,82.544 C282.270665,82.0426642 282.1,81.4560034 282.1,80.784 L282.1,80.512 C282.1,80.3306658 282.190666,80.24 282.372,80.24 L284.052,80.24 C284.233334,80.24 284.324,80.3093326 284.324,80.448 L284.324,80.672 C284.324,81.0986688 284.518665,81.4586652 284.908,81.752 C285.297335,82.0453348 285.806664,82.192 286.436,82.192 C287.001336,82.192 287.419999,82.0720012 287.692,81.832 C287.964001,81.5919988 288.1,81.2960018 288.1,80.944 C288.1,80.6879987 288.014668,80.4720009 287.844,80.296 C287.673332,80.1199991 287.444001,79.965334 287.156,79.832 C286.867999,79.698666 286.404003,79.5146678 285.764,79.28 C285.038663,79.0346654 284.430669,78.7840013 283.94,78.528 C283.449331,78.2719987 283.033335,77.9226689 282.692,77.48 C282.350665,77.0373311 282.18,76.4906699 282.18,75.84 C282.18,75.1999968 282.345332,74.6400024 282.676,74.16 C283.006668,73.6799976 283.467997,73.3120013 284.06,73.056 C284.652003,72.7999987 285.326663,72.672 286.084,72.672 C286.894671,72.672 287.619997,72.8159986 288.26,73.104 C288.900003,73.3920014 289.398665,73.7946641 289.756,74.312 C290.113335,74.8293359 290.292,75.4293299 290.292,76.112 L290.292,76.272 C290.292,76.4533342 290.201334,76.544 290.02,76.544 L288.34,76.544 C288.158666,76.544 288.068,76.4906672 288.068,76.384 L288.068,76.224 C288.068,75.7759978 287.884002,75.3946682 287.516,75.08 C287.147998,74.7653318 286.644003,74.608 286.004,74.608 C285.491997,74.608 285.097335,74.7146656 284.82,74.928 C284.542665,75.1413344 284.404,75.4346648 284.404,75.808 C284.404,76.074668 284.483999,76.2986658 284.644,76.48 C284.804001,76.6613342 285.046665,76.8266659 285.372,76.976 C285.697335,77.1253341 286.20133,77.3173322 286.884,77.552 C287.63067,77.8293347 288.222664,78.071999 288.66,78.28 C289.097336,78.488001 289.489332,78.8053312 289.836,79.232 C290.182668,79.6586688 290.356,80.2079966 290.356,80.88 C290.356,81.5306699 290.188002,82.1013309 289.852,82.592 C289.515998,83.0826691 289.041336,83.461332 288.428,83.728 C287.814664,83.994668 287.092004,84.128 286.26,84.128 Z" opacity=".9"/>
</svg>
