<?xml version="1.0" encoding="UTF-8"?>
<svg width="28px" height="24px" viewBox="0 0 28 24" version="1.1" xmlns="http://www.w3.org/2000/svg" xmlns:xlink="http://www.w3.org/1999/xlink">
    <title>book-reader-solid</title>
    <g id="Page-1" stroke="none" stroke-width="1" fill="none" fill-rule="evenodd">
        <g id="Main" transform="translate(-656.000000, -445.000000)" fill="#A9ABB0" fill-rule="nonzero">
            <g id="book-reader-solid" transform="translate(656.000000, 445.000000)">
                <path d="M14,0 C10.699219,0 8,2.699219 8,6 C8,7.007813 8.246094,7.945313 8.6875,8.78125 C6.863281,8.335938 4.640625,8 2,8 L0.71875,8 L4.21875,22 L5,22 C8.40625,22 10.5,22.488281 11.71875,22.9375 C12.328125,23.164063 12.714844,23.386719 12.9375,23.53125 C13.160156,23.675781 13.1875,23.6875 13.1875,23.6875 L13.46875,24 L14.53125,24 L14.8125,23.6875 C14.8125,23.6875 14.839844,23.675781 15.0625,23.53125 C15.285156,23.386719 15.671875,23.164063 16.28125,22.9375 C17.5,22.488281 19.59375,22 23,22 L23.78125,22 L27.28125,8 L26,8 C23.371094,8 21.152344,8.316406 19.34375,8.75 C19.773438,7.925781 20,6.992188 20,6 C20,2.699219 17.300781,0 14,0 Z M14,2 C16.222656,2 18,3.777344 18,6 C18,8.222656 16.222656,10 14,10 C11.777344,10 10,8.222656 10,6 C10,3.777344 11.777344,2 14,2 Z M3.3125,10.125 C6.421875,10.277344 8.960938,10.816406 10.625,11.4375 C11.964844,11.9375 12.625,12.324219 13,12.5625 L13,21.3125 C12.820313,21.230469 12.65625,21.144531 12.4375,21.0625 C11.085938,20.5625 8.867188,20.140625 5.78125,20.0625 L3.3125,10.125 Z M24.6875,10.125 L22.21875,20.0625 C19.132813,20.140625 16.914063,20.5625 15.5625,21.0625 C15.34375,21.144531 15.179688,21.230469 15,21.3125 L15,12.5625 C15.375,12.320313 16.03125,11.929688 17.34375,11.4375 C18.996094,10.816406 21.539063,10.277344 24.6875,10.125 Z" id="Shape"></path>
            </g>
        </g>
    </g>
</svg>