<svg width="26" height="20" viewBox="0 0 26 20" xmlns="http://www.w3.org/2000/svg"><path d="M0 0v2h22v16H8v2h18v-2h-2V0H0zm4.002 3A4.016 4.016 0 000 7c0 2.199 1.804 4 4.002 4A4.014 4.014 0 008 7c0-2.197-1.802-4-3.998-4zM10 4v2h5V4h-5zm7 0v2h3V4h-3zM4.002 5C5.116 5 6 5.883 6 7c0 1.12-.883 2-1.998 2C2.882 9 2 8.12 2 7c0-1.117.883-2 2.002-2zM10 8v2h10V8H10zM0 12v8h2v-6h3v6h2v-5.342l2.064 1.092c.585.31 1.288.309 1.872 0v.002l3.53-1.867-.933-1.77-3.531 1.867-3.096-1.634A3.005 3.005 0 005.504 12H0z" fill="#89a"/></svg>