<svg width="28" height="24" viewBox="0 0 28 24" xmlns="http://www.w3.org/2000/svg"><path d="M14 0c-3.3 0-6 2.7-6 6 0 1.008.246 1.945.688 2.781A28.076 28.076 0 002 8H.719l3.5 14H5c3.406 0 5.5.488 6.719.938.61.226.996.449 1.219.593.222.145.25.157.25.157l.28.312h1.063l.281-.313s.028-.011.25-.156c.223-.144.61-.367 1.22-.593C17.5 22.488 19.593 22 23 22h.781l3.5-14H26c-2.629 0-4.848.316-6.656.75A5.91 5.91 0 0020 6c0-3.3-2.7-6-6-6zm0 2c2.223 0 4 1.777 4 4s-1.777 4-4 4-4-1.777-4-4 1.777-4 4-4zM3.312 10.125c3.11.152 5.649.691 7.313 1.313 1.34.5 2 .886 2.375 1.124v8.75c-.18-.082-.344-.167-.563-.25-1.351-.5-3.57-.921-6.656-1l-2.468-9.937zm21.375 0l-2.468 9.938c-3.086.078-5.305.5-6.657 1-.218.082-.382.167-.562.25v-8.75c.375-.243 1.031-.633 2.344-1.126 1.652-.62 4.195-1.16 7.343-1.312z" fill="#89a"/></svg>