<svg class="lds-spinner" width="64" height="64" xmlns="http://www.w3.org/2000/svg" viewBox="0 0 100 100" preserveAspectRatio="xMidYMid" style="background:0 0"><rect x="47" y="19" rx="5.64" ry="2.28" width="6" height="16" fill="#555"><animate attributeName="opacity" values="1;0" dur="1s" begin="-0.91666s" repeatCount="indefinite"/></rect><rect x="47" y="19" rx="5.64" ry="2.28" width="6" height="16" fill="#555" transform="rotate(30 50 50)"><animate attributeName="opacity" values="1;0" dur="1s" begin="-0.833334s" repeatCount="indefinite"/></rect><rect x="47" y="19" rx="5.64" ry="2.28" width="6" height="16" fill="#555" transform="rotate(60 50 50)"><animate attributeName="opacity" values="1;0" dur="1s" begin="-0.75s" repeatCount="indefinite"/></rect><rect x="47" y="19" rx="5.64" ry="2.28" width="6" height="16" fill="#555" transform="rotate(90 50 50)"><animate attributeName="opacity" values="1;0" dur="1s" begin="-0.666666s" repeatCount="indefinite"/></rect><rect x="47" y="19" rx="5.64" ry="2.28" width="6" height="16" fill="#555" transform="rotate(120 50 50)"><animate attributeName="opacity" values="1;0" dur="1s" begin="-0.583334s" repeatCount="indefinite"/></rect><rect x="47" y="19" rx="5.64" ry="2.28" width="6" height="16" fill="#555" transform="rotate(150 50 50)"><animate attributeName="opacity" values="1;0" dur="1s" begin="-0.5s" repeatCount="indefinite"/></rect><rect x="47" y="19" rx="5.64" ry="2.28" width="6" height="16" fill="#555" transform="rotate(180 50 50)"><animate attributeName="opacity" values="1;0" dur="1s" begin="-0.416667s" repeatCount="indefinite"/></rect><rect x="47" y="19" rx="5.64" ry="2.28" width="6" height="16" fill="#555" transform="rotate(210 50 50)"><animate attributeName="opacity" values="1;0" dur="1s" begin="-0.333333s" repeatCount="indefinite"/></rect><rect x="47" y="19" rx="5.64" ry="2.28" width="6" height="16" fill="#555" transform="rotate(240 50 50)"><animate attributeName="opacity" values="1;0" dur="1s" begin="-0.25s" repeatCount="indefinite"/></rect><rect x="47" y="19" rx="5.64" ry="2.28" width="6" height="16" fill="#555" transform="rotate(270 50 50)"><animate attributeName="opacity" values="1;0" dur="1s" begin="-0.166666s" repeatCount="indefinite"/></rect><rect x="47" y="19" rx="5.64" ry="2.28" width="6" height="16" fill="#555" transform="rotate(300 50 50)"><animate attributeName="opacity" values="1;0" dur="1s" begin="-0.083333s" repeatCount="indefinite"/></rect><rect x="47" y="19" rx="5.64" ry="2.28" width="6" height="16" fill="#555" transform="rotate(330 50 50)"><animate attributeName="opacity" values="1;0" dur="1s" begin="0s" repeatCount="indefinite"/></rect></svg>