<?xml version="1.0" encoding="utf-8"?>
<svg xmlns="http://www.w3.org/2000/svg">
  <symbol id="clean" viewBox="0 0 24 24"><path style="fill: currentColor" d="M19.36,2.72L20.78,4.14L15.06,9.85C16.13,11.39 16.28,13.24 15.38,14.44L9.06,8.12C10.26,7.22 12.11,7.37 13.65,8.44L19.36,2.72M5.93,17.57C3.92,15.56 2.69,13.16 2.35,10.92L7.23,8.83L14.67,16.27L12.58,21.15C10.34,20.81 7.94,19.58 5.93,17.57Z"/></symbol>
  <symbol id="validate" viewBox="0 0 24 24"><path style="fill: currentColor" d="M6.59,3.41L2,8L6.59,12.6L8,11.18L4.82,8L8,4.82L6.59,3.41M12.41,3.41L11,4.82L14.18,8L11,11.18L12.41,12.6L17,8L12.41,3.41M21.59,11.59L13.5,19.68L9.83,16L8.42,17.41L13.5,22.5L23,13L21.59,11.59Z"/></symbol>
  <symbol id="source" viewBox="0 0 24 24"><path style="fill: currentColor" d="M20,19V7H4V19H20M20,3A2,2 0 0,1 22,5V19A2,2 0 0,1 20,21H4A2,2 0 0,1 2,19V5C2,3.89 2.9,3 4,3H20M13,17V15H18V17H13M9.58,13L5.57,9H8.4L11.7,12.3C12.09,12.69 12.09,13.33 11.7,13.72L8.42,17H5.59L9.58,13Z"/></symbol>
  <symbol id="delete" viewBox="0 0 24 24"><path style="fill: currentColor" d="M19,4H15.5L14.5,3H9.5L8.5,4H5V6H19M6,19A2,2 0 0,0 8,21H16A2,2 0 0,0 18,19V7H6V19Z"/></symbol>
  <symbol id="eraser" viewBox="0 0 24 24"><path style="fill: currentColor" d="M15.14,3C14.63,3 14.12,3.2 13.73,3.59L2.59,14.73C1.81,15.5 1.81,16.77 2.59,17.56L5.03,20H12.69L21.41,11.27C22.2,10.5 22.2,9.23 21.41,8.44L16.56,3.59C16.17,3.2 15.65,3 15.14,3M17,18L15,20H22V18"/></symbol>
  <symbol id="center" viewBox="0 0 24 24"><path style="fill: currentColor" d="M3,3H21V5H3V3M7,7H17V9H7V7M3,11H21V13H3V11M7,15H17V17H7V15M3,19H21V21H3V19Z"/></symbol>
  <symbol id="left" viewBox="0 0 24 24"><path style="fill: currentColor" d="M3,3H21V5H3V3M3,7H15V9H3V7M3,11H21V13H3V11M3,15H15V17H3V15M3,19H21V21H3V19Z"/></symbol>
  <symbol id="right" viewBox="0 0 24 24"><path style="fill: currentColor" d="M3,3H21V5H3V3M9,7H21V9H9V7M3,11H21V13H3V11M9,15H21V17H9V15M3,19H21V21H3V19Z"/></symbol>
  <symbol id="text-bold" viewBox="0 0 24 24"><path style="fill: currentColor" d="M13.5,15.5H10V12.5H13.5A1.5,1.5 0 0,1 15,14A1.5,1.5 0 0,1 13.5,15.5M10,6.5H13A1.5,1.5 0 0,1 14.5,8A1.5,1.5 0 0,1 13,9.5H10M15.6,10.79C16.57,10.11 17.25,9 17.25,8C17.25,5.74 15.5,4 13.25,4H7V18H14.04C16.14,18 17.75,16.3 17.75,14.21C17.75,12.69 16.89,11.39 15.6,10.79Z"/></symbol>
  <symbol id="text-color" viewBox="0 0 24 24"><path style="fill: currentColor" d="M9.62,12L12,5.67L14.37,12M11,3L5.5,17H7.75L8.87,14H15.12L16.25,17H18.5L13,3H11Z"/></symbol>
  <symbol id="text-smaller" viewBox="0 0 24 24"><path style="fill: currentColor" d="M5.12,14L7.5,7.67L9.87,14M6.5,5L1,19H3.25L4.37,16H10.62L11.75,19H14L8.5,5H6.5M18,17L23,11.93L21.59,10.5L19,13.1V7H17V13.1L14.41,10.5L13,11.93L18,17Z"/></symbol>
  <symbol id="text-larger" viewBox="0 0 24 24"><path style="fill: currentColor" d="M5.12,14L7.5,7.67L9.87,14M6.5,5L1,19H3.25L4.37,16H10.62L11.75,19H14L8.5,5H6.5M18,7L13,12.07L14.41,13.5L17,10.9V17H19V10.9L21.59,13.5L23,12.07L18,7Z"/></symbol>
  <symbol id="indent-less" viewBox="0 0 24 24"><path style="fill: currentColor" d="M11,13H21V11H11M11,9H21V7H11M3,3V5H21V3M3,21H21V19H3M3,12L7,16V8M11,17H21V15H11V17Z"/></symbol>
  <symbol id="indent-more" viewBox="0 0 24 24"><path style="fill: currentColor" d="M11,13H21V11H11M11,9H21V7H11M3,3V5H21V3M11,17H21V15H11M3,8V16L7,12M3,21H21V19H3V21Z"/></symbol>
  <symbol id="text-italic" viewBox="0 0 24 24"><path style="fill: currentColor" d="M10,4V7H12.21L8.79,15H6V18H14V15H11.79L15.21,7H18V4H10Z"/></symbol>
  <symbol id="list-bullets" viewBox="0 0 24 24"><path style="fill: currentColor" d="M7,5H21V7H7V5M7,13V11H21V13H7M4,4.5A1.5,1.5 0 0,1 5.5,6A1.5,1.5 0 0,1 4,7.5A1.5,1.5 0 0,1 2.5,6A1.5,1.5 0 0,1 4,4.5M4,10.5A1.5,1.5 0 0,1 5.5,12A1.5,1.5 0 0,1 4,13.5A1.5,1.5 0 0,1 2.5,12A1.5,1.5 0 0,1 4,10.5M7,19V17H21V19H7M4,16.5A1.5,1.5 0 0,1 5.5,18A1.5,1.5 0 0,1 4,19.5A1.5,1.5 0 0,1 2.5,18A1.5,1.5 0 0,1 4,16.5Z"/></symbol>
  <symbol id="list-ordered" viewBox="0 0 24 24"><path style="fill: currentColor" d="M7,13V11H21V13H7M7,19V17H21V19H7M7,7V5H21V7H7M3,8V5H2V4H4V8H3M2,17V16H5V20H2V19H4V18.5H3V17.5H4V17H2M4.25,10A0.75,0.75 0 0,1 5,10.75C5,10.95 4.92,11.14 4.79,11.27L3.12,13H5V14H2V13.08L4,11H2V10H4.25Z"/></symbol>
  <symbol id="text-sup" viewBox="0 0 24 24"><path style="fill: currentColor" d="M16,7.41L11.41,12L16,16.59L14.59,18L10,13.41L5.41,18L4,16.59L8.59,12L4,7.41L5.41,6L10,10.59L14.59,6L16,7.41M21.85,21.03H16.97V20.03L17.86,19.23C18.62,18.58 19.18,18.04 19.56,17.6C19.93,17.16 20.12,16.75 20.13,16.36C20.14,16.08 20.05,15.85 19.86,15.66C19.68,15.5 19.39,15.38 19,15.38C18.69,15.38 18.42,15.44 18.16,15.56L17.5,15.94L17.05,14.77C17.32,14.56 17.64,14.38 18.03,14.24C18.42,14.1 18.85,14 19.32,14C20.1,14.04 20.7,14.25 21.1,14.66C21.5,15.07 21.72,15.59 21.72,16.23C21.71,16.79 21.53,17.31 21.18,17.78C20.84,18.25 20.42,18.7 19.91,19.14L19.27,19.66V19.68H21.85V21.03Z"/></symbol>
  <symbol id="text-sub" viewBox="0 0 24 24"><path style="fill: currentColor" d="M16,7.41L11.41,12L16,16.59L14.59,18L10,13.41L5.41,18L4,16.59L8.59,12L4,7.41L5.41,6L10,10.59L14.59,6L16,7.41M21.85,9H16.97V8L17.86,7.18C18.62,6.54 19.18,6 19.56,5.55C19.93,5.11 20.12,4.7 20.13,4.32C20.14,4.04 20.05,3.8 19.86,3.62C19.68,3.43 19.39,3.34 19,3.33C18.69,3.34 18.42,3.4 18.16,3.5L17.5,3.89L17.05,2.72C17.32,2.5 17.64,2.33 18.03,2.19C18.42,2.05 18.85,2 19.32,2C20.1,2 20.7,2.2 21.1,2.61C21.5,3 21.72,3.54 21.72,4.18C21.71,4.74 21.53,5.26 21.18,5.73C20.84,6.21 20.42,6.66 19.91,7.09L19.27,7.61V7.63H21.85V9Z"/></symbol>
  <symbol id="text-format" viewBox="0 0 24 24"><path style="fill: currentColor" d="M18.5,4L19.66,8.35L18.7,8.61C18.25,7.74 17.79,6.87 17.26,6.43C16.73,6 16.11,6 15.5,6H13V16.5C13,17 13,17.5 13.33,17.75C13.67,18 14.33,18 15,18V19H9V18C9.67,18 10.33,18 10.67,17.75C11,17.5 11,17 11,16.5V6H8.5C7.89,6 7.27,6 6.74,6.43C6.21,6.87 5.75,7.74 5.3,8.61L4.34,8.35L5.5,4H18.5Z"/></symbol>
  <symbol id="text-underline" viewBox="0 0 24 24"><path style="fill: currentColor" d="M5,21H19V19H5V21M12,17A6,6 0 0,0 18,11V3H15.5V11A3.5,3.5 0 0,1 12,14.5A3.5,3.5 0 0,1 8.5,11V3H6V11A6,6 0 0,0 12,17Z"/></symbol>
  <symbol id="image-add" viewBox="0 0 24 24"><path style="fill: currentColor" d="M5,3A2,2 0 0,0 3,5V19A2,2 0 0,0 5,21H14.09C14.03,20.67 14,20.34 14,20C14,19.32 14.12,18.64 14.35,18H5L8.5,13.5L11,16.5L14.5,12L16.73,14.97C17.7,14.34 18.84,14 20,14C20.34,14 20.67,14.03 21,14.09V5C21,3.89 20.1,3 19,3H5M19,16V19H16V21H19V24H21V21H24V19H21V16H19Z"/></symbol>
  <symbol id="redo" viewBox="0 0 24 24"><path style="fill: currentColor" d="M18.4,10.6C16.55,9 14.15,8 11.5,8C6.85,8 2.92,11.03 1.54,15.22L3.9,16C4.95,12.81 7.95,10.5 11.5,10.5C13.45,10.5 15.23,11.22 16.62,12.38L13,16H22V7L18.4,10.6Z"/></symbol>
  <symbol id="undo" viewBox="0 0 24 24"><path style="fill: currentColor" d="M12.5,8C9.85,8 7.45,9 5.6,10.6L2,7V16H11L7.38,12.38C8.77,11.22 10.54,10.5 12.5,10.5C16.04,10.5 19.05,12.81 20.1,16L22.47,15.22C21.08,11.03 17.15,8 12.5,8Z"/></symbol>
</svg>