<svg width="431" height="240" viewBox="0 0 431 240" xmlns="http://www.w3.org/2000/svg" xmlns:xlink="http://www.w3.org/1999/xlink"><title>splash</title><defs><path id="a" d="M0 0h440v240H0z"/><radialGradient cx="49.95%" cy="50%" fx="49.95%" fy="50%" r="50.539%" gradientTransform="matrix(1 0 0 .97922 0 .01)" id="c"><stop stop-color="#08D" offset="0%"/><stop stop-color="#06B" offset="41.9%"/><stop stop-color="#04A" offset="100%"/></radialGradient></defs><g transform="translate(-9)" fill="none"><mask id="b" fill="#fff"><use xlink:href="#a"/></mask><path d="M1136.775-595.1H-558.833c168.333 50.274 324.951 157.884 438.09 316.597C135.308 80.674 71.445 565.27-262.633 803.422a693.741 693.741 0 01-195.988 97.55h1595.397V-595.1z" fill="#049" mask="url(#b)"/><path d="M1506.581 422.976L54.85-729.008c109.92 157.382 170.608 355.755 159.628 568.454-24.85 481.349-408.072 853.179-855.785 830.068A758.745 758.745 0 01-875.43 619.85l1365.71 1083.7 1016.3-1280.575z" fill="url(#c)" mask="url(#b)"/></g></svg>